<svg width="50" height="50" viewBox="0 0 50 50" fill="none" xmlns="http://www.w3.org/2000/svg">
<path d="M41.7609 7.98669C51.0298 17.0275 51.4512 31.8039 42.717 41.3632C33.9829 50.9225 19.2207 51.8136 9.38462 43.3885C-0.451427 34.9633 -1.82879 20.2355 6.28959 10.1416C14.408 0.0314094 29.0729 -1.79944 39.4275 5.97762" fill="#D3D7DB"/>
<path d="M41.7609 7.98669C51.0298 17.0275 51.4512 31.8039 42.717 41.3632C33.9829 50.9225 19.2207 51.8136 9.38462 43.3885C-0.451427 34.9633 -1.82879 20.2355 6.28959 10.1416C14.408 0.0314094 29.0729 -1.79944 39.4275 5.97762" stroke="#313C47" stroke-linecap="round" stroke-linejoin="round"/>
<path d="M35.8624 10.469C36.2837 10.7931 36.705 11.1334 37.0939 11.4899" stroke="#313C47" stroke-linecap="round" stroke-linejoin="round"/>
<path d="M29.5105 7.73047C31.4064 8.07076 33.2213 8.76755 34.8579 9.78842" stroke="#313C47" stroke-linecap="round" stroke-linejoin="round"/>
<path d="M42.4898 28.6633L44.726 31.5314" stroke="#313C47" stroke-linecap="round" stroke-linejoin="round"/>
<path d="M44.0292 28.7605L44.5802 29.4573" stroke="#313C47" stroke-linecap="round" stroke-linejoin="round"/>
<path d="M42.0361 29.9596L43.2353 31.4828" stroke="#313C47" stroke-linecap="round" stroke-linejoin="round"/>
<path d="M15.9635 27.9186C17.2701 27.9186 18.3293 26.8594 18.3293 25.5528C18.3293 24.2462 17.2701 23.187 15.9635 23.187C14.6569 23.187 13.5977 24.2462 13.5977 25.5528C13.5977 26.8594 14.6569 27.9186 15.9635 27.9186Z" fill="#313C47" stroke="#313C47" stroke-linecap="round" stroke-linejoin="round"/>
<path d="M33.9829 27.9186C35.2895 27.9186 36.3487 26.8594 36.3487 25.5528C36.3487 24.2462 35.2895 23.187 33.9829 23.187C32.6763 23.187 31.6171 24.2462 31.6171 25.5528C31.6171 26.8594 32.6763 27.9186 33.9829 27.9186Z" fill="#313C47" stroke="#313C47" stroke-linecap="round" stroke-linejoin="round"/>
<path d="M17.9081 36.489C19.172 34.9009 21.8619 33.8152 24.957 33.8152C28.052 33.8152 30.7257 34.9009 32.0059 36.489" stroke="#313C47" stroke-linecap="round" stroke-linejoin="round"/>
<path d="M4.99316 27.2213L7.21315 30.0894" stroke="#313C47" stroke-linecap="round" stroke-linejoin="round"/>
<path d="M6.53259 27.3185L7.08355 28.0315" stroke="#313C47" stroke-linecap="round" stroke-linejoin="round"/>
<path d="M4.53949 28.5176L5.72242 30.057" stroke="#313C47" stroke-linecap="round" stroke-linejoin="round"/>
</svg>