<svg width="52" height="52" viewBox="0 0 52 52" fill="none" xmlns="http://www.w3.org/2000/svg">
<path d="M43.7325 8.31775C53.4497 17.7971 53.8914 33.2903 44.7348 43.3134C35.5782 53.3364 20.102 54.2707 9.79018 45.4369C-0.521631 36.603 -1.96562 21.1606 6.54545 10.577C15.0565 -0.0236292 30.4308 -1.94316 41.2862 6.21116" fill="#C79BFF"/>
<path d="M43.7325 8.31775C53.4497 17.7971 53.8914 33.2903 44.7348 43.3134C35.5782 53.3364 20.102 54.2707 9.79018 45.4369C-0.521631 36.603 -1.96562 21.1606 6.54545 10.577C15.0565 -0.0236292 30.4308 -1.94316 41.2862 6.21116" stroke="#111418" stroke-linecap="round" stroke-linejoin="round"/>
<path d="M37.5486 7.77429C37.9903 8.11406 38.432 8.47094 38.8397 8.84468" stroke="#111418" stroke-linecap="round" stroke-linejoin="round"/>
<path d="M30.8895 4.90344C32.8771 5.26019 34.7798 5.99055 36.4956 7.06081" stroke="#111418" stroke-linecap="round" stroke-linejoin="round"/>
<path d="M41.1503 26.8517L43.4946 29.8585" stroke="#111418" stroke-linecap="round" stroke-linejoin="round"/>
<path d="M42.7643 26.9537L43.3419 27.6844" stroke="#111418" stroke-linecap="round" stroke-linejoin="round"/>
<path d="M40.6745 28.2109L41.9316 29.8079" stroke="#111418" stroke-linecap="round" stroke-linejoin="round"/>
<path d="M8.95782 26.8522L11.3022 29.8589" stroke="#111418" stroke-linecap="round" stroke-linejoin="round"/>
<path d="M10.5717 26.954L11.1493 27.6846" stroke="#111418" stroke-linecap="round" stroke-linejoin="round"/>
<path d="M8.48199 28.2111L9.73912 29.8081" stroke="#111418" stroke-linecap="round" stroke-linejoin="round"/>
<path d="M13.6974 23.9981C14.0882 21.8915 15.5322 20.3287 17.265 20.3287C18.9978 20.3287 20.4417 21.9088 20.8325 24.0153" stroke="#111418" stroke-linecap="round" stroke-linejoin="round"/>
<path d="M31.433 23.9979C31.8238 21.8913 33.2678 20.3285 35.0006 20.3285C36.7333 20.3285 38.1773 21.9086 38.5681 24.0151" stroke="#111418" stroke-linecap="round" stroke-linejoin="round"/>
<path d="M35.6973 30.7933C35.5104 35.4821 31.3144 39.2366 26.133 39.2366C20.9686 39.2366 16.7555 35.4821 16.5686 30.7933C16.5686 30.7084 16.6026 30.6237 16.6706 30.5558C16.7385 30.4878 16.8235 30.4708 16.9084 30.4708H35.3745C35.4595 30.4708 35.5444 30.5048 35.6124 30.5558C35.6633 30.6237 35.6973 30.7084 35.6973 30.7933Z" fill="#111418" stroke="#111418" stroke-linecap="round" stroke-linejoin="round"/>
<path d="M33.5905 30.4876C32.2485 32.781 29.4624 34.3607 26.2177 34.3607C22.9729 34.3607 20.1869 32.781 18.8448 30.4876H33.5905Z" fill="white" stroke="#111418" stroke-linecap="round" stroke-linejoin="round"/>
</svg>