<svg width="380" height="380" viewBox="0 0 450 415" fill="none" xmlns="http://www.w3.org/2000/svg">
        <path d="M118.13 175.215C142.963 175.215 158.026 155.702 158.026 124.495V124.359C158.026 93.1518 142.963 73.7068 118.13 73.7068C93.2959 73.7068 78.2328 93.1518 78.2328 124.359V124.495C78.2328 155.702 93.2959 175.215 118.13 175.215ZM118.13 158.762C105.916 158.762 98.9275 146.048 98.9275 124.495V124.359C98.9275 102.806 105.916 90.1603 118.13 90.1603C130.343 90.1603 137.332 102.806 137.332 124.359V124.495C137.332 146.048 130.343 158.762 118.13 158.762Z" fill="#111418"/>
        <path d="M175.008 174.671C181.115 174.671 186 169.776 186 163.657C186 157.47 181.115 152.643 175.008 152.643C168.834 152.643 164.016 157.47 164.016 163.657C164.016 169.776 168.834 174.671 175.008 174.671Z" fill="#111418"/>
        <path d="M213.906 173.516H234.194V75.4065H213.838L188.53 93.0159V111.237L213.499 94.2397H213.906V173.516Z" fill="#111418"/>
        <path d="M291.683 175.215C314.074 175.215 329.544 161.278 329.544 140.745V140.609C329.544 122.115 316.11 108.721 297.518 108.721C287.612 108.721 279.538 112.733 275.467 119.328H275.06L277.434 91.7241H323.641V75.4065H261.15L256.672 132.994H274.517C275.67 130.954 277.231 129.05 279.198 127.555C282.523 124.903 286.798 123.407 291.819 123.407C302.404 123.407 309.935 130.682 310.003 141.017V141.153C310.003 151.623 302.472 158.966 291.751 158.966C282.32 158.966 275.467 153.255 274.042 145.844L273.906 145.368H254.975L255.043 146.388C256.265 162.773 270.378 175.215 291.683 175.215Z" fill="#111418"/>
        <path d="M360.368 125.923C374.413 125.923 383.03 116.064 383.03 100.223V100.155C383.03 84.3812 374.413 74.5227 360.368 74.5227C346.255 74.5227 337.638 84.3812 337.638 100.155V100.223C337.638 116.064 346.255 125.923 360.368 125.923ZM370.478 173.516L432.291 75.4065H417.228L355.347 173.516H370.478ZM360.368 114.637C354.872 114.637 351.819 109.537 351.819 100.223V100.155C351.819 90.9082 354.872 85.809 360.368 85.809C365.796 85.809 368.782 90.9082 368.782 100.155V100.223C368.782 109.537 365.796 114.637 360.368 114.637ZM427.338 174.4C441.383 174.4 450 164.541 450 148.699V148.631C450 132.858 441.383 122.999 427.338 122.999C413.224 122.999 404.607 132.858 404.607 148.631V148.699C404.607 164.541 413.224 174.4 427.338 174.4ZM427.338 163.113C421.842 163.113 418.788 158.014 418.788 148.699V148.631C418.788 139.385 421.842 134.286 427.338 134.286C432.766 134.286 435.751 139.385 435.751 148.631V148.699C435.751 158.014 432.766 163.113 427.338 163.113Z" fill="#111418"/>
        <path d="M90.222 351.917C89.6367 352.521 88.8111 352.864 87.9509 352.916C87.0908 352.967 86.2574 352.603 85.6525 352.018L9.01798 277.628C8.41309 277.043 8.06996 276.218 8.01833 275.357C8.01934 274.511 8.33105 273.664 8.9163 273.059C9.11138 272.857 9.35933 272.67 9.62632 272.516C10.8612 271.803 12.4442 272.002 13.5049 272.991L17.0237 276.388L46.1022 304.633L46.4334 304.976L90.1395 347.38C91.4212 348.598 91.44 350.635 90.222 351.917Z" fill="#111418" stroke="#111418" stroke-linecap="round" stroke-linejoin="round"/>
        <path d="M94.1957 244.96C92.056 246.418 90.0215 247.904 88.0731 249.385C85.5483 251.332 83.1957 253.269 80.9817 255.215C55.9404 276.97 47.8131 299.195 46.169 304.595L17.0712 276.316C17.0712 276.316 34.7492 241.191 70.4023 221.63C72.7911 220.295 75.7851 220.702 77.7628 222.586C79.5004 224.209 81.73 226.837 84.5598 231.122C85.1082 231.918 85.5849 232.666 86.0229 233.348C92.1486 242.493 91.71 240.655 94.1957 244.96Z" fill="#FFF2B3" stroke="#111418" stroke-linecap="round" stroke-linejoin="round"/>
        <path d="M94.1956 244.96C94.1956 244.96 95.9868 248.91 91.8805 255.286C91.2158 256.293 90.6946 257.394 90.3509 258.571C89.2121 262.611 91.7164 264.636 91.8794 264.764C91.6303 264.641 85.9343 261.789 80.9482 255.234C83.1622 253.288 85.5674 251.365 88.0588 249.437C90.0213 247.904 92.0751 246.451 94.1956 244.96Z" fill="#E6BF00" stroke="#111418" stroke-linecap="round" stroke-linejoin="round"/>
        <path d="M132.071 228.477C132.281 228.534 132.397 228.734 132.408 228.906C132.437 229.112 132.328 229.308 132.161 229.405C128.518 231.419 115.966 238.889 110.38 247.943C103.769 258.613 96.6839 264.839 91.9131 264.745C91.7692 264.65 89.2123 262.611 90.3845 258.552C90.7282 257.375 91.2494 256.274 91.9141 255.267C96.0204 248.891 94.2292 244.941 94.2292 244.941C91.7436 240.636 92.1821 242.474 86.0564 233.329C89.5614 229.303 99.4065 219.302 117.64 210.11C117.74 210.052 117.845 210.08 117.936 210.161C118.027 210.242 118.052 210.362 117.99 210.486C116.597 213.16 112.059 222.41 113.357 228.513C113.305 228.499 122.492 225.375 132.071 228.477Z" fill="#FFEA80" stroke="#111418" stroke-linecap="round" stroke-linejoin="round"/>
        <path d="M45.6524 247.666C47.0283 246.427 48.5237 245.163 50.1576 243.909" stroke="#111418" stroke-linecap="round" stroke-linejoin="round"/>
        <path d="M30.8214 268.377C30.8214 268.377 33.8305 259.253 43.7773 249.506" stroke="#111418" stroke-linecap="round" stroke-linejoin="round"/>
        <path d="M95.4202 232.282C95.4202 232.282 98.8314 227.554 106.681 223.423" stroke="#111418" stroke-linecap="round" stroke-linejoin="round"/>
        <path d="M95.9101 257.41C95.9101 257.41 99.7153 257.526 103.563 248.853" stroke="#111418" stroke-linecap="round" stroke-linejoin="round"/>
        <path d="M45.3297 270.77L53.3461 274.018" stroke="#111418" stroke-linecap="round" stroke-linejoin="round"/>
        <path d="M48.6161 269.14L50.5983 269.953" stroke="#111418" stroke-linecap="round" stroke-linejoin="round"/>
        <path d="M45.9366 273.979L50.2369 275.724" stroke="#111418" stroke-linecap="round" stroke-linejoin="round"/>
        <path d="M222.09 369.097V413.519L38.3255 390.3C37.3886 390.196 36.8533 389.987 36.8533 389.744V346.435L222.09 369.097Z" fill="#6699CC" stroke="#111418" stroke-linecap="round" stroke-linejoin="round"/>
        <path d="M407.327 346.435V389.744C407.327 389.952 406.792 390.161 405.855 390.3L222.09 413.519V369.097L407.327 346.435Z" fill="#FF8080" stroke="#111418" stroke-linecap="round" stroke-linejoin="round"/>
        <path d="M407.328 346.435L222.09 369.097L36.8534 346.435L218.878 325.615C220.886 325.371 223.362 325.371 225.37 325.615L407.328 346.435Z" fill="#FFF2B3" stroke="#111418" stroke-linecap="round" stroke-linejoin="round"/>
        <path d="M60.4094 349.163L242.501 327.578" stroke="#111418" stroke-linecap="round" stroke-linejoin="round"/>
        <path d="M83.631 352.118L266.994 330.394" stroke="#111418" stroke-linecap="round" stroke-linejoin="round"/>
        <path d="M106.853 354.795L290.283 333.036" stroke="#111418" stroke-linecap="round" stroke-linejoin="round"/>
        <path d="M130.074 357.714L314.709 335.851" stroke="#111418" stroke-linecap="round" stroke-linejoin="round"/>
        <path d="M153.296 360.495L338.399 338.562" stroke="#111418" stroke-linecap="round" stroke-linejoin="round"/>
        <path d="M176.517 363.171L361.018 341.308" stroke="#111418" stroke-linecap="round" stroke-linejoin="round"/>
        <path d="M199.739 366.091L386.113 344.019" stroke="#111418" stroke-linecap="round" stroke-linejoin="round"/>
        <path d="M222.104 326.687V355.189L94.7534 340.313C94.1512 340.243 93.7496 340.104 93.7496 339.965V312.158L222.104 326.687Z" fill="#6699CC" stroke="#111418" stroke-linecap="round" stroke-linejoin="round"/>
        <path d="M350.525 312.158V339.965C350.525 340.104 350.124 340.243 349.521 340.313L222.104 355.189V326.687L350.525 312.158Z" fill="#FF8080" stroke="#111418" stroke-linecap="round" stroke-linejoin="round"/>
        <path d="M350.525 312.159L222.104 326.688L93.7498 312.159L219.829 298.811C221.234 298.672 222.907 298.672 224.312 298.811L350.525 312.159Z" fill="#FFF2B3" stroke="#111418" stroke-linecap="round" stroke-linejoin="round"/>
        <path d="M110.011 313.91L236.224 300.042" stroke="#111418" stroke-linecap="round" stroke-linejoin="round"/>
        <path d="M126.139 315.787L253.222 301.849" stroke="#111418" stroke-linecap="round" stroke-linejoin="round"/>
        <path d="M142.2 317.49L269.35 303.552" stroke="#111418" stroke-linecap="round" stroke-linejoin="round"/>
        <path d="M158.328 319.402L286.281 305.36" stroke="#111418" stroke-linecap="round" stroke-linejoin="round"/>
        <path d="M174.389 321.175L302.677 307.098" stroke="#111418" stroke-linecap="round" stroke-linejoin="round"/>
        <path d="M190.517 322.878L318.403 308.836" stroke="#111418" stroke-linecap="round" stroke-linejoin="round"/>
        <path d="M206.578 324.79L335.802 310.608" stroke="#111418" stroke-linecap="round" stroke-linejoin="round"/>
        <path d="M327.673 282.478L324.311 311.702L158.987 310.991C164.936 310.991 174.569 303.232 179.289 299.224L196.681 284.676L210.711 272.974L327.673 282.478Z" fill="#6699CC" stroke="#111418" stroke-linecap="round" stroke-linejoin="round"/>
        <path d="M221.832 287.845L228.168 295.991" stroke="#111418" stroke-linecap="round" stroke-linejoin="round"/>
        <path d="M226.164 288.103L227.716 290.108" stroke="#111418" stroke-linecap="round" stroke-linejoin="round"/>
        <path d="M220.539 291.53L223.901 295.862" stroke="#111418" stroke-linecap="round" stroke-linejoin="round"/>
        <path d="M316.099 311.702L268.966 311.508C267.931 311.508 266.961 310.862 266.573 309.827L257.522 286.163H293.858L297.285 298.06C297.285 298.06 310.862 301.875 316.617 310.732C316.746 310.926 316.746 311.185 316.617 311.379C316.487 311.573 316.293 311.702 316.099 311.702Z" fill="white" stroke="#111418" stroke-linecap="round" stroke-linejoin="round"/>
        <path d="M297.285 297.995C293.987 297.155 290.561 296.832 287.134 297.026" stroke="#111418" stroke-linecap="round" stroke-linejoin="round"/>
        <path d="M296.25 302.456C298.061 302.78 301.293 303.426 303.427 304.849" stroke="#111418" stroke-linecap="round" stroke-linejoin="round"/>
        <path d="M358.061 270.582L349.074 309.181C348.686 310.733 347.328 311.832 345.711 311.832L324.311 311.767L327.673 282.543L341.186 283.642C345.97 274.526 352.694 269.935 356.186 268.836C356.703 268.707 357.22 268.836 357.608 269.159C357.996 269.482 358.19 270.065 358.061 270.582Z" fill="white" stroke="#111418" stroke-linecap="round" stroke-linejoin="round"/>
        <path d="M341.186 283.578C339.828 285.646 338.793 287.909 338.018 290.302" stroke="#111418" stroke-linecap="round" stroke-linejoin="round"/>
        <path d="M345.518 283.577C345.518 283.577 346.035 281.249 349.009 278.534" stroke="#111418" stroke-linecap="round" stroke-linejoin="round"/>
        <path d="M293.793 286.164H257.457L253.772 276.465L253.384 275.496L252.866 274.202L241.875 246.918L210.711 273.038L196.681 284.741L179.289 299.289C174.569 303.233 164.935 311.056 158.987 311.056L143.664 310.991C128.729 310.927 116.444 299.095 115.927 284.159C115.862 281.638 115.927 280.086 115.927 280.086L188.535 232.435L205.474 221.314C206.509 220.603 207.543 219.957 208.642 219.246C209.677 218.534 210.582 217.888 211.552 217.241C212.069 216.853 212.651 216.465 213.233 216.078C218.793 212.263 224.677 208.901 230.819 205.991C231.53 205.668 232.241 205.345 232.953 205.021C233.341 204.827 233.793 204.633 234.246 204.504C241.81 201.465 249.698 199.72 255.905 201.789C274.461 208.125 282.737 246.465 282.737 246.465L291.336 277.564L291.983 279.698L293.793 286.164Z" fill="#6699CC" stroke="#111418" stroke-linecap="round" stroke-linejoin="round"/>
        <path d="M210.711 272.974L241.94 246.918L252.867 237.737" stroke="#111418" stroke-linecap="round" stroke-linejoin="round"/>
        <path d="M248.017 210.258C246.66 209.418 245.819 208.448 246.013 207.608" stroke="#111418" stroke-linecap="round" stroke-linejoin="round"/>
        <path d="M251.573 206.25C252.026 206.315 252.478 206.379 252.996 206.509C256.422 207.349 258.944 209.224 258.621 210.646C258.297 212.069 255.194 212.521 251.703 211.681C250.862 211.487 250.086 211.229 249.31 210.905" stroke="#111418" stroke-linecap="round" stroke-linejoin="round"/>
        <path d="M249.828 208.513C249.892 208.189 251.056 208.189 252.478 208.513C253.836 208.836 254.935 209.418 254.806 209.741" stroke="#111418" stroke-linecap="round" stroke-linejoin="round"/>
        <path d="M139.849 301.487C141.272 302.004 142.823 302.263 144.31 302.263" stroke="#111418" stroke-linecap="round" stroke-linejoin="round"/>
        <path d="M128.664 291.788C128.664 291.788 131.703 297.349 137.263 300.388" stroke="#111418" stroke-linecap="round" stroke-linejoin="round"/>
        <path d="M174.44 293.47C178.061 290.948 181.423 287.974 184.461 284.741" stroke="white" stroke-width="0.8" stroke-linecap="round" stroke-linejoin="round"/>
        <path d="M191.186 205.862L177.673 212.069C172.306 198.491 167.845 182.845 163.707 174.181C161.38 169.332 158.729 165.194 155.625 162.22C155.302 161.896 154.979 161.573 154.591 161.315C165.711 168.75 184.526 202.177 191.186 205.862Z" fill="#E6FFE6" stroke="#111418" stroke-linecap="round" stroke-linejoin="round"/>
        <path d="M188.47 232.37L115.862 280.021C115.862 280.021 111.466 223.384 110.043 191.509C109.138 171.466 118.901 163.125 126.272 159.698C129.634 158.146 133.319 157.37 137.004 157.37H145.086C148.578 157.37 151.681 158.793 154.526 161.185C154.849 161.444 155.237 161.767 155.56 162.091C158.664 165.065 161.315 169.203 163.642 174.052C167.78 182.715 172.241 198.362 177.608 211.939C180.905 220.215 184.461 227.651 188.47 232.37Z" fill="#E6FFE6" stroke="#111418" stroke-linecap="round" stroke-linejoin="round"/>
        <path d="M146.121 164.741C147.09 164.547 148.06 164.289 149.095 163.965" stroke="#111418" stroke-linecap="round" stroke-linejoin="round"/>
        <path d="M129.698 162.155C129.698 162.155 134.418 166.034 143.341 165.129" stroke="#111418" stroke-linecap="round" stroke-linejoin="round"/>
        <path d="M117.285 177.479C117.285 177.479 117.349 172.565 123.233 168.039" stroke="white" stroke-width="0.8" stroke-linecap="round" stroke-linejoin="round"/>
        <path fill-rule="evenodd" clip-rule="evenodd" d="M149.095 147.672V158.47C149.095 159.892 145.345 161.056 140.819 161.056C137.78 161.056 135.13 160.539 133.642 159.763C133.19 159.504 132.802 159.052 132.737 158.535C132.737 158.405 132.673 158.276 132.673 158.147V147.802C137.91 150.194 143.923 150.194 149.095 147.672Z" fill="#FFE6E6" stroke="#111418"/>
        <path d="M145.41 153.621C145.41 153.621 143.729 155.366 141.207 153.621" stroke="#111418" stroke-linecap="round" stroke-linejoin="round"/>
        <path fill-rule="evenodd" clip-rule="evenodd" d="M159.957 121.875V130.409C159.957 137.78 155.754 144.504 149.095 147.672C143.922 150.194 137.91 150.194 132.672 147.802C130.022 146.573 127.694 144.763 125.819 142.5C125.366 141.982 124.978 141.401 124.655 140.883C123.75 139.526 123.039 137.974 122.522 136.422C122.522 136.358 122.457 136.293 122.457 136.228C122.457 136.164 122.392 136.034 122.392 135.905C122.392 135.84 122.392 135.84 122.392 135.776C122.134 135.84 121.94 135.84 121.681 135.84H121.616C121.422 135.84 121.293 135.84 121.099 135.84L120.776 135.776L120.453 135.711C120.388 135.711 120.259 135.646 120.194 135.646C119.935 135.582 119.612 135.452 119.353 135.323L119.159 135.194C119.03 135.129 118.901 135.064 118.772 135C117.22 134.094 116.121 132.543 115.797 130.797C115.668 129.957 115.668 129.116 115.797 128.276C116.121 126.724 117.285 125.495 118.772 125.043C119.677 124.784 120.711 124.849 121.552 125.237C121.746 122.521 122.651 119.03 125.56 118.254C127.823 117.672 128.405 115.733 128.793 114.569C129.052 113.664 129.569 112.888 130.28 112.241C130.927 111.659 131.703 111.271 132.543 111.142C133.836 110.948 135.194 111.401 136.164 112.241C137.78 113.534 140.625 113.858 142.112 112.888C143.211 112.112 143.987 111.724 144.957 111.659C148.513 111.53 148.513 113.664 149.871 114.375C151.164 115.151 152.78 115.151 154.009 114.375C155.496 113.599 157.823 114.957 158.211 116.896C158.47 118.189 158.922 119.418 159.504 120.517C159.828 120.97 159.957 121.422 159.957 121.875Z" fill="#FFE6E6" stroke="#111418"/>
        <path d="M156.547 123.648C156.547 123.648 152.665 122.419 150.594 123.001" stroke="#111418" stroke-linecap="round" stroke-linejoin="round"/>
        <path d="M132.543 123.648C132.543 123.648 136.49 122.419 138.496 123.001" stroke="#111418" stroke-linecap="round" stroke-linejoin="round"/>
        <path d="M142.895 130.636C143.477 131.089 144.124 131.283 144.836 131.218C145.03 131.218 145.224 131.218 145.418 131.153C145.742 131.089 146.065 130.894 146.26 130.571C146.454 130.247 146.454 129.924 146.324 129.6C145.871 128.63 145.483 127.595 145.224 126.495" stroke="#111418" stroke-linecap="round" stroke-linejoin="round"/>
        <path d="M139.078 134.388C139.272 135.424 139.595 136.459 140.048 137.429C140.178 137.623 140.307 137.882 140.372 138.076C141.148 139.435 142.442 140.6 144.319 140.6C145.807 140.6 147.23 139.953 148.136 138.788C148.33 138.594 148.459 138.335 148.589 138.141C149.171 137.106 149.689 136.071 150.012 134.906C150.012 134.841 150.012 134.712 149.947 134.647C149.883 134.582 149.753 134.583 149.689 134.583C148.136 135.165 143.413 136.135 139.337 134.13C139.272 134.065 139.207 134.065 139.143 134.13C139.078 134.194 139.078 134.324 139.078 134.388Z" fill="#FF8080" stroke="#111418" stroke-linecap="round" stroke-linejoin="round"/>
        <path d="M140.048 137.43C140.177 137.624 140.307 137.882 140.372 138.077C141.148 139.435 142.442 140.6 144.318 140.6C145.806 140.6 147.23 139.953 148.136 138.788C145.742 137.171 142.83 136.718 140.048 137.43Z" fill="#FF8080" stroke="#111418" stroke-linecap="round" stroke-linejoin="round"/>
        <path d="M133.578 127.66C134.484 126.883 135.584 126.366 136.749 126.236C137.654 126.172 138.431 126.754 138.625 127.66" stroke="#111418" stroke-linecap="round" stroke-linejoin="round"/>
        <path d="M148.459 127.66C149.365 126.883 150.465 126.366 151.63 126.236C152.536 126.172 153.312 126.754 153.506 127.66" stroke="#111418" stroke-linecap="round" stroke-linejoin="round"/>
        <path d="M120.259 128.211C119.547 128.469 119.03 129.181 118.966 129.957C118.901 130.668 119.16 131.314 119.677 131.831C120.194 132.349 120.905 132.543 121.552 132.413" stroke="#111418" stroke-linecap="round" stroke-linejoin="round"/>
        <path fill-rule="evenodd" clip-rule="evenodd" d="M122.069 134.353C122.198 135.064 122.392 135.711 122.586 136.422L122.069 134.353Z" fill="#FFE6E6"/>
        <path d="M122.069 134.353C122.198 135.064 122.392 135.711 122.586 136.422" stroke="#111418"/>
        <path d="M121.616 125.237C121.616 126.207 121.681 127.177 121.875 128.147" stroke="#111418" stroke-linecap="round" stroke-linejoin="round"/>
        <path d="M233.987 185.754C233.858 188.017 233.405 196.81 232.953 204.957C232.241 205.28 231.53 205.603 230.819 205.927C219.569 199.202 207.155 203.405 203.341 205.021C205.151 196.94 207.479 188.858 208.319 186.207C208.513 185.625 208.966 185.302 209.547 185.302H233.535C233.664 185.302 233.793 185.366 233.922 185.495C234.052 185.625 233.987 185.56 233.987 185.754Z" fill="#E6FFE6" stroke="#111418" stroke-linecap="round" stroke-linejoin="round"/>
        <path fill-rule="evenodd" clip-rule="evenodd" d="M230.819 205.862C224.677 208.707 218.793 212.069 213.233 215.948C212.651 216.336 212.069 216.724 211.552 217.112C210.582 217.758 209.612 218.469 208.642 219.116L207.026 215.689L202.953 206.961L202.242 205.409C202.242 205.409 202.63 205.215 203.405 204.892C207.155 203.34 219.505 199.138 230.819 205.862Z" fill="#FFE6E6" stroke="#111418"/>
        <path d="M218.664 206.25C218.664 206.25 223.901 205.797 226.293 208.06" stroke="#111418" stroke-linecap="round" stroke-linejoin="round"/>
        <path d="M219.116 210.453H221.897" stroke="#111418" stroke-linecap="round" stroke-linejoin="round"/>
        <path d="M218.212 204.245C218.212 204.245 218.987 206.508 218.018 208.319" stroke="#111418" stroke-linecap="round" stroke-linejoin="round"/>
        <path fill-rule="evenodd" clip-rule="evenodd" d="M233.793 173.663C233.793 174.956 233.858 181.099 232.435 185.172H210.388C210.388 185.172 215.431 157.176 219.246 156.142C222.737 155.172 222.866 159.31 222.608 165.323C222.478 167.327 223.125 169.461 224.677 170.689C226.552 172.176 228.879 172.5 233.793 173.663Z" fill="#FFE6E6" stroke="#111418"/>
        <path d="M222.608 165.323L222.543 170.883C222.543 171.336 222.737 171.724 223.06 171.982C224.095 172.823 226.099 174.892 225.259 177.866" stroke="#111418" stroke-linecap="round" stroke-linejoin="round"/>
        <path d="M217.759 158.728C218.211 159.245 218.987 159.375 219.569 158.987" stroke="#111418" stroke-linecap="round" stroke-linejoin="round"/>
        <path d="M230.884 177.866C230.884 177.866 231.53 180.517 229.979 182.263" stroke="#111418" stroke-linecap="round" stroke-linejoin="round"/>
        <path d="M166.552 122.651C166.552 122.651 170.108 126.983 164.612 130.474C163.966 130.862 163.642 131.638 163.448 132.802C163.319 133.965 163.319 135.194 163.06 136.422C162.737 138.039 161.315 139.267 159.763 139.849C158.922 140.172 158.082 140.302 157.177 140.366C158.987 137.392 159.892 133.966 159.892 130.41V121.875C159.892 121.422 159.763 120.97 159.569 120.517C158.987 119.353 158.534 118.125 158.276 116.896C157.823 115.021 155.56 113.599 154.073 114.375C152.78 115.151 151.164 115.151 149.935 114.375C148.642 113.664 148.578 111.53 145.022 111.66C144.052 111.724 143.276 112.112 142.177 112.888C140.754 113.858 137.845 113.599 136.228 112.241C135.259 111.401 133.901 111.013 132.608 111.142C131.767 111.272 130.927 111.66 130.28 112.241C129.569 112.888 129.052 113.664 128.793 114.569C128.405 115.733 127.759 117.672 125.56 118.254C122.586 119.03 121.746 122.522 121.552 125.237C120.711 124.849 119.741 124.72 118.772 124.978C117.22 125.431 116.056 126.659 115.797 128.211C115.603 129.052 115.603 129.892 115.733 130.733C116.056 132.479 117.155 134.03 118.707 134.935C118.836 135 118.966 135.065 119.095 135.129L119.289 135.194C119.547 135.323 119.806 135.388 120.129 135.517L120.388 135.582C120.517 135.582 120.582 135.646 120.711 135.646L121.035 135.711C121.228 135.711 121.358 135.711 121.552 135.711H121.616C121.875 135.711 122.069 135.711 122.328 135.646C122.328 135.711 122.328 135.711 122.328 135.776C122.328 135.841 122.392 135.97 122.392 136.099C122.457 136.228 122.457 136.228 122.457 136.293C122.974 137.845 123.685 139.332 124.591 140.754C123.362 141.336 121.875 141.336 120.711 140.625C120.194 140.237 119.741 139.914 119.159 139.655C118.384 139.461 117.543 139.267 116.703 139.202C115.345 138.879 114.181 137.909 113.728 136.616C113.664 136.228 113.47 135.841 113.211 135.517C112.694 134.935 111.789 135 111.013 134.741C109.655 134.289 108.944 132.802 108.815 131.444C108.75 130.409 109.591 128.47 108.944 126.466C108.815 126.078 108.556 125.69 108.233 125.366C107.263 124.526 106.487 123.427 106.034 122.198C105.517 120.776 105.776 119.224 106.681 118.06C107.069 117.672 107.522 117.284 107.91 116.896C110.043 114.569 108.427 110.431 110.237 107.845C110.56 107.392 111.013 107.004 111.53 106.81C112.177 106.681 112.759 106.616 113.405 106.616C114.828 106.422 116.121 105.647 116.897 104.483C117.866 102.931 117.931 100.862 119.159 99.569C120.194 98.4052 121.875 98.0173 123.362 97.9526C124.914 97.9526 126.466 98.2113 128.017 98.082C128.405 98.0174 128.728 97.9525 129.116 97.8232C130.28 97.4352 131.315 96.7887 132.155 95.8835C132.155 95.8835 136.034 91.875 140.366 96.3362C143.082 99.181 144.892 97.888 145.41 97.694C145.539 97.6294 145.927 97.3708 146.509 97.1122C149.418 95.6898 152.716 95.9482 154.267 99.7628C154.267 99.7628 155.108 102.026 158.47 101.638C160.797 101.315 163.966 101.25 163.836 105.582C163.836 105.582 163.901 108.297 165.647 109.203C167.845 110.366 170.625 113.211 167.392 117.091C166.358 118.448 164.806 119.806 166.552 122.651Z" fill="#FFEA80" stroke="#111418" stroke-linecap="round" stroke-linejoin="round"/>
        <path d="M120.453 114.504C120.905 114.439 121.293 114.181 121.681 113.922C122.716 113.082 122.974 111.53 122.845 110.172" stroke="#111418" stroke-linecap="round" stroke-linejoin="round"/>
        <path d="M117.479 114.439C117.996 114.504 118.448 114.569 118.966 114.633" stroke="#111418" stroke-linecap="round" stroke-linejoin="round"/>
        <path d="M150.453 105.129C150.841 104.935 151.099 104.612 151.293 104.224" stroke="#111418" stroke-linecap="round" stroke-linejoin="round"/>
        <path d="M138.039 103.125C138.621 104.806 139.655 105.84 141.983 105.84C143.147 105.84 145.216 104.547 145.539 103.383C146.185 104.741 146.703 105.194 147.802 105.517C148.254 105.646 148.642 105.646 149.095 105.517" stroke="#111418" stroke-linecap="round" stroke-linejoin="round"/>
        <path d="M123.362 102.737C123.944 103.319 124.72 103.901 125.496 103.771C126.272 103.577 126.918 103.06 127.241 102.349" stroke="#111418" stroke-linecap="round" stroke-linejoin="round"/>
        <path d="M161.703 113.017C161.703 113.534 161.897 114.052 162.285 114.44C162.737 114.698 163.254 114.698 163.707 114.504" stroke="#111418" stroke-linecap="round" stroke-linejoin="round"/>
        <path d="M111.53 118.965C111.53 119.483 111.724 120 112.112 120.388C112.565 120.646 113.082 120.646 113.535 120.452" stroke="#111418" stroke-linecap="round" stroke-linejoin="round"/>
        <path d="M161.961 126.401C162.349 126.789 162.866 126.983 163.384 126.983C163.836 126.853 164.224 126.465 164.418 126.013" stroke="#111418" stroke-linecap="round" stroke-linejoin="round"/>
        <path d="M111.272 131.315C111.66 131.703 112.112 131.897 112.694 131.897C113.147 131.767 113.535 131.379 113.729 130.927" stroke="#111418" stroke-linecap="round" stroke-linejoin="round"/>
        <path d="M144.828 190.862L152.392 223.513L177.673 212.069L193.772 204.763L199.073 202.371C199.785 202.047 200.69 202.371 201.013 203.082L208.578 219.246C208.578 219.246 200.108 225.776 189.504 233.47C176.897 242.651 161.25 253.513 153.168 257.134C140.431 262.823 131.832 254.159 127.371 246.013C123.233 238.577 114.117 203.664 112.565 197.78" fill="#E6FFE6"/>
        <path d="M144.828 190.862L152.392 223.513L177.673 212.069L193.772 204.763L199.073 202.371C199.785 202.047 200.69 202.371 201.013 203.082L208.578 219.246C208.578 219.246 200.108 225.776 189.504 233.47C176.897 242.651 161.25 253.513 153.168 257.134C140.431 262.823 131.832 254.159 127.371 246.013C123.233 238.577 114.117 203.664 112.565 197.78" stroke="#111418" stroke-linecap="round" stroke-linejoin="round"/>
        <path d="M142.177 249.31C141.595 249.504 141.207 250.022 141.078 250.603C141.078 251.573 142.565 252.414 144.375 252.478C145.151 252.478 145.927 252.349 146.638 252.09" stroke="#111418" stroke-linecap="round" stroke-linejoin="round"/>
        <path d="M152.393 223.448C152.393 223.448 145.022 227.91 142.242 230.948" stroke="#111418" stroke-linecap="round" stroke-linejoin="round"/>
        <path d="M379.104 264.017C379.212 265.685 382.171 267.73 384.942 268.887C387.095 269.775 389.543 268.86 390.619 266.815L398.583 251.48L387.606 247.014C387.418 247.821 386.637 250.888 384.055 255.758C382.091 259.417 378.943 261.408 379.104 264.017Z" fill="#111418" stroke="#111418" stroke-linecap="round" stroke-linejoin="round"/>
        <path d="M386.18 266.977C387.202 267.38 388.359 266.95 388.87 265.981" stroke="white" stroke-width="1.5" stroke-linecap="round" stroke-linejoin="round"/>
        <path d="M408.484 249.758C408.968 249.865 409.452 249.919 409.937 249.919C412.789 249.919 415.291 248.009 416.044 245.265C416.797 242.52 415.587 239.588 413.138 238.162L408.672 249.408C408.591 249.516 408.538 249.65 408.484 249.758Z" fill="#FF8080" stroke="#111418" stroke-linecap="round" stroke-linejoin="round"/>
        <path d="M352.173 222.073C352.173 224.79 353.545 227.319 355.805 228.799L361.67 214.136C359.329 213.705 356.908 214.351 355.078 215.885C353.249 217.418 352.173 219.705 352.173 222.073Z" fill="#FFEA80" stroke="#111418" stroke-linecap="round" stroke-linejoin="round"/>
        <path d="M354.782 219.544C353.894 221.643 354.244 224.064 355.697 225.84" stroke="#111418" stroke-linecap="round" stroke-linejoin="round"/>
        <path d="M353.625 248.009C356.235 249.058 359.195 247.794 360.244 245.184L376.144 205.365C376.844 203.67 376.575 201.733 375.445 200.307C374.315 198.881 372.512 198.155 370.683 198.424C368.88 198.693 367.347 199.904 366.701 201.626L361.67 214.217L355.805 228.88L350.8 241.444C349.751 244 351.016 246.96 353.625 248.009Z" fill="white" stroke="#111418" stroke-linecap="round" stroke-linejoin="round"/>
        <path d="M367.643 217.58L355.348 248.386" stroke="#111418" stroke-linecap="round" stroke-linejoin="round"/>
        <path d="M369.768 212.28L368.504 215.454" stroke="#111418" stroke-linecap="round" stroke-linejoin="round"/>
        <path d="M373.643 202.567L370.414 210.638" stroke="#111418" stroke-linecap="round" stroke-linejoin="round"/>
        <path d="M387.525 246.96L387.579 246.987L398.556 251.453L399.525 251.856L401.22 252.556C403.991 253.686 407.166 252.475 408.457 249.758C408.511 249.65 408.565 249.516 408.618 249.408L413.085 238.189C414.322 235.068 412.816 231.543 409.722 230.279L396.377 224.817L387.525 246.96Z" fill="#6699CC" stroke="#111418" stroke-linecap="round" stroke-linejoin="round"/>
        <path d="M381.875 214.755C389.408 222.719 396.377 224.79 396.377 224.79L387.525 246.96C369.284 243.919 360.217 245.184 360.217 245.184L375.606 206.657C376.844 208.621 378.216 210.504 379.696 212.307" fill="#A1C3E6"/>
        <path d="M381.875 214.755C389.408 222.719 396.377 224.79 396.377 224.79L387.525 246.96C369.284 243.919 360.217 245.184 360.217 245.184L375.606 206.657C376.844 208.621 378.216 210.504 379.696 212.307" stroke="#111418" stroke-linecap="round" stroke-linejoin="round"/>
        <path d="M402.269 250.646C403.587 251.184 405.094 250.727 405.874 249.543" stroke="#111418" stroke-linecap="round" stroke-linejoin="round"/>
        <path d="M410.824 236.09C411.309 234.88 410.851 233.481 409.721 232.781" stroke="#111418" stroke-linecap="round" stroke-linejoin="round"/>
        <path d="M379.346 229.741L373.857 236.844" stroke="#111418" stroke-linecap="round" stroke-linejoin="round"/>
        <path d="M375.633 231.167L372.916 234.691" stroke="#111418" stroke-linecap="round" stroke-linejoin="round"/>
        <path d="M380.073 232.135L376.037 237.355" stroke="#111418" stroke-linecap="round" stroke-linejoin="round"/>
        <path d="M373.481 230.144L379.292 237.624" stroke="#111418" stroke-linecap="round" stroke-linejoin="round"/>
        <path d="M376.198 230.279L379.588 234.691" stroke="#111418" stroke-linecap="round" stroke-linejoin="round"/>
        <path d="M373.024 232.862L375.822 236.521" stroke="#111418" stroke-linecap="round" stroke-linejoin="round"/>
        <path d="M384.62 252.583L386.18 253.229C386.476 253.336 386.799 253.336 387.095 253.229C387.391 253.094 387.606 252.879 387.74 252.583L388.036 251.803C388.279 251.211 387.983 250.511 387.391 250.269L385.83 249.623C385.238 249.381 384.539 249.65 384.297 250.269L383.974 251.049C383.839 251.345 383.839 251.668 383.974 251.964C384.108 252.26 384.324 252.448 384.62 252.583Z" fill="#FF8080" stroke="#111418" stroke-linecap="round" stroke-linejoin="round"/>
        <path d="M347.088 205.392L342.649 192.236L347.599 194.873L346.577 188.146L351.688 199.097L346.442 197.186L347.088 205.392Z" fill="#FFF2B3" stroke="#111418" stroke-linecap="round" stroke-linejoin="round"/>
        <path d="M340.873 226.351L328.739 231.463L330.864 226.593L324.568 228.046L334.577 222.45L333.151 227.535L340.873 226.351Z" fill="#FFF2B3" stroke="#111418" stroke-linecap="round" stroke-linejoin="round"/>
        <path d="M343.563 215.293L331.133 210.908L336.003 208.756L330.38 205.554L341.545 208.164L337.052 210.962L343.563 215.293Z" fill="#FFF2B3" stroke="#111418" stroke-linecap="round" stroke-linejoin="round"/>
        <path d="M83.9765 124.287C97.9778 132.141 103.225 149.704 95.8328 163.956C88.4411 178.207 71.0487 184.012 56.5658 177.077C42.0829 170.142 35.7069 152.945 42.1896 138.25C48.6672 123.536 65.6415 116.638 80.5374 122.63" fill="#FFB3B3"/>
        <path d="M83.9765 124.287C97.9778 132.141 103.225 149.704 95.8328 163.956C88.4411 178.207 71.0487 184.012 56.5658 177.077C42.0829 170.142 35.7069 152.945 42.1896 138.25C48.6672 123.536 65.6415 116.638 80.5374 122.63" stroke="#111418" stroke-linecap="round" stroke-linejoin="round"/>
        <path d="M76.7465 125.559C77.355 125.812 77.9687 126.084 78.5489 126.386" stroke="#111418" stroke-linecap="round" stroke-linejoin="round"/>
        <path d="M68.2609 124.318C70.6405 124.117 73.0375 124.369 75.325 125.066" stroke="#111418" stroke-linecap="round" stroke-linejoin="round"/>
        <path d="M90.5226 145.225L94.1209 147.942" stroke="#111418" stroke-linecap="round" stroke-linejoin="round"/>
        <path d="M92.3973 144.847L93.2808 145.505" stroke="#111418" stroke-linecap="round" stroke-linejoin="round"/>
        <path d="M90.3954 146.922L92.3202 148.362" stroke="#111418" stroke-linecap="round" stroke-linejoin="round"/>
        <path d="M58.5169 152.844C60.0816 152.425 61.0102 150.817 60.5909 149.252C60.1716 147.687 58.5633 146.759 56.9986 147.178C55.4338 147.597 54.5053 149.206 54.9245 150.77C55.3438 152.335 56.9522 153.264 58.5169 152.844Z" fill="#111418" stroke="#111418" stroke-linecap="round" stroke-linejoin="round"/>
        <path d="M80.0955 147.062C81.6602 146.643 82.5888 145.034 82.1695 143.469C81.7503 141.905 80.1419 140.976 78.5772 141.395C77.0125 141.815 76.0839 143.423 76.5031 144.988C76.9224 146.552 78.5308 147.481 80.0955 147.062Z" fill="#111418" stroke="#111418" stroke-linecap="round" stroke-linejoin="round"/>
        <path d="M79.6207 154.76C78.6167 157.067 75.7438 159.23 72.0567 160.218C68.3503 161.211 64.8 160.769 62.7574 159.278" stroke="#111418" stroke-linecap="round" stroke-linejoin="round"/>
        <path d="M45.1555 155.53L48.7344 158.252" stroke="#111418" stroke-linecap="round" stroke-linejoin="round"/>
        <path d="M47.0304 155.152L47.9189 155.829" stroke="#111418" stroke-linecap="round" stroke-linejoin="round"/>
        <path d="M45.0283 157.227L46.9389 158.691" stroke="#111418" stroke-linecap="round" stroke-linejoin="round"/>
        <path d="M288.64 40.8824C294.092 60.2665 283.169 80.4965 263.972 86.581C244.776 92.6654 224.202 82.3875 217.508 63.3917C210.813 44.3959 220.411 23.4877 239.194 16.2043C257.989 8.89916 279.162 17.8359 287.059 36.3619" fill="#FFF2B3"/>
        <path d="M288.64 40.8824C294.092 60.2665 283.169 80.4965 263.972 86.581C244.776 92.6654 224.202 82.3875 217.508 63.3917C210.813 44.3959 220.411 23.4877 239.194 16.2043C257.989 8.89916 279.162 17.8359 287.059 36.3619" stroke="#111418" stroke-linecap="round" stroke-linejoin="round"/>
        <path d="M281.099 35.5979C281.414 36.3619 281.717 37.148 281.964 37.9305" stroke="#111418" stroke-linecap="round" stroke-linejoin="round"/>
        <path d="M274.674 26.9712C276.963 28.9036 278.865 31.253 280.275 33.9004" stroke="#111418" stroke-linecap="round" stroke-linejoin="round"/>
        <path d="M271.577 62.776L272.358 68.3772" stroke="#111418" stroke-linecap="round" stroke-linejoin="round"/>
        <path d="M273.574 64.104L273.774 65.4709" stroke="#111418" stroke-linecap="round" stroke-linejoin="round"/>
        <path d="M269.957 64.1691L270.388 67.1529" stroke="#111418" stroke-linecap="round" stroke-linejoin="round"/>
        <path d="M230.222 38.9005L231.003 44.5017" stroke="#111418" stroke-linecap="round" stroke-linejoin="round"/>
        <path d="M232.219 40.2281L232.42 41.5951" stroke="#111418" stroke-linecap="round" stroke-linejoin="round"/>
        <path d="M228.603 40.2933L229.033 43.2771" stroke="#111418" stroke-linecap="round" stroke-linejoin="round"/>
        <path d="M238.427 38.75C240.491 36.3338 243.505 35.3971 245.731 36.6823C247.957 37.9674 248.64 41.0682 247.58 44.064" stroke="#111418" stroke-linecap="round" stroke-linejoin="round"/>
        <path d="M261.21 51.903C263.275 49.4867 266.289 48.5501 268.515 49.8352C270.741 51.1204 271.424 54.2211 270.363 57.2169" stroke="#111418" stroke-linecap="round" stroke-linejoin="round"/>
        <path d="M261.648 63.795C257.931 69.6795 249.756 71.3906 243.1 67.5478C236.466 63.7175 233.838 55.7697 237.076 49.608C237.139 49.4989 237.245 49.4153 237.383 49.3784C237.521 49.3415 237.642 49.3827 237.751 49.4457L261.473 63.1413C261.582 63.2043 261.666 63.311 261.715 63.4268C261.731 63.5519 261.711 63.6859 261.648 63.795Z" fill="#111418" stroke="#111418" stroke-linecap="round" stroke-linejoin="round"/>
        <path d="M259.169 61.8396C255.744 63.7904 250.993 63.7534 246.825 61.3469C242.657 58.9404 240.25 54.8448 240.227 50.9033L259.169 61.8396Z" fill="white" stroke="#111418" stroke-linecap="round" stroke-linejoin="round"/>
        <path d="M379.903 320.515C392.609 327.642 397.37 343.579 390.662 356.512C383.954 369.445 368.172 374.712 355.029 368.419C341.886 362.126 336.1 346.52 341.983 333.185C347.861 319.833 363.265 313.573 376.782 319.01" fill="#FFF2B3"/>
        <path d="M379.903 320.515C392.609 327.642 397.37 343.579 390.662 356.512C383.954 369.445 368.172 374.712 355.029 368.419C341.886 362.126 336.1 346.52 341.983 333.185C347.861 319.833 363.265 313.573 376.782 319.01" stroke="#111418" stroke-linecap="round" stroke-linejoin="round"/>
        <path d="M373.343 321.669C373.895 321.898 374.452 322.146 374.978 322.42" stroke="#111418" stroke-linecap="round" stroke-linejoin="round"/>
        <path d="M365.642 320.543C367.802 320.36 369.977 320.589 372.053 321.222" stroke="#111418" stroke-linecap="round" stroke-linejoin="round"/>
        <path d="M382.375 340.444L385.64 342.91" stroke="#111418" stroke-linecap="round" stroke-linejoin="round"/>
        <path d="M384.076 340.102L384.878 340.698" stroke="#111418" stroke-linecap="round" stroke-linejoin="round"/>
        <path d="M382.259 341.985L384.005 343.291" stroke="#111418" stroke-linecap="round" stroke-linejoin="round"/>
        <path d="M349.004 349.386L352.27 351.851" stroke="#111418" stroke-linecap="round" stroke-linejoin="round"/>
        <path d="M350.706 349.043L351.507 349.64" stroke="#111418" stroke-linecap="round" stroke-linejoin="round"/>
        <path d="M348.888 350.927L350.635 352.233" stroke="#111418" stroke-linecap="round" stroke-linejoin="round"/>
        <path d="M353.125 345.113C352.945 342.82 354.008 340.799 355.804 340.318C357.6 339.837 359.536 341.074 360.526 343.149" stroke="#111418" stroke-linecap="round" stroke-linejoin="round"/>
        <path d="M371.509 340.184C371.329 337.892 372.392 335.871 374.188 335.39C375.984 334.909 377.92 336.146 378.91 338.221" stroke="#111418" stroke-linecap="round" stroke-linejoin="round"/>
        <path d="M377.817 346.044C378.925 350.956 375.619 356.014 370.248 357.453C364.895 358.887 359.485 356.165 357.989 351.357C357.965 351.269 357.977 351.172 358.028 351.083C358.08 350.993 358.163 350.952 358.251 350.928L377.393 345.799C377.481 345.776 377.578 345.788 377.663 345.821C377.735 345.878 377.793 345.956 377.817 346.044Z" fill="#111418" stroke="#111418" stroke-linecap="round" stroke-linejoin="round"/>
        <path d="M375.548 346.312C374.794 349.062 372.345 351.474 368.981 352.375C365.618 353.276 362.291 352.412 360.263 350.408L375.548 346.312Z" fill="white" stroke="#111418" stroke-linecap="round" stroke-linejoin="round"/>
        </svg>