<svg width="380" height="380" viewBox="0 0 452 430" fill="none" xmlns="http://www.w3.org/2000/svg">
            <path d="M393.234 301.451L400.678 381.707L333.399 344.062L310.927 399.911L268.188 354.954L236.202 427.903L203.665 353.575L169.336 392.464L148.243 343.647C148.243 343.647 111.432 379.5 1 404.597C71.1747 357.574 101.092 302.83 101.092 302.83L19.7498 292.35L83.7206 243.396L28.2979 184.512L101.919 176.79L81.5146 75.8496L164.925 134.042L191.533 62.4718L236.064 125.216L295.761 29.5135L330.366 134.594L406.745 104.531L389.925 182.443L451 206.853L398.473 239.259L450.035 281.868L393.234 301.451Z" fill="#E7F3FF" stroke="#111418" stroke-linecap="round" stroke-linejoin="round"/>
            <path d="M279.349 96.0765L301.967 125.248" stroke="#111418" stroke-linecap="round" stroke-linejoin="round"/>
            <path d="M294.948 97.1703L300.564 104.345" stroke="#111418" stroke-linecap="round" stroke-linejoin="round"/>
            <path d="M274.669 109.336L286.836 124.934" stroke="#111418" stroke-linecap="round" stroke-linejoin="round"/>
            <path d="M79.6821 374.518C81.866 372.958 84.05 371.243 86.0778 369.527" stroke="#111418" stroke-linecap="round" stroke-linejoin="round"/>
            <path d="M44.2723 394.172C54.4117 390.116 64.2389 384.97 73.4423 378.887" stroke="#111418" stroke-linecap="round" stroke-linejoin="round"/>
            <path d="M435.338 213.848C437.834 212.913 440.33 211.978 442.982 211.042" stroke="#111418" stroke-linecap="round" stroke-linejoin="round"/>
            <path d="M411.004 224.457C411.004 224.457 418.959 220.556 429.254 216.188" stroke="#111418" stroke-linecap="round" stroke-linejoin="round"/>
            <path d="M85.4321 128.467C87.9088 132.065 93.0411 137.084 101.305 133.909C102.224 136.052 103.429 138.071 104.873 139.95C91.7481 144.176 84.0199 137.703 79.8947 131.664C78.5526 129.685 78.0958 127.234 78.6512 124.878C79.2066 122.522 80.6982 120.544 82.7635 119.351L96.9811 111.143L97.9894 117.106L86.5854 123.69C85.7772 124.157 85.1891 124.935 84.9959 125.845C84.7383 126.712 84.9056 127.693 85.4321 128.467Z" fill="#FF8080" stroke="#111418" stroke-linecap="round" stroke-linejoin="round"/>
            <path d="M81.1794 127.53C80.7942 125.757 81.3947 123.893 82.8129 122.755" stroke="#111418" stroke-linecap="round" stroke-linejoin="round"/>
            <path d="M166.919 81.38C170.057 87.9894 171.811 97.8716 161.696 107.104C160.808 104.943 159.633 102.907 158.236 101.04C165.01 95.4925 163.247 88.5683 161.386 84.654C160.98 83.8113 160.261 83.1887 159.347 82.9184C158.462 82.6308 157.494 82.7508 156.686 83.2174L145.282 89.8016C143.685 88.4883 142.119 87.1577 140.652 85.9296L154.869 77.7211C156.935 76.5287 159.411 76.2561 161.712 76.9232C164.013 77.5903 165.876 79.2283 166.919 81.38Z" fill="#FF8080" stroke="#111418" stroke-linecap="round" stroke-linejoin="round"/>
            <path d="M164.228 100.015C163.769 100.878 163.233 101.747 162.615 102.542" stroke="#111418" stroke-linecap="round" stroke-linejoin="round"/>
            <path d="M166.476 89.7371C166.589 92.9047 166.02 96.0668 164.756 98.9918" stroke="#111418" stroke-linecap="round" stroke-linejoin="round"/>
            <path d="M124.059 83.457L131.422 79.2058C131.871 78.9466 132.463 79.0041 132.854 79.3367C134.158 80.4198 137.144 82.9658 140.664 85.8824C142.149 87.1404 143.745 88.4537 145.294 89.7543C149.305 93.106 153.31 96.3806 155.732 98.2946C156.679 99.1049 157.524 100.014 158.248 100.993C159.645 102.86 160.791 104.913 161.709 107.056C165.34 115.696 166.127 128.81 151.195 140.344C149.316 141.789 147.337 143.131 145.301 144.306C143.206 145.516 141.007 146.546 138.756 147.486C121.387 154.521 110.517 147.307 104.868 139.873C103.441 138.023 102.266 135.988 101.3 133.832C100.798 132.685 100.403 131.516 100.174 130.291C99.6275 126.856 98.7738 121.921 97.9375 117.016L96.9292 111.053C96.1459 106.517 95.4814 102.67 95.1953 100.999C95.1031 100.494 95.3493 99.9526 95.7983 99.6933L120.552 85.4018" fill="#FFF2B3"/>
            <path d="M124.059 83.457L131.422 79.2058C131.871 78.9466 132.463 79.0041 132.854 79.3367C134.158 80.4198 137.144 82.9658 140.664 85.8824C142.149 87.1404 143.745 88.4537 145.294 89.7543C149.305 93.106 153.31 96.3806 155.732 98.2946C156.679 99.1049 157.524 100.014 158.248 100.993C159.645 102.86 160.791 104.913 161.709 107.056C165.34 115.696 166.127 128.81 151.195 140.344C149.316 141.789 147.337 143.131 145.301 144.306C143.206 145.516 141.007 146.546 138.756 147.486C121.387 154.521 110.517 147.307 104.868 139.873C103.441 138.023 102.266 135.988 101.3 133.832C100.798 132.685 100.403 131.516 100.174 130.291C99.6275 126.856 98.7738 121.921 97.9375 117.016L96.9292 111.053C96.1459 106.517 95.4814 102.67 95.1953 100.999C95.1031 100.494 95.3493 99.9526 95.7983 99.6933L120.552 85.4018" stroke="#111418" stroke-linecap="round" stroke-linejoin="round"/>
            <path d="M152.397 130.951C151.092 132.423 149.64 133.78 148.072 135.004L152.397 130.951Z" fill="#FFF2B3"/>
            <path d="M152.397 130.951C151.092 132.423 149.64 133.78 148.072 135.004" stroke="#111418" stroke-linecap="round" stroke-linejoin="round"/>
            <path d="M155.813 110.461C157.819 115.249 158.655 121.95 154.191 128.598L155.813 110.461Z" fill="#FFF2B3"/>
            <path d="M155.813 110.461C157.819 115.249 158.655 121.95 154.191 128.598" stroke="#111418" stroke-linecap="round" stroke-linejoin="round"/>
            <path d="M151.183 140.392C150.88 142.562 150.955 145.113 152.277 147.263L144.135 151.964C142.951 149.774 140.763 148.403 138.731 147.581C140.999 146.67 143.181 145.61 145.276 144.401C147.307 143.148 149.303 141.836 151.183 140.392Z" fill="#FFE14D" stroke="#111418" stroke-linecap="round" stroke-linejoin="round"/>
            <path d="M152.289 147.216L144.148 151.916L148.555 159.549L156.696 154.848L152.289 147.216Z" fill="#FFEA80" stroke="#111418" stroke-linecap="round" stroke-linejoin="round"/>
            <path d="M181.381 162.627L142.918 184.833C142.709 184.954 142.477 184.968 142.284 184.84C142.09 184.712 141.939 184.52 141.926 184.288C141.827 182.39 141.902 177.957 145.829 173.215C151.765 166.077 148.555 159.549 148.555 159.549L156.696 154.848C156.696 154.848 160.291 161.074 169.894 159.321C175.96 158.214 179.87 160.425 181.436 161.477C181.629 161.605 181.75 161.815 181.734 162.063C181.718 162.312 181.59 162.506 181.381 162.627Z" fill="#FFF2B3" stroke="#111418" stroke-linecap="round" stroke-linejoin="round"/>
            <path d="M166.374 163.109C168.548 162.174 170.917 161.923 173.234 162.341" stroke="#111418" stroke-linecap="round" stroke-linejoin="round"/>
            <path d="M147.673 158.022L152.732 155.102" stroke="#111418" stroke-linecap="round" stroke-linejoin="round"/>
            <path d="M121.29 102.855L126.888 106.607L133.149 104.11C133.209 104.075 133.303 104.101 133.368 104.143C133.432 104.186 133.437 104.263 133.442 104.34L131.601 110.83L135.924 116.037C135.959 116.097 135.964 116.174 135.968 116.251C135.926 116.315 135.866 116.35 135.789 116.355L129.038 116.62L125.432 122.334C125.39 122.398 125.33 122.433 125.253 122.438C125.176 122.442 125.094 122.37 125.089 122.293L122.742 115.945L116.201 114.294C116.107 114.269 116.072 114.209 116.037 114.149C116.033 114.072 116.058 113.977 116.118 113.943L121.411 109.769L120.991 103.028C120.986 102.951 121.029 102.886 121.089 102.852C121.148 102.817 121.208 102.783 121.29 102.855Z" fill="white" stroke="#111418" stroke-linecap="round" stroke-linejoin="round"/>
            <path d="M118.448 130.836L127.459 140.36" stroke="#111418" stroke-linecap="round" stroke-linejoin="round"/>
            <path d="M121.88 130.491L128.066 137.056" stroke="#111418" stroke-linecap="round" stroke-linejoin="round"/>
            <path d="M117.445 133.73L124.056 140.688" stroke="#111418" stroke-linecap="round" stroke-linejoin="round"/>
            <path d="M125.989 130.073L119.234 140.838" stroke="#111418" stroke-linecap="round" stroke-linejoin="round"/>
            <path d="M121.838 131.593L118.432 137.031" stroke="#111418" stroke-linecap="round" stroke-linejoin="round"/>
            <path d="M127.472 132.849L123.611 138.95" stroke="#111418" stroke-linecap="round" stroke-linejoin="round"/>
            <path d="M108.591 104.639C108.194 104.988 106.782 106.482 107.582 108.974C107.582 108.974 107.599 109.004 107.569 109.021C107.539 109.038 107.539 109.038 107.522 109.008C105.764 107.07 103.764 107.546 103.263 107.715C103.263 107.715 103.234 107.733 103.216 107.703C103.199 107.673 103.199 107.673 103.229 107.656C103.626 107.307 105.038 105.813 104.238 103.321C104.238 103.321 104.221 103.291 104.251 103.274C104.281 103.257 104.281 103.257 104.298 103.287C106.056 105.225 108.056 104.749 108.557 104.579C108.557 104.579 108.557 104.58 108.591 104.639C108.574 104.609 108.574 104.609 108.591 104.639C108.574 104.609 108.591 104.639 108.591 104.639Z" fill="white"/>
            <path d="M108.591 104.639C108.194 104.988 106.782 106.482 107.582 108.974C107.582 108.974 107.599 109.004 107.569 109.021C107.539 109.038 107.539 109.038 107.522 109.008C105.764 107.07 103.764 107.546 103.263 107.715C103.263 107.715 103.234 107.733 103.216 107.703C103.199 107.673 103.199 107.673 103.229 107.656C103.626 107.307 105.038 105.813 104.238 103.321C104.238 103.321 104.221 103.291 104.251 103.274C104.281 103.257 104.281 103.257 104.298 103.287C106.056 105.225 108.056 104.749 108.557 104.579C108.557 104.579 108.557 104.58 108.591 104.639ZM108.591 104.639C108.574 104.609 108.574 104.609 108.591 104.639ZM108.591 104.639C108.574 104.609 108.591 104.639 108.591 104.639Z" stroke="#111418" stroke-linecap="round" stroke-linejoin="round"/>
            <path d="M296.533 210.508C294.337 206.324 293.29 201.045 293.29 201.045C285.411 217.864 277.934 222.855 276.68 223.595C276.616 223.629 276.567 223.614 276.518 223.599C276.469 223.583 276.42 223.568 276.386 223.504C272.261 214.627 277.995 192.941 277.995 192.941C275.474 196.193 271.543 199.652 270.152 200.834C270.072 200.917 269.91 200.92 269.812 200.889C269.713 200.859 269.597 200.715 269.578 200.601C266.825 178.855 278.567 165.878 281.503 163.024C282.751 163.682 284.064 164.307 285.539 164.928C283.665 168.005 279.195 176.303 279.561 184.115C279.561 184.115 282.812 181.629 285.604 180.615C285.604 180.615 283.862 191.216 285.179 197.01C285.179 197.01 291.747 188.72 294.343 184.361C294.37 186.522 294.785 188.644 295.492 190.695C295.492 190.695 301.963 184.958 303.53 170.426C305.098 170.753 306.646 170.966 308.048 171.134C309.647 192.09 299.207 207.626 297.149 210.431C297.054 210.563 296.925 210.63 296.827 210.6C296.729 210.569 296.6 210.637 296.533 210.508Z" fill="#3674B3" stroke="#111418" stroke-linecap="round" stroke-linejoin="round"/>
            <path d="M295.462 190.793C294.755 188.742 294.403 186.587 294.328 184.41C291.731 188.769 285.164 197.059 285.164 197.059C283.798 191.25 285.589 180.664 285.589 180.664C282.797 181.678 279.545 184.164 279.545 184.164C279.196 176.303 283.715 168.02 285.524 164.977C288.377 166.189 291.226 167.238 294.171 168.156C297.213 169.104 300.35 169.92 303.5 170.524C301.948 185.008 295.462 190.793 295.462 190.793Z" fill="#A1C3E6" stroke="#111418" stroke-linecap="round" stroke-linejoin="round"/>
            <path d="M284.687 209.993C285.759 208.281 286.733 206.539 287.574 204.702" stroke="#111418" stroke-linecap="round" stroke-linejoin="round"/>
            <path d="M282.451 212.85C282.929 212.353 283.358 211.84 283.737 211.313" stroke="#111418" stroke-linecap="round" stroke-linejoin="round"/>
            <path d="M320.37 162.86L318.398 169.19C317.74 171.3 313.736 171.883 308.066 171.247C306.665 171.08 305.116 170.866 303.549 170.54C300.4 169.935 297.311 169.134 294.22 168.171C291.275 167.253 288.377 166.189 285.573 164.992C284.147 164.386 282.785 163.746 281.537 163.088C276.199 160.348 273.054 157.484 273.742 155.276L275.745 148.847C282.65 152.776 289.947 155.965 297.489 158.368C304.915 160.628 312.569 162.152 320.37 162.86Z" fill="#0F3B66" stroke="#111418" stroke-linecap="round" stroke-linejoin="round"/>
            <path d="M337.234 147.441C335.582 151.879 334.046 155.6 332.816 158.339C331.509 161.324 328.539 163.252 325.286 163.153C323.887 163.148 322.244 163.067 320.37 162.86C312.569 162.152 304.899 160.677 297.44 158.353C289.898 155.949 282.601 152.76 275.696 148.832C274.184 147.984 272.883 147.148 271.812 146.437C269.079 144.67 267.73 141.397 268.35 138.198C268.927 135.309 269.791 131.325 270.953 126.734C273.621 116.098 277.884 102.245 284.056 91.2471C284.794 89.9158 285.566 88.6488 286.322 87.4309C290.928 80.2521 296.555 73.7686 303.112 68.2746C309.545 71.3019 316.179 73.8535 322.951 75.9637C329.953 78.1993 337.123 79.8952 344.413 81.0359C346.602 89.0401 347.529 97.2967 347.269 105.56C347.206 107.317 347.064 109.157 346.872 110.982C345.46 123.463 341.08 137.172 337.234 147.441Z" fill="white" stroke="#111418" stroke-linecap="round" stroke-linejoin="round"/>
            <path d="M283.992 91.2811C277.868 102.294 273.572 116.083 270.903 126.719L260.009 123.325C259.224 123.08 258.546 122.492 258.174 121.784C257.818 121.027 257.768 120.15 258.062 119.38C266.336 97.8391 283.992 91.2811 283.992 91.2811Z" fill="#FF8080" stroke="#111418" stroke-linecap="round" stroke-linejoin="round"/>
            <path d="M338.648 66.5346C341.081 71.1688 342.949 76.058 344.348 81.0701C337.059 79.9294 329.889 78.2335 322.887 75.9979C316.115 73.8877 309.48 71.3358 303.048 68.3086C312.948 60.0339 322.239 56.307 326.892 54.8497C328.75 54.2442 330.811 54.8863 332.06 56.4061C333.843 58.6308 335.433 60.9568 336.895 63.3503" fill="#FFF2B3"/>
            <path d="M338.648 66.5346C341.081 71.1688 342.949 76.058 344.348 81.0701C337.059 79.9294 329.889 78.2335 322.887 75.9979C316.115 73.8877 309.48 71.3358 303.048 68.3086C312.948 60.0339 322.239 56.307 326.892 54.8497C328.75 54.2442 330.811 54.8863 332.06 56.4061C333.843 58.6308 335.433 60.9568 336.895 63.3503" stroke="#111418" stroke-linecap="round" stroke-linejoin="round"/>
            <path d="M333.548 65.1069C334.871 67.0804 336.115 69.1368 337.165 71.2946" stroke="#111418" stroke-linecap="round" stroke-linejoin="round"/>
            <path d="M337.234 147.441C341.065 137.222 345.444 123.512 346.792 111.065L346.887 110.933C346.887 110.933 357.727 126.424 352.235 148.886C352.04 149.686 351.516 150.33 350.808 150.702C350.1 151.074 349.257 151.188 348.521 150.958L337.234 147.441Z" fill="#FF8080" stroke="#111418" stroke-linecap="round" stroke-linejoin="round"/>
            <path d="M349.137 136.022C349.15 136.672 349.163 137.322 349.111 138.006" stroke="#111418" stroke-linecap="round" stroke-linejoin="round"/>
            <path d="M347.941 128.112C348.482 130.004 348.812 131.883 349.013 133.83" stroke="#111418" stroke-linecap="round" stroke-linejoin="round"/>
            <path d="M292.578 173.958C296.101 175.056 301.483 167.839 304.599 157.838C307.716 147.838 307.386 138.84 303.862 137.743C300.339 136.645 294.957 143.862 291.841 153.863C288.724 163.863 289.054 172.86 292.578 173.958Z" fill="#FF8080" stroke="#111418" stroke-linecap="round" stroke-linejoin="round"/>
            <path d="M303.767 141.159C304.21 143.02 304.298 144.985 304.076 146.908" stroke="#111418" stroke-linecap="round" stroke-linejoin="round"/>
            <path d="M307.692 125.8C316.554 128.561 325.977 123.616 328.738 114.753C331.5 105.891 326.554 96.4678 317.692 93.7063C308.829 90.9449 299.406 95.8907 296.645 104.753C293.883 113.615 298.829 123.038 307.692 125.8Z" fill="#A1C3E6" stroke="#111418" stroke-linecap="round" stroke-linejoin="round"/>
            <path d="M308.268 107.19L309.598 113.634" stroke="#111418" stroke-linecap="round" stroke-linejoin="round"/>
            <path d="M311.657 104.262L313.938 115.256" stroke="#111418" stroke-linecap="round" stroke-linejoin="round"/>
            <path d="M316.298 107.162L317.053 110.789" stroke="#111418" stroke-linecap="round" stroke-linejoin="round"/>
            <path d="M330.851 99.8525C331.41 100.996 331.904 102.173 332.286 103.368" stroke="#111418" stroke-linecap="round" stroke-linejoin="round"/>
            <path d="M323.047 91.5526C325.498 93.0163 327.649 94.9248 329.337 97.2813" stroke="#111418" stroke-linecap="round" stroke-linejoin="round"/>
            <path d="M296.405 122.283C293.854 119.065 292.266 115.179 291.925 111.089" stroke="#111418" stroke-linecap="round" stroke-linejoin="round"/>
            <path d="M186.342 372.04C190.25 365.523 198.983 362.28 203.083 361.097C203.21 361.071 203.281 361.03 203.337 361.045C203.408 361.004 203.591 360.993 203.733 360.911L203.987 360.859L204.241 360.807C205.37 369.815 206.327 378.116 206.882 382.767C206.956 383.387 206.664 384.029 206.096 384.358C205.527 384.686 204.866 384.688 204.366 384.314L186.342 372.04Z" fill="#0F5499" stroke="#111418" stroke-linecap="round" stroke-linejoin="round"/>
            <path d="M186.328 372.096L185.216 371.318L158.596 353.259C158.29 353.057 157.984 352.855 157.749 352.612C158.059 350.113 160.562 349.283 162.432 347.683C162.518 347.586 162.66 347.504 162.731 347.463C164.002 346.303 164.635 344.611 165.309 342.991C165.868 341.58 166.594 340.213 167.57 339.034C168.547 337.855 170.009 337.106 171.529 337.033C172.317 337.004 173.102 337.214 173.89 337.185C174.002 337.215 174.073 337.174 174.2 337.148C174.256 337.163 174.327 337.122 174.327 337.122L174.525 337.055L174.722 336.988C177.144 336.016 179.804 332.586 182.444 330.352C188.838 324.861 195.005 325.373 198.195 325.567C198.307 325.597 198.434 325.571 198.49 325.586C198.602 325.616 198.673 325.575 198.785 325.605C200.325 331.061 202.496 346.711 204.242 360.807C204.171 360.848 204.115 360.833 203.987 360.859C203.86 360.885 203.804 360.87 203.733 360.911L203.337 361.045C203.266 361.086 203.139 361.112 203.068 361.153C198.928 362.265 190.179 365.564 186.328 372.096Z" fill="#FFF2B3" stroke="#111418" stroke-linecap="round" stroke-linejoin="round"/>
            <path d="M189.235 359.007L186.095 354.144" stroke="#111418" stroke-linecap="round" stroke-linejoin="round"/>
            <path d="M186.129 360.516L183.536 358.321" stroke="#111418" stroke-linecap="round" stroke-linejoin="round"/>
            <path d="M191.09 354.101L191.416 355.57" stroke="#111418" stroke-linecap="round" stroke-linejoin="round"/>
            <path d="M186.677 332.927C186.094 333.311 185.552 333.766 185.051 334.292" stroke="#111418" stroke-linecap="round" stroke-linejoin="round"/>
            <path d="M194.233 330.269C192.205 330.446 190.198 330.989 188.382 331.943" stroke="#111418" stroke-linecap="round" stroke-linejoin="round"/>
            <path d="M157.692 352.597C157.401 352.339 157.111 352.081 156.764 351.808C155.712 350.806 154.817 349.665 154.064 348.443C146.1 336.043 110.002 271.798 85.1921 227.268C98.2022 208.961 119.72 204.161 127.286 202.586C154.555 249.816 196.137 319.132 198.316 324.219C198.491 324.686 198.666 325.153 198.785 325.605C198.673 325.575 198.602 325.616 198.49 325.586C198.378 325.556 198.307 325.597 198.195 325.567C195.005 325.373 188.839 324.861 182.444 330.352C179.804 332.587 177.144 336.016 174.722 336.988L174.525 337.055L174.327 337.122C174.271 337.107 174.256 337.163 174.2 337.148C174.073 337.174 174.017 337.159 173.89 337.185C173.102 337.214 172.318 337.004 171.529 337.033C169.994 337.162 168.588 337.926 167.611 339.105C166.635 340.284 165.924 341.595 165.35 343.062C164.676 344.682 164.043 346.374 162.772 347.534C162.686 347.631 162.6 347.728 162.473 347.754C160.506 349.268 158.002 350.098 157.692 352.597Z" fill="#6699CC" stroke="#111418" stroke-linecap="round" stroke-linejoin="round"/>
            <path d="M118.777 209.251C116.73 205.461 118.296 208.582 116.731 205.461" stroke="#111418" stroke-linecap="round" stroke-linejoin="round"/>
            <path d="M188.002 326.859C188.002 326.859 144.779 256.502 121.602 214.391" stroke="#111418" stroke-linecap="round" stroke-linejoin="round"/>
            <path d="M172.531 330.157C161.387 311.922 128.235 255.732 105.187 212.694" stroke="#111418" stroke-linecap="round" stroke-linejoin="round"/>
            <path d="M112.147 252.141C106.056 241.264 99.8121 230.285 93.6914 219.52" stroke="#111418" stroke-linecap="round" stroke-linejoin="round"/>
            <path d="M163.984 345.697C163.984 345.697 140.785 303.22 114.577 256.514" stroke="#111418" stroke-linecap="round" stroke-linejoin="round"/>
            <path d="M163.211 326.399L155.374 313.973" stroke="#111418" stroke-linecap="round" stroke-linejoin="round"/>
            <path d="M147.211 271.622C147.211 271.622 151.792 279.394 152.857 282.14" stroke="#111418" stroke-linecap="round" stroke-linejoin="round"/>
            <path d="M114.477 268.315C115.405 270.004 116.211 271.481 116.8 272.419" stroke="#111418" stroke-linecap="round" stroke-linejoin="round"/>
            <path d="M104.585 250.115C104.585 250.115 109.237 258.746 112.99 265.575" stroke="#111418" stroke-linecap="round" stroke-linejoin="round"/>
            <path d="M85.192 227.268C81.9977 221.489 79.6089 217.187 76.8096 212.174C77.0416 211.756 77.2733 211.338 77.5464 210.991C91.469 188.606 117.995 187.969 118.784 187.941C121.352 192.471 124.166 197.427 127.215 202.627C119.72 204.161 98.2021 208.961 85.192 227.268Z" fill="white" stroke="#111418" stroke-linecap="round" stroke-linejoin="round"/>
            <path d="M89.2244 204.154C101.549 194.009 115.17 192.015 120.8 191.843" stroke="#111418" stroke-linecap="round" stroke-linejoin="round"/>
            <path d="M78.7771 215.583C80.7529 212.691 83.0504 209.944 85.5823 207.441" stroke="#111418" stroke-linecap="round" stroke-linejoin="round"/>
            <path d="M83.3768 223.96C96.7771 204.197 116.954 199.698 124.896 199.184" stroke="#111418" stroke-linecap="round" stroke-linejoin="round"/>
            <path d="M76.8096 212.174L73.9693 207.091C68.0726 196.385 71.8018 182.916 82.3841 176.806L85.4374 175.043C90.6221 172.05 96.7826 171.239 102.593 172.856C108.347 174.458 113.278 178.24 116.2 183.466C117.005 184.942 117.867 186.434 118.769 187.996C117.924 188.01 91.4541 188.662 77.5315 211.047C77.3294 211.353 77.0417 211.756 76.8096 212.174Z" fill="#FF8080" stroke="#111418" stroke-linecap="round" stroke-linejoin="round"/>
            <path d="M82.0499 184.101C82.0499 184.101 76.2614 189.574 77.511 197.234" stroke="#111418" stroke-linecap="round" stroke-linejoin="round"/>
            <path d="M209.185 308.27C238.005 288.611 241.717 316.04 272.915 313.199C304.114 310.357 294.893 295.57 302.606 287.741C314.726 275.448 326.44 286.582 328.759 289.017L328.643 288.901C325.86 285.944 322.844 282.638 319.597 279.101C319.539 279.101 319.539 279.043 319.539 279.043C317.683 277.013 315.828 274.926 313.856 272.722L313.044 271.794C312.29 270.982 311.536 270.113 310.782 269.301L309.913 268.315L309.623 268.025L308.463 266.691L307.303 265.415L306.143 264.082C305.737 263.618 305.389 263.212 304.984 262.748C304.578 262.284 304.23 261.878 303.824 261.414C302.49 259.848 301.098 258.283 299.764 256.659C298.837 255.557 297.851 254.397 296.923 253.237L296.749 253.006L295.705 251.788L293.443 249.062L292.284 247.671L291.124 246.279C288.862 243.437 286.543 240.654 284.339 237.812L283.237 236.42L282.135 235.029L280.86 233.347L279.99 232.187C279.642 231.723 279.294 231.26 278.946 230.796C278.656 230.448 278.366 230.042 278.076 229.636C277.322 228.592 276.569 227.606 275.815 226.562L274.771 225.171C274.075 224.243 273.379 223.257 272.741 222.329L271.813 221.053L270.827 219.662C270.19 218.734 269.552 217.864 268.972 216.936C267.754 215.138 266.594 213.341 265.435 211.601C264.855 210.731 264.333 209.861 263.811 208.991C263.521 208.586 263.289 208.122 262.999 207.716C262.709 207.31 262.477 206.846 262.245 206.44L261.491 205.164L260.795 203.889L260.737 203.772C259.172 201.221 257.664 198.437 256.33 196.002C256.098 195.596 255.866 195.19 255.692 194.784C254.996 193.508 254.359 192.29 253.837 191.247C253.837 191.189 253.779 191.189 253.779 191.131C252.213 188.057 250.009 185.274 247.342 183.07C246.936 182.78 246.588 182.432 246.124 182.142C246.124 182.142 246.124 182.142 246.066 182.084C245.254 181.504 244.442 180.982 243.572 180.46C243.224 180.286 242.877 180.055 242.529 179.881L242.007 179.649L241.485 179.417L241.021 179.243L240.441 179.011C240.151 178.895 239.861 178.779 239.571 178.721C239.281 178.605 238.875 178.489 238.527 178.431L238.121 178.315L237.773 178.199C237.367 178.083 237.02 178.025 236.614 177.967C235.976 178.141 235.28 178.373 234.642 178.605C234.062 178.837 233.482 179.069 232.96 179.359C232.844 179.417 232.67 179.417 232.612 179.301C232.496 179.185 232.496 179.011 232.612 178.953L232.67 178.895C233.366 178.025 234.178 177.271 235.048 176.633H233.714H230.293C230.293 176.633 220.203 176.401 215.621 175.241C215.331 175.183 215.041 175.183 214.751 175.241C213.94 175.531 213.128 175.937 212.432 176.517C211.272 177.503 210.286 178.663 209.532 179.997C209.474 180.113 209.358 180.229 209.242 180.287C209.068 180.345 208.837 180.345 208.605 180.229C208.431 180.113 208.315 179.939 208.257 179.707C189.816 220.995 181.813 327 209.185 308.27Z" fill="#0F3B66" stroke="#111418" stroke-linecap="round" stroke-linejoin="round"/>
            <path d="M252.503 188.231C252.677 188.579 253.199 189.681 253.953 191.131C253.953 191.189 254.011 191.189 254.011 191.247C254.532 192.233 255.17 193.45 255.866 194.726L256.504 195.944C257.838 198.379 259.346 201.105 260.911 203.714L260.853 203.599L258.882 199.945L258.708 199.655L257.374 197.104L252.503 188.231Z" stroke="#111418" stroke-linecap="round" stroke-linejoin="round"/>
            <path d="M253.779 189.971C254.068 190.609 255.518 193.624 257.316 197.104C257.838 198.09 258.36 199.133 258.94 200.119L259.056 200.293L258.882 199.945L257.78 197.8V197.742L253.779 189.971Z" stroke="#111418" stroke-linecap="round" stroke-linejoin="round"/>
            <path d="M257.78 197.8C258.07 198.38 258.36 199.017 258.708 199.655C258.824 199.829 258.882 200.003 258.998 200.177L259.114 200.351C259.694 201.453 260.273 202.497 260.911 203.599L258.94 199.945L257.78 197.8Z" stroke="#111418" stroke-linecap="round" stroke-linejoin="round"/>
            <path d="M208.489 179.707C208.547 179.939 208.663 180.113 208.837 180.229C209.011 180.345 209.243 180.345 209.475 180.287C209.185 180.055 208.837 179.823 208.489 179.707Z" stroke="#111418" stroke-linecap="round" stroke-linejoin="round"/>
            <path d="M236.788 177.967C237.194 178.025 237.599 178.141 237.947 178.199L238.353 178.315L238.759 178.431C239.107 178.547 239.455 178.663 239.803 178.779C240.151 178.895 240.383 178.953 240.673 179.069L241.253 179.301L241.717 179.475L242.239 179.707L242.761 179.939C243.108 180.113 243.456 180.287 243.804 180.519C244.674 180.983 245.486 181.505 246.298 182.142C246.298 182.142 246.298 182.142 246.356 182.2C246.762 182.49 247.168 182.78 247.574 183.128C250.241 185.39 252.445 188.115 254.01 191.189C253.257 189.739 252.735 188.637 252.561 188.289L257.374 197.162C255.518 193.682 254.127 190.725 253.837 190.029L257.78 197.8V197.857L258.882 200.003L260.853 203.656L260.911 203.773L260.969 203.889L261.665 205.164L262.419 206.44C262.651 206.846 262.941 207.31 263.173 207.716C263.405 208.122 263.695 208.586 263.985 208.992C264.507 209.861 265.087 210.731 265.608 211.601C266.71 213.341 267.928 215.139 269.146 216.936C269.784 217.864 270.364 218.734 271.002 219.662L271.987 221.053L272.915 222.329C273.611 223.257 274.249 224.243 274.945 225.171L275.989 226.562C276.743 227.606 277.496 228.592 278.25 229.636C278.54 229.984 278.83 230.39 279.12 230.796L280.164 232.187L281.034 233.347L282.309 235.029L283.411 236.421L284.513 237.813C286.717 240.654 288.978 243.495 291.298 246.279L292.458 247.671L293.617 249.063L295.879 251.788L296.923 253.006L297.097 253.238C298.083 254.397 299.011 255.557 299.938 256.659C301.33 258.283 302.664 259.848 303.998 261.414C304.404 261.878 304.752 262.284 305.158 262.748L306.317 264.082L307.477 265.415L308.579 266.691L309.739 267.967L310.029 268.257L310.898 269.243C311.652 270.113 312.406 270.925 313.16 271.737L313.972 272.664C315.886 274.81 317.799 276.956 319.655 278.985C319.655 279.043 319.713 279.043 319.713 279.043C322.902 282.58 325.918 285.828 328.701 288.844L328.817 288.959L328.933 289.075L329.049 289.191L329.107 289.249C337.632 298.354 343.721 304.617 345.112 306.008C345.17 306.066 345.286 306.124 345.344 306.066C345.46 306.066 345.518 305.95 345.518 305.892C346.272 303.109 350.795 286.118 337.98 264.024C324.932 241.466 315.48 239.552 294.835 223.663C282.426 214.095 277.612 201.047 273.321 195.248C269.03 189.449 266.014 186.666 262.651 184.346C262.361 184.114 262.071 183.94 261.781 183.766C257.954 181.215 253.721 179.301 249.313 178.083L248.386 177.851L247.69 177.677C244.152 176.923 240.383 176.981 236.788 177.967Z" fill="#FF8080" stroke="#111418" stroke-linecap="round" stroke-linejoin="round"/>
            <path d="M252.503 188.231C252.677 188.579 253.199 189.681 253.953 191.131C253.953 191.189 254.011 191.189 254.011 191.247C254.532 192.233 255.17 193.45 255.866 194.726L256.504 195.944C257.838 198.379 259.346 201.105 260.911 203.714L260.853 203.599L258.882 199.945L257.78 197.8V197.742L253.837 189.971C254.127 190.609 255.576 193.624 257.374 197.104L252.503 188.231Z" fill="#FF8080" stroke="#111418" stroke-linecap="round" stroke-linejoin="round"/>
            <path d="M319.075 248.598C318.089 247.787 317.046 247.033 315.886 246.279" stroke="white" stroke-width="0.8" stroke-linecap="round" stroke-linejoin="round"/>
            <path d="M328.701 260.139C326.788 256.543 324.294 253.296 321.278 250.512" stroke="white" stroke-width="0.8" stroke-linecap="round" stroke-linejoin="round"/>
            <path d="M260.157 189.275C260.157 189.275 253.779 178.489 236.788 177.967" stroke="#111418" stroke-linecap="round" stroke-linejoin="round"/>
            <path d="M189.004 249.468L195.499 392.645C195.499 393.109 195.905 393.457 196.311 393.457H224.32C224.494 393.457 224.668 393.399 224.842 393.225C224.958 393.109 225.016 392.935 225.016 392.703L221.71 265.532L248.734 392.761C248.85 393.167 249.197 393.515 249.661 393.515H278.54C278.714 393.515 278.888 393.457 279.004 393.283C279.12 393.109 279.178 392.935 279.12 392.761L253.837 249.353H189.004V249.468Z" fill="#E7F3FF" stroke="#111418" stroke-linecap="round" stroke-linejoin="round"/>
            <path d="M255.46 259.269C255.46 259.269 251.633 258.515 247.168 254.34" stroke="#111418" stroke-linecap="round" stroke-linejoin="round"/>
            <path d="M189.7 260.313C193.353 258.979 196.775 256.949 199.732 254.34" stroke="#111418" stroke-linecap="round" stroke-linejoin="round"/>
            <path d="M244.79 325.725C243.862 326.073 243.282 326.595 243.282 327.175C243.282 328.276 245.486 329.204 248.212 329.204C250.937 329.204 253.141 328.276 253.141 327.175" stroke="#111418" stroke-linecap="round" stroke-linejoin="round"/>
            <path d="M249.255 325.203C248.907 325.145 248.56 325.145 248.154 325.145C247.516 325.145 246.936 325.203 246.298 325.319" stroke="#111418" stroke-linecap="round" stroke-linejoin="round"/>
            <path d="M200.428 327.174C199.5 327.522 198.92 328.044 198.92 328.624C198.92 329.726 201.124 330.654 203.849 330.654C206.575 330.654 208.779 329.726 208.779 328.624" stroke="#111418" stroke-linecap="round" stroke-linejoin="round"/>
            <path d="M204.893 326.711C204.545 326.653 204.197 326.653 203.791 326.653C203.154 326.653 202.574 326.711 201.936 326.827" stroke="#111418" stroke-linecap="round" stroke-linejoin="round"/>
            <path d="M219.623 249.758L221.073 260.718" stroke="#111418" stroke-linecap="round" stroke-linejoin="round"/>
            <path d="M249.082 284.9L243.515 292.149" stroke="#111418" stroke-linecap="round" stroke-linejoin="round"/>
            <path d="M245.196 285.19L243.862 286.93" stroke="#111418" stroke-linecap="round" stroke-linejoin="round"/>
            <path d="M250.241 288.206L247.226 292.033" stroke="#111418" stroke-linecap="round" stroke-linejoin="round"/>
            <path d="M254.59 273.186L255.112 275.912" stroke="white" stroke-width="0.8" stroke-linecap="round" stroke-linejoin="round"/>
            <path d="M253.083 265.184L254.3 271.504" stroke="white" stroke-width="0.8" stroke-linecap="round" stroke-linejoin="round"/>
            <path d="M167.664 204.584C168.012 204.932 168.418 205.222 168.824 205.57C173.057 208.876 180.537 212.065 185.061 213.863C186.278 214.327 187.322 214.732 187.96 214.964V248.888C187.96 249.236 188.25 249.526 188.598 249.526H257.026C257.084 249.526 257.2 249.468 257.258 249.468C257.316 249.41 257.316 249.352 257.316 249.236V216.646H279.352C279.584 216.646 279.758 216.472 279.758 216.24C279.642 203.019 272.857 191.653 262.767 184.52C258.708 181.678 254.184 179.533 249.429 178.257L248.501 178.025L247.805 177.851C245.254 177.271 242.702 176.865 240.093 176.749C239.455 176.749 238.759 176.691 238.121 176.691H236.092H233.946H230.524L215.447 176.633H212.722H212.664C211.736 176.633 210.75 176.633 209.764 176.691C209.474 176.691 209.184 176.749 208.894 176.749C208.257 176.807 207.561 176.865 206.923 176.923C206.575 176.981 206.227 177.039 205.821 177.039C191.961 177.909 178.914 187.361 167.664 204.584Z" fill="#3674B3" stroke="#111418" stroke-linecap="round" stroke-linejoin="round"/>
            <path d="M187.96 215.66V201.221C187.96 196.118 189.526 191.189 192.425 187.014" stroke="#111418" stroke-linecap="round" stroke-linejoin="round"/>
            <path d="M248.211 183.012C248.211 183.012 252.503 183.244 255.17 185.912" stroke="white" stroke-linecap="round" stroke-linejoin="round"/>
            <path d="M257.374 216.704V204.178C257.374 204.178 257.49 196.292 254.996 192.291" stroke="#111418" stroke-linecap="round" stroke-linejoin="round"/>
            <path d="M210.75 199.481C203.791 205.338 202.458 215.544 207.677 223.025C212.896 230.506 222.986 232.709 230.873 228.128C238.759 223.547 241.833 213.747 237.947 205.512C234.062 197.278 224.552 193.334 216.027 196.524" fill="#FF8080"/>
            <path d="M210.75 199.481C203.791 205.338 202.458 215.544 207.677 223.025C212.896 230.506 222.986 232.709 230.873 228.128C238.759 223.547 241.833 213.747 237.947 205.512C234.062 197.278 224.552 193.334 216.027 196.524" stroke="#111418" stroke-linecap="round" stroke-linejoin="round"/>
            <path d="M221.768 215.312C222 215.312 222.29 215.254 222.464 215.08C222.638 214.964 222.696 214.791 222.696 214.617C222.696 214.443 222.522 214.268 222.232 214.095C221.884 213.979 221.478 213.805 221.014 213.631C220.55 213.457 219.971 213.225 219.449 212.993C218.869 212.761 218.347 212.413 217.883 212.007C217.361 211.601 216.955 211.079 216.665 210.499C216.317 209.861 216.143 209.107 216.201 208.354C216.201 207.658 216.375 207.02 216.665 206.44C217.013 205.802 217.477 205.222 218.057 204.758C218.695 204.236 219.449 203.831 220.26 203.599C221.188 203.309 222.174 203.135 223.16 203.135C224.146 203.135 225.132 203.251 226.059 203.541C226.755 203.773 227.451 204.063 228.089 204.468C228.727 204.816 229.249 205.28 229.771 205.802L227.451 209.398C227.161 209.166 226.813 208.934 226.523 208.76C226.175 208.586 225.885 208.412 225.479 208.296C225.074 208.18 224.668 208.122 224.262 208.122C224.03 208.122 223.74 208.18 223.566 208.354C223.392 208.47 223.334 208.644 223.276 208.818C223.276 208.992 223.45 209.166 223.798 209.34C224.146 209.514 224.552 209.629 225.016 209.803C225.479 209.977 226.059 210.209 226.581 210.441C227.161 210.673 227.683 211.021 228.147 211.427C228.669 211.833 229.075 212.355 229.365 212.877C229.713 213.515 229.887 214.269 229.887 215.022C229.887 215.718 229.713 216.356 229.365 216.936C229.017 217.574 228.553 218.154 227.973 218.618C227.335 219.14 226.581 219.546 225.769 219.778C224.842 220.068 223.856 220.241 222.87 220.241C221.71 220.241 220.55 220.126 219.449 219.778C218.637 219.546 217.825 219.198 217.071 218.734C216.433 218.328 215.795 217.864 215.331 217.284L217.651 213.747C217.999 214.037 218.405 214.269 218.811 214.501C219.217 214.675 219.681 214.848 220.144 214.964C220.666 215.254 221.246 215.312 221.768 215.312Z" fill="#FFF2B3" stroke="#111418" stroke-linecap="round" stroke-linejoin="round"/>
            <path fill-rule="evenodd" clip-rule="evenodd" d="M215.389 166.601V176.517C215.447 177.851 218.811 178.895 223.044 178.895C225.886 178.895 228.321 178.431 229.655 177.735C230.119 177.503 230.409 177.097 230.525 176.633C230.525 176.517 230.583 176.401 230.583 176.285V166.717C225.712 168.921 220.145 168.863 215.389 166.601Z" fill="#FFE6E6" stroke="#111418"/>
            <path d="M218.811 172.052C218.811 172.052 220.376 173.676 222.696 172.052" stroke="#111418" stroke-linecap="round" stroke-linejoin="round"/>
            <path fill-rule="evenodd" clip-rule="evenodd" d="M205.415 140.796V150.654C205.415 157.439 209.3 163.644 215.389 166.543C220.144 168.863 225.711 168.863 230.525 166.659C232.96 165.499 235.106 163.818 236.787 161.73C236.961 161.498 237.135 161.324 237.309 161.092C237.483 160.86 237.657 160.628 237.773 160.396C237.889 160.164 238.063 159.932 238.237 159.7C238.353 159.468 238.527 159.236 238.643 159.004C238.759 158.772 238.875 158.541 238.991 158.251C239.107 158.019 239.165 157.845 239.281 157.613C239.397 157.381 239.397 157.265 239.455 157.149C239.513 156.975 239.571 156.917 239.571 156.801C239.687 156.511 239.803 156.221 239.861 155.989L239.919 155.699C239.919 155.641 239.919 155.641 239.919 155.583C240.151 155.641 240.325 155.641 240.557 155.641C243.166 155.641 245.312 153.785 245.66 151.176C245.718 150.828 245.718 150.48 245.66 150.132V150.074C245.66 149.958 245.602 149.784 245.602 149.668C245.602 149.552 245.544 149.378 245.544 149.262C245.486 149.146 245.486 149.03 245.428 148.914C245.37 148.798 245.37 148.682 245.312 148.624C245.254 148.508 245.196 148.392 245.138 148.334C245.08 148.276 245.022 148.16 244.964 148.102V148.044C244.906 147.928 244.848 147.87 244.79 147.754C244.732 147.638 244.674 147.581 244.558 147.523L244.5 147.464C243.978 146.885 243.224 146.537 242.47 146.421C241.717 146.305 240.905 146.421 240.209 146.711L240.151 146.421C240.151 146.363 240.093 146.247 240.093 146.131C240.093 146.131 240.035 145.957 240.035 145.899L239.977 145.725C239.919 145.609 239.861 145.435 239.861 145.319C239.745 144.913 239.571 144.507 239.397 144.159C239.223 143.811 239.107 143.521 238.933 143.231L238.759 142.941C238.411 142.362 238.005 141.782 237.541 141.26C237.425 141.144 237.309 141.028 237.193 140.912C237.077 140.796 237.019 140.738 236.903 140.622C236.787 140.506 236.729 140.448 236.613 140.39C236.497 140.274 236.381 140.158 236.208 140.1L235.86 139.868C235.628 139.694 235.396 139.578 235.164 139.462C235.048 139.404 234.874 139.288 234.7 139.23C234.526 139.172 234.352 139.056 234.12 138.998C233.946 138.94 233.772 138.882 233.54 138.824C233.482 138.824 233.482 138.766 233.424 138.766C233.192 138.708 233.018 138.65 232.786 138.592C231.104 138.244 228.321 138.882 222.058 135.055C218.289 132.677 213.592 132.387 209.59 134.359C207.097 135.519 205.415 138.012 205.415 140.796Z" fill="#FFE6E6" stroke="#111418"/>
            <path fill-rule="evenodd" clip-rule="evenodd" d="M244.732 147.581L244.674 147.522C244.732 147.58 244.848 147.696 244.906 147.754L244.732 147.581Z" fill="#FFE6E6" stroke="#111418"/>
            <path fill-rule="evenodd" clip-rule="evenodd" d="M239.861 145.261C239.745 144.855 239.571 144.507 239.397 144.101C239.571 144.507 239.687 144.913 239.861 145.261Z" fill="#FFE6E6" stroke="#111418"/>
            <path d="M242.122 148.45C242.702 148.856 243.05 149.494 243.166 150.19C243.224 150.828 242.992 151.466 242.528 151.93C242.065 152.394 241.427 152.568 240.789 152.51" stroke="#111418" stroke-linecap="round" stroke-linejoin="round"/>
            <path fill-rule="evenodd" clip-rule="evenodd" d="M240.325 154.307C240.209 154.945 240.035 155.583 239.861 156.163L240.325 154.307Z" fill="#FFE6E6"/>
            <path d="M240.325 154.307C240.209 154.945 240.035 155.583 239.861 156.163" stroke="#111418"/>
            <path d="M240.325 146.711V148.45" stroke="#111418" stroke-linecap="round" stroke-linejoin="round"/>
            <path d="M207.271 145.377C207.271 145.377 210.75 144.275 212.606 144.797" stroke="#111418" stroke-linecap="round" stroke-linejoin="round"/>
            <path d="M228.785 145.377C228.785 145.377 225.247 144.275 223.45 144.797" stroke="#111418" stroke-linecap="round" stroke-linejoin="round"/>
            <path d="M219.506 151.64C218.984 152.046 218.405 152.22 217.767 152.162C217.593 152.162 217.419 152.162 217.245 152.104C216.955 152.046 216.665 151.872 216.491 151.582C216.317 151.292 216.317 151.002 216.433 150.712C216.839 149.842 217.187 148.914 217.419 147.928" stroke="#111418" stroke-linecap="round" stroke-linejoin="round"/>
            <path d="M222.928 155.003C222.754 155.931 222.464 156.859 222.058 157.729C221.942 157.903 221.826 158.135 221.768 158.309C221.072 159.526 219.912 160.57 218.231 160.57C216.897 160.57 215.621 159.99 214.809 158.946C214.635 158.772 214.519 158.541 214.403 158.367C213.881 157.439 213.417 156.511 213.127 155.467C213.127 155.409 213.127 155.293 213.185 155.235C213.243 155.177 213.359 155.177 213.417 155.177C214.809 155.699 219.042 156.569 222.696 154.771C222.754 154.713 222.812 154.713 222.87 154.771C222.928 154.829 222.928 154.945 222.928 155.003Z" fill="#FF8080" stroke="#111418" stroke-linecap="round" stroke-linejoin="round"/>
            <path d="M222.058 157.729C221.942 157.903 221.826 158.135 221.768 158.309C221.072 159.526 219.912 160.57 218.23 160.57C216.897 160.57 215.621 159.99 214.809 158.947C216.955 157.497 219.564 157.091 222.058 157.729Z" fill="#FF8080" stroke="#111418" stroke-linecap="round" stroke-linejoin="round"/>
            <path d="M227.857 148.972C227.045 148.276 226.059 147.812 225.015 147.696C224.203 147.638 223.508 148.16 223.334 148.972" stroke="#111418" stroke-linecap="round" stroke-linejoin="round"/>
            <path d="M214.519 148.972C213.707 148.276 212.722 147.812 211.678 147.696C210.866 147.638 210.17 148.16 209.996 148.972" stroke="#111418" stroke-linecap="round" stroke-linejoin="round"/>
            <path d="M233.134 179.417C233.714 179.127 234.294 178.895 234.816 178.663C235.454 178.431 236.092 178.199 236.788 178.025C240.383 177.04 244.152 176.982 247.806 177.793L248.502 177.967L249.429 178.199C253.837 179.417 258.07 181.331 261.839 183.882C262.129 184.056 262.419 184.288 262.709 184.462C262.013 183.882 257.432 175.822 248.154 174.082C247.284 173.908 246.414 173.792 245.486 173.734L244.848 173.676C243.573 173.618 242.297 173.676 241.021 173.792L240.731 173.85C240.383 173.908 240.035 173.966 239.687 174.082C238.063 174.662 236.556 175.532 235.222 176.634C234.352 177.272 233.54 178.025 232.844 178.895L232.786 178.953C232.728 179.069 232.67 179.185 232.786 179.301C232.844 179.417 233.018 179.417 233.134 179.417Z" fill="#FF8080" stroke="#111418" stroke-linecap="round" stroke-linejoin="round"/>
            <path d="M208.489 179.707C208.547 179.939 208.663 180.113 208.837 180.229C209.011 180.345 209.243 180.345 209.474 180.287C209.59 180.229 209.706 180.113 209.764 179.997C210.518 178.663 211.504 177.503 212.664 176.517C213.128 176.169 213.592 175.879 214.114 175.59C214.52 175.416 214.925 175.3 215.389 175.3V172.284C213.476 172.458 211.678 173.328 210.286 174.662C209.706 175.242 209.184 175.879 208.837 176.691C208.779 176.749 208.779 176.865 208.721 176.923C208.431 177.793 208.315 178.779 208.489 179.707Z" fill="#FF8080" stroke="#111418" stroke-linecap="round" stroke-linejoin="round"/>
            <path d="M230.467 176.575H233.888H235.222C236.556 175.474 238.063 174.604 239.687 174.024C240.035 173.908 240.383 173.85 240.731 173.792L241.021 173.734C242.297 173.56 243.573 173.56 244.848 173.618L245.486 173.676C243.051 173.212 240.499 172.98 238.005 173.038C237.02 173.038 236.034 173.096 235.048 173.212C233.54 173.386 231.975 173.444 230.467 173.386V176.227C230.525 176.343 230.467 176.459 230.467 176.575Z" fill="#FF8080" stroke="#111418" stroke-linecap="round" stroke-linejoin="round"/>
            <path d="M250.473 176.459C248.212 175.705 245.834 175.415 243.457 175.589" stroke="#111418" stroke-linecap="round" stroke-linejoin="round"/>
            <path d="M212.896 174.604C211.794 174.952 210.866 175.879 210.46 176.981" stroke="#111418" stroke-linecap="round" stroke-linejoin="round"/>
            <path d="M205.415 147.696V140.796C205.415 138.012 207.039 135.403 209.59 134.243C213.592 132.271 218.289 132.503 222.058 134.939C228.321 138.766 231.105 138.128 232.786 138.476C233.018 138.534 233.192 138.592 233.424 138.65C233.482 138.65 233.482 138.65 233.54 138.708C233.714 138.766 233.946 138.824 234.12 138.882C234.294 138.94 234.526 139.056 234.7 139.114C234.874 139.172 234.99 139.288 235.164 139.346C235.396 139.462 235.628 139.636 235.86 139.752L236.208 139.984C236.324 140.1 236.439 140.158 236.613 140.274C236.729 140.332 236.787 140.448 236.903 140.506C237.019 140.564 237.077 140.68 237.193 140.796C237.309 140.854 237.425 141.028 237.541 141.144C238.005 141.666 238.411 142.187 238.759 142.825L238.933 143.115C239.107 143.405 239.281 143.753 239.397 144.043C239.513 144.333 239.745 144.855 239.861 145.203C239.919 145.319 239.977 145.493 239.977 145.609L240.035 145.783C240.035 145.841 240.093 145.957 240.093 146.015C240.093 146.073 240.093 146.015 240.093 146.015C240.093 146.131 240.151 146.189 240.151 146.305L240.209 146.595C240.905 146.305 241.717 146.189 242.47 146.305C243.224 146.421 243.978 146.827 244.5 147.349L244.558 147.406C244.616 147.464 244.732 147.581 244.79 147.639C244.848 147.697 244.906 147.813 244.964 147.929V147.986C245.022 148.102 245.08 148.16 245.138 148.276C245.196 148.392 245.254 148.45 245.312 148.566C245.37 148.682 245.428 148.798 245.428 148.856C245.486 148.972 245.486 149.088 245.544 149.204C245.602 149.32 245.602 149.494 245.602 149.61C245.602 149.726 245.66 149.9 245.66 150.016V150.074C245.66 150.132 245.66 150.19 245.66 150.248C245.718 151.64 245.196 152.974 244.21 154.017C243.224 155.003 241.891 155.583 240.499 155.525C240.267 155.525 240.093 155.525 239.861 155.467C239.861 155.525 239.861 155.525 239.861 155.583L239.745 155.873C239.687 156.163 239.571 156.453 239.455 156.685C239.397 156.801 239.339 156.917 239.339 157.033C239.281 157.149 239.223 157.381 239.165 157.497C239.107 157.671 238.991 157.903 238.875 158.134C238.759 158.366 238.643 158.657 238.469 158.889C238.295 159.12 238.179 159.352 238.063 159.584C237.947 159.816 237.773 160.048 237.599 160.28C237.425 160.512 237.309 160.744 237.135 160.976C236.961 161.208 236.787 161.44 236.613 161.614C237.831 161.614 242.18 161.44 244.616 160.396C251.517 157.613 254.3 148.914 251.459 141.955C250.995 140.738 250.531 139.462 250.183 138.128C249.197 134.765 247.226 131.575 244.326 129.72C242.412 122.819 234.758 118.006 228.031 120.383C226.175 121.021 224.436 122.123 222.522 122.355C217.941 122.935 214.403 118.991 209.01 119.919C202.458 121.079 202.748 126.356 201.994 129.488C201.82 130.241 201.53 130.996 201.066 131.691C199.732 134.301 194.687 143.811 205.415 147.696Z" fill="#FFF2B3" stroke="#111418" stroke-linecap="round" stroke-linejoin="round"/>
            <path d="M238.353 129.024C237.831 127.632 236.73 126.472 235.338 125.892C233.946 125.313 232.38 125.312 230.989 125.95C230.061 126.356 229.249 127.052 228.321 127.516C226.523 128.386 224.436 128.386 222.696 127.574" stroke="#111418" stroke-linecap="round" stroke-linejoin="round"/>
            <path d="M207.213 126.878C206.865 127.458 206.633 128.038 206.517 128.676" stroke="#111418" stroke-linecap="round" stroke-linejoin="round"/>
            <path d="M215.331 125.08C213.766 123.978 211.794 123.689 209.996 124.385C209.416 124.617 208.894 124.964 208.431 125.37" stroke="#111418" stroke-linecap="round" stroke-linejoin="round"/>
            <path d="M203.212 135.983C203.212 135.983 201.936 140.332 203.154 144.217" stroke="#111418" stroke-linecap="round" stroke-linejoin="round"/>
            <path d="M249.545 147.696C249.545 147.696 249.719 156.163 240.789 159.99" stroke="#111418" stroke-linecap="round" stroke-linejoin="round"/>
            <path d="M241.543 138.302C243.05 140.332 243.63 142.883 243.166 145.377" stroke="#111418" stroke-linecap="round" stroke-linejoin="round"/>
            <path d="M238.353 134.939C239.049 135.461 239.687 136.098 240.325 136.736" stroke="#111418" stroke-linecap="round" stroke-linejoin="round"/>
            <path d="M230.525 134.069C230.525 134.069 227.973 135.403 223.74 131.981" stroke="#111418" stroke-linecap="round" stroke-linejoin="round"/>
            <path d="M247.342 140.158C247.168 138.128 246.182 136.272 244.674 134.939" stroke="#111418" stroke-linecap="round" stroke-linejoin="round"/>
            <path d="M205.473 139.752C205.473 139.752 205.415 132.909 211.33 130.648" stroke="#111418" stroke-linecap="round" stroke-linejoin="round"/>
            <path fill-rule="evenodd" clip-rule="evenodd" d="M202.574 240.306C222.928 255.441 246.82 252.542 255.17 249.874C267.87 245.815 276.801 233.579 277.612 218.038C277.67 217.574 277.612 217.052 277.554 216.588H257.316C257.374 217.632 257.316 218.734 257.2 219.778C257.2 219.894 257.2 220.01 257.142 220.126C257.026 220.937 256.794 221.807 256.562 222.561C256.504 222.677 256.504 222.793 256.446 222.909V222.967C256.388 223.141 256.33 223.315 256.272 223.489C254.996 227.084 251.575 230.506 245.602 233.057C244.326 233.579 242.935 233.927 241.601 234.159C237.658 234.681 233.714 234.681 229.771 234.101H229.655L229.423 234.159C228.785 234.333 227.799 234.623 227.393 234.739C226.523 234.971 225.712 235.203 224.842 235.435L222.754 235.957L221.942 236.189L221.42 236.305C220.145 236.595 218.927 236.943 217.709 237.233L216.433 237.522C211.446 238.682 206.865 239.61 202.574 240.306Z" fill="#FFE6E6" stroke="#111418"/>
            <path d="M256.156 242.974C256.736 243.148 257.084 243.496 257.142 243.901C257.258 244.713 256.098 245.525 254.59 245.757C253.952 245.873 253.315 245.815 252.735 245.641" stroke="#111418" stroke-linecap="round" stroke-linejoin="round"/>
            <path fill-rule="evenodd" clip-rule="evenodd" d="M162.039 232.419C163.547 240.19 174.333 242.335 187.96 241.755C189.642 241.697 191.382 241.581 193.121 241.466H193.353C193.701 241.466 193.991 241.407 194.339 241.349H194.687H194.803L195.847 241.234L197.123 241.059L198.572 240.886C199.848 240.712 201.182 240.538 202.574 240.306C206.865 239.61 211.446 238.682 216.433 237.522L217.709 237.232C218.927 236.942 220.144 236.652 221.42 236.304L221.942 236.188L222.754 235.956L224.842 235.435C225.654 235.203 226.523 234.971 227.393 234.739C227.741 234.623 228.785 234.333 229.423 234.159L229.655 234.101H229.771C230.119 233.985 230.467 233.927 230.814 233.811C231.858 233.521 232.844 233.347 233.946 233.231C234.294 233.231 234.642 233.173 234.99 233.173C236.788 233.173 238.991 233.695 241.601 234.159C242.992 233.927 244.326 233.579 245.602 233.057C251.517 230.505 254.938 227.084 256.272 223.489C256.33 223.315 256.388 223.141 256.446 222.967V222.909C254.706 221.575 252.793 220.531 250.763 219.835C250.125 219.604 249.487 219.371 248.791 219.198C245.892 218.328 242.818 217.864 239.803 217.864C226.871 217.864 213.302 219.893 202.226 221.807H202.11L200.776 222.097C195.905 222.967 186.916 224.069 183.379 224.648C182.857 221.923 183.089 219.139 183.959 216.472C184.075 216.124 184.191 215.776 184.365 215.486C184.481 215.138 184.655 214.848 184.829 214.5C184.945 214.268 185.061 214.094 185.177 213.92C184.191 213.572 183.089 213.109 181.929 212.587C177.58 210.789 172.245 208.238 168.94 205.628C164.822 212.123 160.067 222.503 162.039 232.419Z" fill="#FFE6E6" stroke="#111418"/>
            <path d="M254.88 226.156C254.242 225.634 253.488 225.286 252.735 224.996" stroke="#111418" stroke-linecap="round" stroke-linejoin="round"/>
            <path d="M251.691 229.404C251.691 229.404 250.183 228.244 249.893 228.244" stroke="#111418" stroke-linecap="round" stroke-linejoin="round"/>
            <path d="M248.037 231.723C247.573 231.376 246.994 231.201 246.414 231.027" stroke="#111418" stroke-linecap="round" stroke-linejoin="round"/>
            <path d="M252.445 224.069C252.445 224.069 252.445 226.62 248.037 228.882" stroke="#111418" stroke-linecap="round" stroke-linejoin="round"/>
            <path d="M166.91 231.781C166.388 231.781 165.982 232.071 165.692 232.477C165.402 233.231 166.33 234.333 167.78 234.855C168.36 235.087 168.997 235.203 169.635 235.145" stroke="#111418" stroke-linecap="round" stroke-linejoin="round"/>
            <path fill-rule="evenodd" clip-rule="evenodd" d="M250.821 219.836C252.85 220.59 254.764 221.633 256.504 222.909C256.562 222.793 256.562 222.677 256.62 222.561C256.852 221.749 257.084 220.937 257.2 220.126C255.112 219.604 252.908 219.488 250.821 219.836Z" fill="#FFE6E6" stroke="#111418"/>
            <path d="M236.208 233.231C236.208 233.231 235.396 232.767 231.394 232.303" stroke="#111418" stroke-linecap="round" stroke-linejoin="round"/>
            <path fill-rule="evenodd" clip-rule="evenodd" d="M179.552 225.229L188.308 223.837L202.168 221.749C199.616 219.836 196.079 217.168 194.977 216.53C194.281 216.124 192.716 215.197 192.136 214.907C190.744 214.211 189.294 213.689 187.786 213.341C186.917 213.167 185.119 212.413 183.205 212.877C182.22 213.109 181.292 213.631 180.596 214.327L179.378 215.544C178.16 216.762 178.16 216.878 178.218 216.878C178.276 216.878 175.899 218.096 175.319 218.734C173.695 220.473 174.449 222.155 177.232 222.213C177.232 222.213 175.551 223.837 177.116 224.939C177.812 225.519 179.088 225.287 179.552 225.229Z" fill="#FFE6E6" stroke="#111418"/>
            <path d="M179.378 223.895C179.146 223.605 179.03 223.257 178.972 222.851" stroke="#111418" stroke-linecap="round" stroke-linejoin="round"/>
            <path d="M177.29 220.126C177.058 219.836 176.942 219.488 176.884 219.082" stroke="#111418" stroke-linecap="round" stroke-linejoin="round"/>
            <path d="M194.687 221.517C192.658 219.952 191.092 217.864 190.222 215.486" stroke="#111418" stroke-linecap="round" stroke-linejoin="round"/>
            <path fill-rule="evenodd" clip-rule="evenodd" d="M179.378 215.602L180.596 214.384C183.263 211.717 186.511 213.109 187.786 213.399C189.294 213.747 190.744 214.269 192.136 214.964C189.932 213.167 185.815 210.325 183.263 210.847C180.538 211.369 179.668 214.153 179.378 215.602Z" fill="#FFE6E6" stroke="#111418"/>
            <path d="M190.512 216.24C190.512 216.24 186.743 214.906 183.669 215.254C181.756 215.486 179.842 216.066 178.102 216.936" stroke="#111418" stroke-linecap="round" stroke-linejoin="round"/>
            <path d="M192.252 219.082C192.252 219.082 186.047 219.14 183.843 219.603C181.118 220.125 177.174 222.271 177.174 222.271" stroke="#111418" stroke-linecap="round" stroke-linejoin="round"/>
            <path d="M177.116 424.307H222.87C223.218 424.307 223.566 424.133 223.798 423.901C224.03 423.67 224.146 423.263 224.146 422.916L221.768 393.457H199.384L200.66 408.012C200.66 408.012 183.959 408.998 176.188 422.8C176.014 423.09 176.014 423.495 176.188 423.785C176.42 424.133 176.768 424.307 177.116 424.307Z" fill="#A1C3E6" stroke="#111418" stroke-linecap="round" stroke-linejoin="round"/>
            <path d="M200.08 407.954C202.226 407.896 204.371 408.128 206.401 408.592" stroke="#111418" stroke-linecap="round" stroke-linejoin="round"/>
            <path d="M197.239 413.231C197.239 413.231 192.251 412.709 189.236 415.203" stroke="#111418" stroke-linecap="round" stroke-linejoin="round"/>
            <path d="M231.568 424.423H277.322C277.67 424.423 278.018 424.249 278.25 424.017C278.482 423.785 278.598 423.437 278.598 423.032L274.539 393.573H252.039L254.532 408.128C254.532 408.128 238.469 409.114 230.641 422.915C230.467 423.205 230.467 423.611 230.641 423.901C230.815 424.191 231.221 424.423 231.568 424.423Z" fill="#A1C3E6" stroke="#111418" stroke-linecap="round" stroke-linejoin="round"/>
            <path d="M254.59 408.128C254.59 408.128 258.36 408.012 260.911 409.172" stroke="#111418" stroke-linecap="round" stroke-linejoin="round"/>
            <path d="M251.691 413.347C251.691 413.347 246.704 412.825 243.688 415.319" stroke="#111418" stroke-linecap="round" stroke-linejoin="round"/>
            <path d="M289.331 295.161C256.037 314.87 244.34 357.421 262.852 391.361C281.411 425.3 323.501 438.471 358.085 421.11C392.67 403.749 407.268 362.119 391.104 326.982C374.94 291.845 333.816 275.819 298.173 290.74" fill="white"/>
            <path d="M289.331 295.161C256.037 314.87 244.34 357.421 262.852 391.361C281.411 425.3 323.501 438.471 358.085 421.11C392.67 403.749 407.268 362.119 391.104 326.982C374.94 291.845 333.816 275.819 298.173 290.74" stroke="#111418" stroke-linecap="round" stroke-linejoin="round"/>
            <path d="M325.988 424.103C289.059 424.103 259.122 394.166 259.122 357.237C259.122 320.308 289.059 290.371 325.988 290.371C362.917 290.371 392.854 320.308 392.854 357.237C392.854 394.166 362.917 424.103 325.988 424.103Z" fill="#194C80" stroke="#111418" stroke-linecap="round" stroke-linejoin="round"/>
            <path d="M325.988 407.847C298.037 407.847 275.378 385.188 275.378 357.237C275.378 329.286 298.037 306.627 325.988 306.627C353.939 306.627 376.598 329.286 376.598 357.237C376.598 385.188 353.939 407.847 325.988 407.847Z" fill="#A1C3E6" stroke="#111418" stroke-linecap="round" stroke-linejoin="round"/>
            <path d="M325.988 388.137C308.923 388.137 295.088 374.303 295.088 357.237C295.088 340.171 308.923 326.337 325.988 326.337C343.054 326.337 356.888 340.171 356.888 357.237C356.888 374.303 343.054 388.137 325.988 388.137Z" fill="#0F3B66" stroke="#111418" stroke-linecap="round" stroke-linejoin="round"/>
            <path d="M325.988 372.342C317.646 372.342 310.884 365.579 310.884 357.237C310.884 348.895 317.646 342.132 325.988 342.132C334.33 342.132 341.093 348.895 341.093 357.237C341.093 365.579 334.33 372.342 325.988 372.342Z" fill="#E7F3FF" stroke="#111418" stroke-linecap="round" stroke-linejoin="round"/>
            <path d="M302.502 324.495C296.7 328.455 292.049 333.797 288.871 340.06" stroke="#111418" stroke-linecap="round" stroke-linejoin="round"/>
            <path d="M319.771 317.772C314.982 318.462 310.377 319.982 306.14 322.285" stroke="#111418" stroke-linecap="round" stroke-linejoin="round"/>
            <path d="M340.817 396.841C349.658 393.341 356.98 386.94 361.632 378.651" stroke="#111418" stroke-linecap="round" stroke-linejoin="round"/>
            <path d="M325.712 399.696C329.074 399.696 332.389 399.281 335.659 398.499" stroke="#111418" stroke-linecap="round" stroke-linejoin="round"/>
            <path d="M326.771 351.987L324.285 362.533" stroke="#111418" stroke-linecap="round" stroke-linejoin="round"/>
            <path d="M324.192 353.139L322.488 360.415" stroke="#111418" stroke-linecap="round" stroke-linejoin="round"/>
            <path d="M328.705 353.645L326.863 361.336" stroke="#111418" stroke-linecap="round" stroke-linejoin="round"/>
            <path d="M321.107 354.566L330.363 359.447" stroke="#111418" stroke-linecap="round" stroke-linejoin="round"/>
            <path d="M324.699 353.921L329.35 356.408" stroke="#111418" stroke-linecap="round" stroke-linejoin="round"/>
            <path d="M321.199 357.145L326.449 359.908" stroke="#111418" stroke-linecap="round" stroke-linejoin="round"/>
            <path d="M325.988 357.237L366.098 316.62" stroke="#111418" stroke-linecap="round" stroke-linejoin="round"/>
            <path d="M385.393 296.865L393.176 288.944" stroke="#111418" stroke-linecap="round" stroke-linejoin="round"/>
            <path d="M366.098 296.772V316.62L385.394 296.865V279.503C385.394 279.365 385.301 279.227 385.209 279.181C385.071 279.135 384.933 279.135 384.841 279.227L366.605 295.621C366.282 295.943 366.098 296.358 366.098 296.772Z" fill="#FF8080" stroke="#111418" stroke-linecap="round" stroke-linejoin="round"/>
            <path d="M366.098 316.62H385.486C385.808 316.62 386.13 316.482 386.361 316.252L403.952 297.371C404.044 297.279 404.044 297.187 403.998 297.049C403.952 296.911 403.86 296.865 403.722 296.865H385.394L366.098 316.62Z" fill="#FFF2B3" stroke="#111418" stroke-linecap="round" stroke-linejoin="round"/>
            <path d="M379.269 297.878V303.127" stroke="#111418" stroke-linecap="round" stroke-linejoin="round"/>
            <path d="M379.269 287.839V296.772" stroke="#111418" stroke-linecap="round" stroke-linejoin="round"/>
            <path d="M375.584 291.799V306.904" stroke="#111418" stroke-linecap="round" stroke-linejoin="round"/>
            <path d="M371.947 295.483V310.588" stroke="#111418" stroke-linecap="round" stroke-linejoin="round"/>
            <path d="M379.269 303.127H393.176" stroke="#111418" stroke-linecap="round" stroke-linejoin="round"/>
            <path d="M375.769 306.904H389.63" stroke="#111418" stroke-linecap="round" stroke-linejoin="round"/>
            <path d="M371.947 310.588H385.854" stroke="#111418" stroke-linecap="round" stroke-linejoin="round"/>
            <path d="M228.189 21.0464L233.939 27.1737C234.126 27.3867 234.421 27.4692 234.681 27.4393L257.418 24.016C257.515 24.0113 257.596 24.0357 257.645 24.1187C257.695 24.2018 257.7 24.2984 257.653 24.3861L246.531 44.4901C246.383 44.7308 246.375 45.0274 246.501 45.2832L256.77 65.7776C256.82 65.8606 256.802 65.964 256.748 66.0293C256.694 66.0946 256.582 66.1285 256.501 66.104L233.921 61.7844C233.634 61.7244 233.364 61.8059 233.158 62.0153L216.76 78.1276C216.706 78.1929 216.594 78.2269 216.506 78.1799C216.418 78.1329 216.353 78.0791 216.348 77.9825L213.534 55.2329C213.497 54.9499 213.326 54.7077 213.092 54.5824L192.69 44.0158C192.603 43.9688 192.553 43.8859 192.548 43.7893C192.544 43.6927 192.597 43.6274 192.68 43.5777L213.502 33.8227C213.758 33.6962 213.934 33.4711 213.972 33.1902L217.766 10.5734C217.79 10.4925 217.837 10.4049 217.927 10.3777C218.017 10.3505 218.098 10.375 218.17 10.4512L226.486 19.3069" fill="#FFF2B3"/>
            <path d="M228.189 21.0464L233.939 27.1737C234.126 27.3867 234.421 27.4692 234.681 27.4393L257.418 24.016C257.515 24.0113 257.596 24.0357 257.645 24.1187C257.695 24.2018 257.7 24.2984 257.653 24.3861L246.531 44.4901C246.383 44.7308 246.375 45.0274 246.501 45.2832L256.77 65.7776C256.82 65.8606 256.802 65.964 256.748 66.0293C256.694 66.0946 256.582 66.1285 256.501 66.104L233.921 61.7844C233.634 61.7244 233.364 61.8059 233.158 62.0153L216.76 78.1276C216.706 78.1929 216.594 78.2269 216.506 78.1799C216.418 78.1329 216.353 78.0791 216.348 77.9825L213.534 55.2329C213.497 54.9499 213.326 54.7077 213.092 54.5824L192.69 44.0158C192.603 43.9688 192.553 43.8859 192.548 43.7893C192.544 43.6927 192.597 43.6274 192.68 43.5777L213.502 33.8227C213.758 33.6962 213.934 33.4711 213.972 33.1902L217.766 10.5734C217.79 10.4925 217.837 10.4049 217.927 10.3777C218.017 10.3505 218.098 10.375 218.17 10.4512L226.486 19.3069" stroke="#111418" stroke-linecap="round" stroke-linejoin="round"/>
            <path d="M423.142 279.864L424.379 286.023C424.413 286.232 424.568 286.401 424.745 286.485L440.536 293.275C440.599 293.311 440.641 293.358 440.64 293.43C440.638 293.503 440.603 293.566 440.539 293.603L425.548 301.986C425.359 302.081 425.237 302.266 425.216 302.478L423.657 319.544C423.656 319.616 423.604 319.674 423.544 319.695C423.484 319.715 423.4 319.692 423.358 319.645L410.72 307.998C410.561 307.847 410.358 307.792 410.144 307.844L393.376 311.611C393.317 311.632 393.232 311.609 393.195 311.544C393.157 311.48 393.137 311.42 393.172 311.357L400.355 295.798C400.443 295.604 400.43 295.383 400.331 295.211L391.54 280.456C391.503 280.391 391.504 280.319 391.539 280.256C391.574 280.193 391.634 280.172 391.706 280.173L408.777 282.188C408.989 282.208 409.19 282.135 409.325 281.971L420.652 269.103C420.7 269.061 420.764 269.024 420.832 269.042C420.899 269.06 420.941 269.108 420.957 269.185L422.747 278.088" fill="#FFF2B3"/>
            <path d="M423.142 279.864L424.379 286.023C424.413 286.232 424.568 286.401 424.745 286.485L440.536 293.275C440.599 293.311 440.641 293.358 440.64 293.43C440.638 293.503 440.603 293.566 440.539 293.603L425.548 301.986C425.359 302.081 425.237 302.266 425.216 302.478L423.657 319.544C423.656 319.616 423.604 319.674 423.544 319.695C423.484 319.715 423.4 319.692 423.358 319.645L410.72 307.998C410.561 307.847 410.358 307.792 410.144 307.844L393.376 311.611C393.317 311.632 393.232 311.609 393.195 311.544C393.157 311.48 393.137 311.42 393.172 311.357L400.355 295.798C400.443 295.604 400.43 295.383 400.331 295.211L391.54 280.456C391.503 280.391 391.504 280.319 391.539 280.256C391.574 280.193 391.634 280.172 391.706 280.173L408.777 282.188C408.989 282.208 409.19 282.135 409.325 281.971L420.652 269.103C420.7 269.061 420.764 269.024 420.832 269.042C420.899 269.06 420.941 269.108 420.957 269.185L422.747 278.088" stroke="#111418" stroke-linecap="round" stroke-linejoin="round"/>
            <path d="M144.565 373.197L149.596 374.895C149.764 374.958 149.953 374.916 150.089 374.822L161.734 366.132C161.787 366.101 161.839 366.09 161.892 366.122C161.944 366.153 161.976 366.206 161.976 366.269L161.776 380.786C161.766 380.964 161.85 381.132 161.996 381.237L173.831 389.591C173.883 389.623 173.904 389.686 173.894 389.738C173.883 389.79 173.831 389.843 173.778 389.853L159.911 394.182C159.732 394.235 159.607 394.361 159.554 394.539L155.225 408.406C155.215 408.459 155.162 408.511 155.099 408.511C155.036 408.511 154.984 408.501 154.953 408.448L146.598 396.614C146.494 396.467 146.326 396.384 146.158 396.384L131.64 396.583C131.578 396.583 131.525 396.551 131.494 396.499C131.462 396.446 131.473 396.394 131.504 396.342L140.194 384.696C140.299 384.549 140.33 384.371 140.267 384.203L135.634 370.472C135.624 370.419 135.624 370.357 135.666 370.315C135.708 370.273 135.76 370.262 135.823 370.283L143.097 372.736" fill="#FFF2B3"/>
            <path d="M144.565 373.197L149.596 374.895C149.764 374.958 149.953 374.916 150.089 374.822L161.734 366.132C161.787 366.101 161.839 366.09 161.892 366.122C161.944 366.153 161.976 366.206 161.976 366.269L161.776 380.786C161.766 380.964 161.85 381.132 161.996 381.237L173.831 389.591C173.883 389.623 173.904 389.686 173.894 389.738C173.883 389.79 173.831 389.843 173.778 389.853L159.911 394.182C159.732 394.235 159.607 394.361 159.554 394.539L155.225 408.406C155.215 408.459 155.162 408.511 155.099 408.511C155.036 408.511 154.984 408.501 154.953 408.448L146.598 396.614C146.494 396.467 146.326 396.384 146.158 396.384L131.64 396.583C131.578 396.583 131.525 396.551 131.494 396.499C131.462 396.446 131.473 396.394 131.504 396.342L140.194 384.696C140.299 384.549 140.33 384.371 140.267 384.203L135.634 370.472C135.624 370.419 135.624 370.357 135.666 370.315C135.708 370.273 135.76 370.262 135.823 370.283L143.097 372.736" stroke="#111418" stroke-linecap="round" stroke-linejoin="round"/>
            </svg>