<?xml version="1.0" encoding="utf-8"?>
<!-- Generator: Adobe Illustrator 22.0.1, SVG Export Plug-In . SVG Version: 6.00 Build 0)  -->
<svg version="1.1"
	 id="svg8" xmlns:cc="http://creativecommons.org/ns#" xmlns:dc="http://purl.org/dc/elements/1.1/" xmlns:rdf="http://www.w3.org/1999/02/22-rdf-syntax-ns#" xmlns:svg="http://www.w3.org/2000/svg"
	 xmlns="http://www.w3.org/2000/svg" xmlns:xlink="http://www.w3.org/1999/xlink" x="0px" y="0px" viewBox="0 0 363 730"
	 style="enable-background:new 0 0 363 730;" xml:space="preserve">
<style type="text/css">
	.st0{fill:none;}
	.st1{fill:#013F84;}
	.st2{fill:#12284A;}
	.st3{fill:url(#rect2415-4-9-9_1_);}
	.st4{fill:url(#rect2415-4-9_1_);}
	.st5{fill:url(#rect2415-4-9-6_1_);}
	.st6{fill:url(#rect2415-4_1_);}
	.st7{fill:#455D80;}
	.st8{fill:#161616;}
	.st9{fill:#0A0D13;}
	.st10{fill:#091427;}
	.st11{opacity:0.5561;fill:#235A91;enable-background:new    ;}
	.st12{fill:url(#rect5261_1_);}
	.st13{fill:none;stroke:#292929;stroke-width:6.684870e-02;stroke-linecap:round;}
	.st14{fill:#FFFFFF;}
</style>
<pattern  y="730" width="363" height="730" patternUnits="userSpaceOnUse" id="rect5261_2_" viewBox="0 -730 363 730" style="overflow:visible;">
	<g>
		<rect y="-730" class="st0" width="363" height="730"/>
		<g>
			<rect y="-730" class="st0" width="363" height="730"/>
			<g>
				<rect y="-730" class="st0" width="363" height="730"/>
			</g>
		</g>
	</g>
</pattern>
<g>
	<path class="st1" d="M0,0v730h363V0H0z M359.2,673.5c0,30.7-24.9,55.6-55.6,55.6H59.3c-30.7,0-55.6-24.9-55.6-55.6v-617
		c0-30.8,24.9-55.7,55.6-55.7h244.4c30.7,0,55.6,24.9,55.5,55.7V673.5z"/>
	<path class="st1" d="M302.8,5.5L302.8,5.5c28.9,0,52.4,23.5,52.5,52.5C355.3,29,331.8,5.5,302.8,5.5z"/>
</g>
<path id="rect2415-6-8" class="st2" d="M353.3,187.9h8.5c0.5,0,0.8,0.4,0.8,0.8V273c0,0.5-0.4,0.8-0.8,0.8h-8.5
	c-0.5,0-0.8-0.4-0.8-0.8v-84.3C352.5,188.3,352.8,187.9,353.3,187.9z"/>
<linearGradient id="rect2415-4-9-9_1_" gradientUnits="userSpaceOnUse" x1="333.3297" y1="630.9727" x2="333.3297" y2="608.721" gradientTransform="matrix(3.7795 0 0 -3.7795 -902.2695 2573.761)">
	<stop  offset="0" style="stop-color:#455D80"/>
	<stop  offset="0.2" style="stop-color:#19365E"/>
	<stop  offset="0.8" style="stop-color:#19365E"/>
	<stop  offset="1" style="stop-color:#455D80"/>
</linearGradient>
<path id="rect2415-4-9-9" class="st3" d="M353.3,189h8.5c0.5,0,0.8,0.4,0.8,0.8v82.5c0,0.5-0.4,0.8-0.8,0.8h-8.5
	c-0.5,0-0.8-0.4-0.8-0.8v-82.5C352.5,189.3,352.8,189,353.3,189z"/>
<path id="rect2415-6" class="st2" d="M1.3,169.4h8.5c0.5,0,0.8,0.4,0.8,0.8v52.1c0,0.5-0.4,0.8-0.8,0.8H1.3c-0.5,0-0.8-0.4-0.8-0.8
	v-52.1C0.4,169.8,0.8,169.4,1.3,169.4z"/>
<linearGradient id="rect2415-4-9_1_" gradientUnits="userSpaceOnUse" x1="333.3314" y1="630.9662" x2="333.3314" y2="617.2343" gradientTransform="matrix(3.7795 0 0 -3.7795 -1254.2838 2555.2368)">
	<stop  offset="0" style="stop-color:#455D80"/>
	<stop  offset="0.2" style="stop-color:#19365E"/>
	<stop  offset="0.8" style="stop-color:#19365E"/>
	<stop  offset="1" style="stop-color:#455D80"/>
</linearGradient>
<path id="rect2415-4-9" class="st4" d="M1.3,170.5h8.5c0.5,0,0.8,0.4,0.8,0.8v50.3c0,0.5-0.4,0.8-0.8,0.8H1.3
	c-0.5,0-0.8-0.4-0.8-0.8v-50.3C0.4,170.8,0.8,170.5,1.3,170.5z"/>
<path id="rect2415-6-0" class="st2" d="M1.3,239.4h8.5c0.5,0,0.8,0.4,0.8,0.8v52.1c0,0.5-0.4,0.8-0.8,0.8H1.3
	c-0.5,0-0.8-0.4-0.8-0.8v-52.1C0.4,239.8,0.8,239.4,1.3,239.4z"/>
<linearGradient id="rect2415-4-9-6_1_" gradientUnits="userSpaceOnUse" x1="333.3314" y1="630.976" x2="333.3314" y2="617.244" gradientTransform="matrix(3.7795 0 0 -3.7795 -1254.2838 2625.2737)">
	<stop  offset="0" style="stop-color:#455D80"/>
	<stop  offset="0.2" style="stop-color:#19365E"/>
	<stop  offset="0.8" style="stop-color:#19365E"/>
	<stop  offset="1" style="stop-color:#455D80"/>
</linearGradient>
<path id="rect2415-4-9-6" class="st5" d="M1.3,240.5h8.5c0.5,0,0.8,0.4,0.8,0.8v50.3c0,0.5-0.4,0.8-0.8,0.8H1.3
	c-0.5,0-0.8-0.4-0.8-0.8v-50.3C0.4,240.9,0.8,240.5,1.3,240.5L1.3,240.5z"/>
<path id="rect2415" class="st2" d="M1.3,116.2h8.5c0.4,0,0.8,0.4,0.8,0.8v26.3c0,0.4-0.4,0.8-0.8,0.8H1.3c-0.4,0-0.8-0.4-0.8-0.8
	V117C0.4,116.6,0.8,116.2,1.3,116.2z"/>
<linearGradient id="rect2415-4_1_" gradientUnits="userSpaceOnUse" x1="333.3314" y1="630.9741" x2="333.3314" y2="624.0684" gradientTransform="matrix(3.7795 0 0 -3.7795 -1254.2838 2502.0667)">
	<stop  offset="0" style="stop-color:#455D80"/>
	<stop  offset="0.2" style="stop-color:#19365E"/>
	<stop  offset="0.8" style="stop-color:#19365E"/>
	<stop  offset="1" style="stop-color:#455D80"/>
</linearGradient>
<path id="rect2415-4" class="st6" d="M1.3,117.3h8.5c0.4,0,0.8,0.4,0.8,0.8v24.5c0,0.4-0.4,0.8-0.8,0.8H1.3c-0.4,0-0.8-0.4-0.8-0.8
	v-24.5C0.4,117.6,0.8,117.3,1.3,117.3z"/>
<g>
	<path class="st7" d="M303.7,0.8H59.3C28.6,0.8,3.7,25.7,3.7,56.5v617c0,30.7,24.9,55.6,55.6,55.6h244.3c30.7,0,55.6-24.9,55.6-55.6
		v-617C359.3,25.7,334.4,0.8,303.7,0.8z M355.2,672.1c0,29-23.5,52.5-52.5,52.5H60.3c-29,0-52.5-23.5-52.5-52.5V57.9
		c0-29,23.5-52.5,52.5-52.5h242.5c29,0,52.5,23.5,52.5,52.5L355.2,672.1L355.2,672.1z"/>
	<path d="M302.7,5.4H60.3c-29,0-52.5,23.5-52.5,52.5v614.2c0,29,23.5,52.5,52.5,52.5h242.5c29,0,52.5-23.5,52.5-52.5V57.9
		C355.2,28.9,331.7,5.4,302.7,5.4z M342.2,674.9c0,21-17.1,38.1-38.1,38.1H58.9c-21,0-38.1-17.1-38.1-38.1V55.1
		C20.8,34,37.8,17,58.9,17H88c4.5,0,6.8,0.5,6.8,7.5s4.4,19,20,19h133.6c15.7,0,20-11.9,20-19s2.3-7.5,6.8-7.5h29.1
		c21,0,38.1,17.1,38.1,38.1v619.8L342.2,674.9L342.2,674.9z"/>
</g>
<g id="g2170" transform="translate(104.02232,1.0583265)">
	<circle id="path5263" class="st8" cx="113.1" cy="25.5" r="6.6"/>
	<circle id="path5265" class="st9" cx="113.1" cy="25.5" r="4.1"/>
	<circle id="path5267" class="st10" cx="113.1" cy="25.5" r="3.1"/>
	<g id="path5271">
		<path class="st11" d="M111,23.5c-0.4,0-0.9,0.6-0.9,1.7s0.4,1.7,0.7,1.7C111.1,26.9,112.2,25.3,111,23.5L111,23.5z"/>
	</g>
	<g id="path5273">
		<path class="st11" d="M113.7,23.1c-0.6,0.2-0.7,1.1-0.7,1.7c0,0.5,0.8,1.9,1.7,1.6c0.9-0.3,1.1-1.5,0.7-2.3
			C115,23.3,114.3,22.8,113.7,23.1z"/>
	</g>
</g>
<g id="g2051" transform="matrix(0.98624005,0,0,0.98624005,1.1090123,-1.4667031)">
	<pattern  id="rect5261_1_" xlink:href="#rect5261_2_" patternTransform="matrix(1.2119 0 0 -1.2119 4588.8198 -43178.2617)">
	</pattern>
	<path id="rect5261" class="st12" d="M167.9,24.7h32.3c1.9,0,3.4,1.5,3.4,3.4l0,0c0,1.9-1.5,3.4-3.4,3.4h-32.3
		c-1.9,0-3.4-1.5-3.4-3.4l0,0C164.4,26.2,166,24.7,167.9,24.7z"/>
	<path id="rect5261-0" class="st13" d="M167.9,24.7c-1.9,0-3.4,1.5-3.4,3.4s1.5,3.4,3.4,3.4h32.3c1.9,0,3.4-1.5,3.4-3.4
		s-1.5-3.4-3.4-3.4H167.9z"/>
	<g id="g1041" transform="matrix(0.90162812,0,0,1.2632814,4.6999299,-1.5462883)">
		<path id="path999_1_" class="st14" d="M177.7,23.5c0,0.5-0.4,0.9-0.9,0.9l0,0c-0.5,0-0.9-0.4-0.9-0.9s0.4-0.9,0.9-0.9
			S177.7,23,177.7,23.5L177.7,23.5z"/>
		<path id="path999-2_1_" class="st14" d="M220.6,23.5c0,0.5-0.4,0.9-0.9,0.9s-0.9-0.4-0.9-0.9l0,0c0-0.5,0.4-0.9,0.9-0.9l0,0
			C220.2,22.6,220.6,23,220.6,23.5z"/>
	</g>
</g>
</svg>
