<?xml version="1.0" encoding="utf-8"?>
<!-- Generator: Adobe Illustrator 22.0.1, SVG Export Plug-In . SVG Version: 6.00 Build 0)  -->
<svg version="1.1" id="Layer_1" xmlns="http://www.w3.org/2000/svg" xmlns:xlink="http://www.w3.org/1999/xlink" x="0px" y="0px"
	 viewBox="0 0 64 24" style="enable-background:new 0 0 64 24;" xml:space="preserve">
<style type="text/css">
	.st0{fill:#FFFFFF;}
</style>
<g>
	<path class="st0" d="M15.9,0h5.2v9.2c0.6-0.9,1.3-1.6,1.9-2s1.4-0.5,2.2-0.5c1.8,0,3.1,0.6,3.9,1.9c0.8,1.2,1.2,2.9,1.2,5v10H25V15
		c0-1.1-0.2-1.9-0.5-2.4s-0.8-0.8-1.4-0.8c-1.3,0-2,1.1-2,3.2v8.5h-5.2C15.9,23.5,15.9,0,15.9,0z M58.1,13.3c0-0.3,0-0.7-0.1-0.9
		c-0.1-0.3-0.2-0.5-0.4-0.8c-0.4-0.4-0.8-0.6-1.4-0.6c-0.8,0-1.4,0.4-1.8,1.1c-0.4,0.7-0.6,1.8-0.6,3.3c0,1.2,0.2,2.2,0.6,3
		c0.4,0.8,1,1.2,1.9,1.2c1.2,0,1.8-0.8,2-2.4h5.5c-0.2,2.3-1,4-2.4,5.1c-1.3,1.1-3.1,1.7-5.2,1.7c-1.3,0-2.4-0.2-3.4-0.7
		c-1-0.4-1.8-1-2.5-1.8s-1.2-1.7-1.5-2.7s-0.5-2.1-0.5-3.2c0-1.5,0.3-3,0.8-4.4c0.5-1.3,1.4-2.5,2.5-3.3c1.2-0.8,2.7-1.3,4.5-1.3
		c1.3,0,2.6,0.3,3.7,0.8c1.1,0.5,2,1.3,2.6,2.3c0.3,0.5,0.6,1.1,0.8,1.7c0.2,0.6,0.3,1.3,0.3,1.9C63.5,13.3,58.1,13.3,58.1,13.3z
		 M41.2,11.7c-0.1-1.1-0.7-1.6-1.7-1.6s-1.4,0.4-1.4,1.2c0,0.5,0.6,1,1.8,1.3l2.5,0.6c0.5,0.1,1.1,0.4,1.7,0.7
		c0.6,0.3,1.2,0.7,1.7,1.3c0.5,0.5,0.8,1.2,0.9,2c0.1,0.4,0.1,0.8,0.1,1.2c0,1.2-0.3,2.2-0.9,3c-0.6,0.8-1.5,1.5-2.6,1.9
		s-2.4,0.6-3.8,0.6c-0.6,0-1.2,0-1.7-0.2c-0.5-0.1-1.1-0.2-1.6-0.4c-1-0.3-1.8-1-2.4-1.8c-0.6-0.8-1-1.9-1.1-3.3h5.1
		c0,0.7,0.2,1.1,0.5,1.5c0.4,0.3,0.8,0.5,1.5,0.5c0.5,0,0.9-0.1,1.2-0.4c0.1-0.1,0.3-0.3,0.3-0.4c0.1-0.2,0.1-0.4,0.1-0.6
		c0-0.5-0.3-0.9-0.9-1.2c-0.4-0.2-1.1-0.4-2.2-0.6c-1.1-0.3-1.9-0.5-2.6-0.8c-0.7-0.3-1.4-0.8-1.9-1.5c-0.3-0.4-0.5-0.8-0.6-1.2
		C33.1,13,33,12.5,33,12c0-0.9,0.2-1.8,0.6-2.6c0.4-0.8,1.1-1.5,2.1-2s2.3-0.8,3.9-0.8c1.6,0,2.8,0.2,3.8,0.7s1.7,1.1,2.1,1.9
		c0.2,0.4,0.4,0.8,0.5,1.2s0.2,0.8,0.2,1.3L41.2,11.7L41.2,11.7z"/>
	<path class="st0" d="M0,23.5h5.3v-5.2H0V23.5z"/>
	<path class="st0" d="M7.9,23.5h5.3v-5.2H7.9V23.5z"/>
	<path class="st0" d="M7.9,15.7h5.3v-5.2H7.9V15.7z"/>
</g>
</svg>
