<svg xmlns="http://www.w3.org/2000/svg" width="64" height="24" viewBox="0 0 64 24">
    <g fill="none" fill-rule="evenodd">
        <path fill="#003087" d="M15.928 0h5.242V9.21c.624-.947 1.253-1.597 1.878-1.956.628-.364 1.35-.54 2.164-.54 1.773 0 3.073.624 3.9 1.872.831 1.248 1.245 2.902 1.245 4.952v9.998h-5.292v-8.52c0-1.124-.152-1.94-.452-2.435-.3-.5-.776-.75-1.426-.75-1.346 0-2.017 1.083-2.017 3.247v8.458h-5.242V0zm42.16 13.318c0-.343-.048-.66-.147-.947a2.432 2.432 0 0 0-.437-.775c-.355-.426-.818-.64-1.393-.64-.77 0-1.36.365-1.77 1.098-.412.728-.616 1.816-.616 3.261 0 1.218.191 2.227.576 3.023.386.795 1.005 1.196 1.861 1.196 1.165 0 1.84-.812 2.026-2.434h5.48c-.226 2.273-1.018 3.974-2.364 5.092-1.35 1.123-3.082 1.686-5.193 1.686-1.268 0-2.398-.224-3.385-.672a6.862 6.862 0 0 1-2.467-1.841 8.005 8.005 0 0 1-1.471-2.674 10.254 10.254 0 0 1-.485-3.178c0-1.534.273-2.99.823-4.374a7.088 7.088 0 0 1 2.548-3.267c1.173-.838 2.67-1.26 4.488-1.26 1.35 0 2.576.256 3.666.77a6.075 6.075 0 0 1 2.597 2.295c.337.515.605 1.082.8 1.696a6.43 6.43 0 0 1 .29 1.945h-5.427zm-16.907-1.649c-.147-1.066-.718-1.597-1.724-1.597-.962 0-1.441.385-1.441 1.16 0 .547.592.994 1.772 1.337l2.491.64c.501.135 1.076.359 1.72.671a5.177 5.177 0 0 1 1.673 1.29c.466.54.757 1.207.866 1.987.07.385.105.785.105 1.191 0 1.166-.313 2.164-.932 2.991-.623.827-1.49 1.457-2.604 1.889-1.115.431-2.382.65-3.802.65a9.823 9.823 0 0 1-1.73-.151 11.022 11.022 0 0 1-1.615-.427 5.254 5.254 0 0 1-2.447-1.779c-.64-.827-1.011-1.914-1.111-3.267h5.143c0 .651.179 1.145.532 1.489.352.338.848.51 1.485.51.5 0 .901-.121 1.201-.365a1.52 1.52 0 0 0 .35-.426 1.16 1.16 0 0 0 .121-.552c0-.504-.305-.915-.919-1.217-.374-.162-1.093-.38-2.155-.64-1.063-.265-1.943-.546-2.63-.838a4.763 4.763 0 0 1-1.878-1.497 3.717 3.717 0 0 1-.618-1.202 5.281 5.281 0 0 1-.21-1.54c0-.905.201-1.763.606-2.585.405-.817 1.102-1.493 2.094-2.034.99-.536 2.3-.806 3.933-.806 1.568 0 2.84.244 3.824.733.98.484 1.69 1.114 2.12 1.889.24.416.423.822.55 1.222.13.405.191.827.191 1.274h-4.96z"/>
        <path fill="#EE373D" d="M0 23.545h5.297v-5.226H0z"/>
        <path fill="#571C0D" d="M7.948 23.515h5.297V18.29H7.948z"/>
        <path fill="#FFD500" d="M7.942 15.653h5.297v-5.225H7.942z"/>
    </g>
</svg>
