<svg width="400" height="400" viewBox="0 0 452 360" fill="none" xmlns="http://www.w3.org/2000/svg">
    <path d="M451 28.9892V351.334C451 355.679 447.482 359.248 443.086 359.248H8.91381C4.56899 359.248 1 355.73 1 351.334V28.9892H451Z" fill="#F7F8F9" stroke="#B3BCC4" stroke-width="1.5" stroke-linecap="round" stroke-linejoin="round"/>
    <path d="M384.017 78.4374H68.0344V310.317H384.017V78.4374Z" stroke="#B3BCC4" stroke-width="1.5" stroke-linecap="round" stroke-linejoin="round"/>
    <path d="M321.12 124.162H129.793V264.541H321.12V124.162Z" stroke="#B3BCC4" stroke-width="1.5" stroke-linecap="round" stroke-linejoin="round"/>
    <path d="M1.05212 28.9892L225.431 194.248L451 28.9892" stroke="#B3BCC4" stroke-width="1.5" stroke-linecap="round" stroke-linejoin="round"/>
    <path d="M4.20679 357.644L225.431 194.248L448.155 357.334" stroke="#B3BCC4" stroke-width="1.5" stroke-linecap="round" stroke-linejoin="round"/>
    <path d="M279.276 29.1963L225.431 194.248L172.776 29.1963" stroke="#B3BCC4" stroke-width="1.5" stroke-linecap="round" stroke-linejoin="round"/>
    <path d="M279.276 359.196L225.431 194.248L172.362 359.196" stroke="#B3BCC4" stroke-width="1.5" stroke-linecap="round" stroke-linejoin="round"/>
    <path d="M1.05176 149.765L225.431 194.248L1.05176 220.782" stroke="#B3BCC4" stroke-width="1.5" stroke-linecap="round" stroke-linejoin="round"/>
    <path d="M1.05176 85.6788L225.431 194.248L1.05176 286.317" stroke="#B3BCC4" stroke-width="1.5" stroke-linecap="round" stroke-linejoin="round"/>
    <path d="M451 148.782L225.431 194.248L451 220.213" stroke="#B3BCC4" stroke-width="1.5" stroke-linecap="round" stroke-linejoin="round"/>
    <path d="M451 84.3857L225.431 194.248L449.862 285.592" stroke="#B3BCC4" stroke-width="1.5" stroke-linecap="round" stroke-linejoin="round"/>
    <path d="M90.3275 28.9891L225.431 194.248L372.224 29.1962" stroke="#B3BCC4" stroke-width="1.5" stroke-linecap="round" stroke-linejoin="round"/>
    <path d="M89.2413 359.196L225.431 194.248L373.62 359.196" stroke="#B3BCC4" stroke-width="1.5" stroke-linecap="round" stroke-linejoin="round"/>
    <path d="M218.81 52.265C222.793 56.5064 230.81 65.041 230.81 65.041" stroke="#B3BCC4" stroke-width="1.5" stroke-linecap="round" stroke-linejoin="round"/>
    <path d="M226.569 53.5581C228.017 55.0581 230.396 57.5927 232.052 59.3513" stroke="#B3BCC4" stroke-width="1.5" stroke-linecap="round" stroke-linejoin="round"/>
    <path d="M219.896 59.8686C220.414 60.3858 221.5 61.472 223.879 64.0065" stroke="#B3BCC4" stroke-width="1.5" stroke-linecap="round" stroke-linejoin="round"/>
    <path d="M329.447 120.199C328.583 116.976 328.681 113.176 328.681 113.176C320.643 123.541 314.716 125.82 313.737 126.136C313.688 126.149 313.656 126.131 313.625 126.113C313.593 126.094 313.562 126.076 313.549 126.027C312.084 119.27 319.401 105.218 319.401 105.218C317.159 107.068 313.913 108.841 312.772 109.439C312.704 109.484 312.591 109.461 312.529 109.425C312.466 109.388 312.408 109.271 312.413 109.19C313.89 93.7792 323.995 86.6603 326.46 85.1493C327.218 85.7966 328.026 86.4305 328.946 87.0875C327.177 88.9168 322.81 93.9405 321.849 99.3801C321.849 99.3801 324.475 98.1715 326.556 97.9061C326.556 97.9061 323.711 104.94 323.719 109.137C323.719 109.137 329.531 104.444 331.996 101.843C331.679 103.337 331.636 104.863 331.805 106.386C331.805 106.386 337.154 103.438 340.489 93.6681C341.518 94.1364 342.552 94.5237 343.492 94.8566C341.341 109.544 331.737 118.629 329.884 120.241C329.798 120.317 329.699 120.344 329.636 120.308C329.573 120.271 329.474 120.298 329.447 120.199Z" fill="#3674B3" stroke="#111418" stroke-linecap="round" stroke-linejoin="round"/>
    <path d="M331.769 106.449C331.6 104.926 331.692 103.386 331.978 101.875C329.512 104.475 323.701 109.168 323.701 109.168C323.661 104.954 326.538 97.9376 326.538 97.9376C324.457 98.203 321.831 99.4115 321.831 99.4115C322.81 93.9405 327.209 88.9349 328.928 87.1189C330.705 88.3966 332.506 89.5618 334.392 90.6509C336.341 91.7763 338.376 92.8255 340.453 93.7308C337.136 103.469 331.769 106.449 331.769 106.449Z" fill="#A1C3E6" stroke="#111418" stroke-linecap="round" stroke-linejoin="round"/>
    <path d="M321.366 118.006C322.37 116.993 323.311 115.943 324.176 114.808" stroke="#111418" stroke-linecap="round" stroke-linejoin="round"/>
    <path d="M319.381 119.627C319.788 119.359 320.163 119.072 320.506 118.768" stroke="#111418" stroke-linecap="round" stroke-linejoin="round"/>
    <path d="M353.266 91.0683L350.924 95.1238C350.144 96.4757 347.295 96.2559 343.487 94.9377C342.547 94.6048 341.513 94.2174 340.484 93.749C338.408 92.8437 336.404 91.8127 334.423 90.6691C332.537 89.5801 330.705 88.3967 328.959 87.1372C328.071 86.4983 327.231 85.8461 326.473 85.1988C323.221 82.4827 321.498 80.021 322.315 78.6063L324.693 74.4879C328.841 78.2662 333.374 81.5958 338.198 84.4225C342.963 87.1319 348.001 89.3698 353.266 91.0683Z" fill="#1C2229" stroke="#111418" stroke-linecap="round" stroke-linejoin="round"/>
    <path d="M367.278 83.0616C365.451 85.8632 363.815 88.1884 362.542 89.8847C361.179 91.7383 358.833 92.606 356.607 92.0332C355.644 91.8128 354.525 91.5016 353.266 91.0682C348.001 89.3697 342.945 87.1633 338.166 84.4044C333.343 81.5776 328.81 78.248 324.661 74.4697C323.751 73.6507 322.985 72.8727 322.357 72.217C320.748 70.5753 320.327 68.1105 321.25 66.0028C322.096 64.1019 323.31 61.4911 324.823 58.508C328.312 51.5937 333.399 42.7098 339.358 36.0902C340.073 35.2874 340.802 34.5342 341.512 33.8125C345.799 29.5809 350.683 25.987 356.053 23.2191C360.016 26.3032 364.191 29.0909 368.529 31.5958C373.007 34.2229 377.684 36.5041 382.53 38.4213C382.796 44.2761 382.154 50.1089 380.692 55.7624C380.376 56.9632 379.992 58.2089 379.577 59.4363C376.667 67.8165 371.522 76.583 367.278 83.0616Z" fill="white" stroke="#111418" stroke-linecap="round" stroke-linejoin="round"/>
    <path d="M339.309 36.1036C333.38 42.7413 328.28 51.5756 324.791 58.4898L317.812 54.4603C317.309 54.1698 316.933 53.6594 316.787 53.1139C316.659 52.537 316.76 51.9251 317.082 51.4402C326.126 37.8821 339.309 36.1036 339.309 36.1036Z" fill="#FF8080" stroke="#111418" stroke-linecap="round" stroke-linejoin="round"/>
    <path d="M380.809 27.5349C381.765 31.1054 382.294 34.7641 382.48 38.4347C377.635 36.5174 372.957 34.2362 368.48 31.6092C364.141 29.1043 359.966 26.3164 356.004 23.2324C364.11 19.0673 371.089 17.9413 374.522 17.6594C375.896 17.5304 377.216 18.2927 377.841 19.5338C378.724 21.3433 379.459 23.1928 380.095 25.0688" fill="#FFEA80"/>
    <path d="M380.809 27.5349C381.765 31.1054 382.294 34.7641 382.48 38.4347C377.635 36.5174 372.957 34.2362 368.48 31.6092C364.141 29.1043 359.966 26.3164 356.004 23.2324C364.11 19.0673 371.089 17.9413 374.522 17.6594C375.896 17.5304 377.216 18.2927 377.841 19.5338C378.724 21.3433 379.459 23.1928 380.095 25.0688" stroke="#111418" stroke-linecap="round" stroke-linejoin="round"/>
    <path d="M377.516 25.7598C378.122 27.3249 378.659 28.9348 379.048 30.5845" stroke="#111418" stroke-linecap="round" stroke-linejoin="round"/>
    <path d="M367.278 83.0616C371.503 76.6144 376.649 67.8479 379.509 59.4809L379.595 59.4048C379.595 59.4048 384.66 71.7605 377.39 86.3847C377.131 86.9059 376.67 87.2686 376.125 87.4148C375.579 87.5609 374.98 87.5087 374.509 87.2364L367.278 83.0616Z" fill="#FF8080" stroke="#111418" stroke-linecap="round" stroke-linejoin="round"/>
    <path d="M377.251 77.0408C377.159 77.4906 377.067 77.9406 376.926 78.4037" stroke="#111418" stroke-linecap="round" stroke-linejoin="round"/>
    <path d="M377.655 71.4051C377.734 72.7923 377.67 74.1384 377.506 75.511" stroke="#111418" stroke-linecap="round" stroke-linejoin="round"/>
    <path d="M332.394 94.402C334.651 95.7052 339.48 91.5678 343.179 85.1608C346.878 78.7538 348.047 72.5033 345.79 71.2001C343.532 69.8969 338.704 74.0345 335.005 80.4415C331.306 86.8485 330.137 93.0988 332.394 94.402Z" fill="#FF8080" stroke="#111418" stroke-linecap="round" stroke-linejoin="round"/>
    <path d="M345.194 73.5391C345.21 74.89 344.966 76.2577 344.514 77.548" stroke="#111418" stroke-linecap="round" stroke-linejoin="round"/>
    <path d="M350.281 63.5654C355.959 66.8434 363.219 64.8982 366.497 59.2204C369.775 53.5427 367.83 46.2825 362.152 43.0045C356.475 39.7264 349.214 41.6718 345.936 47.3496C342.658 53.0273 344.604 60.2873 350.281 63.5654Z" fill="#6699CC" stroke="#111418" stroke-linecap="round" stroke-linejoin="round"/>
    <path d="M353.566 50.8326L353.483 55.4792" stroke="#111418" stroke-linecap="round" stroke-linejoin="round"/>
    <path d="M356.356 49.3411L356.222 57.2699" stroke="#111418" stroke-linecap="round" stroke-linejoin="round"/>
    <path d="M359.104 52.0594L359.061 54.6755" stroke="#111418" stroke-linecap="round" stroke-linejoin="round"/>
    <path d="M370.265 49.2814C370.473 50.1559 370.631 51.0437 370.708 51.9266" stroke="#111418" stroke-linecap="round" stroke-linejoin="round"/>
    <path d="M366.176 42.3514C367.638 43.7403 368.824 45.3891 369.622 47.2748" stroke="#111418" stroke-linecap="round" stroke-linejoin="round"/>
    <path d="M343.051 59.3906C341.792 56.7779 341.301 53.8535 341.701 50.9825" stroke="#111418" stroke-linecap="round" stroke-linejoin="round"/>
    <path d="M297.827 99.7198H322.234C327.878 99.7198 332.463 104.305 332.463 109.948V232.618H132.551V109.948C132.551 104.305 137.136 99.7198 142.85 99.7198H288.869" fill="#6699CC"/>
    <path d="M297.827 99.7198H322.234C327.878 99.7198 332.463 104.305 332.463 109.948V232.618H132.551V109.948C132.551 104.305 137.136 99.7198 142.85 99.7198H288.869" stroke="#111418" stroke-linecap="round" stroke-linejoin="round"/>
    <path d="M362.725 278.822H232.084H101.513L132.34 232.618H331.898L362.725 278.822Z" fill="#3674B3" stroke="#111418" stroke-linecap="round" stroke-linejoin="round"/>
    <path d="M362.725 278.822V284.607C362.725 286.723 361.878 288.698 360.397 290.179C358.915 291.66 356.87 292.507 354.824 292.507H111.107C108.567 292.507 106.099 291.519 104.335 289.685C102.572 287.851 101.513 285.453 101.513 282.913V278.822H362.725Z" fill="#0F3B66" stroke="#111418" stroke-linecap="round" stroke-linejoin="round"/>
    <path d="M137.63 110.936C137.63 107.056 140.804 103.882 144.684 103.882" stroke="#111418" stroke-linecap="round" stroke-linejoin="round"/>
    <path d="M326.749 110.936C326.749 107.056 323.575 103.882 319.695 103.882" stroke="#111418" stroke-linecap="round" stroke-linejoin="round"/>
    <path d="M328.512 263.445L335.284 271.838" stroke="#111418" stroke-linecap="round" stroke-linejoin="round"/>
    <path d="M327.243 267.324L330.911 271.838" stroke="#111418" stroke-linecap="round" stroke-linejoin="round"/>
    <path d="M333.521 256.672H131.211C130.576 256.743 129.871 256.39 129.518 255.826C129.165 255.261 129.165 254.556 129.447 253.922L138.053 239.742C138.9 238.402 140.381 237.626 141.933 237.626H322.799C324.351 237.626 325.832 238.402 326.678 239.742L335.284 253.922C335.637 254.486 335.567 255.261 335.214 255.826C334.861 256.39 334.226 256.672 333.521 256.672Z" fill="#6699CC" stroke="#111418" stroke-linecap="round" stroke-linejoin="round"/>
    <path opacity="0.3" d="M333.552 256.686H131.242C130.608 256.757 129.902 256.404 129.549 255.839C129.197 255.275 129.197 254.57 129.479 254.006L138.085 239.827C138.931 238.486 140.413 237.71 141.965 237.71H322.76C324.312 237.71 325.793 238.486 326.639 239.827L335.245 254.006C335.598 254.57 335.528 255.345 335.175 255.91C334.822 256.474 334.187 256.686 333.552 256.686Z" fill="white" stroke="#111418" stroke-linecap="round" stroke-linejoin="round"/>
    <path d="M135.867 243.411H328.865" stroke="#111418" stroke-linecap="round" stroke-linejoin="round"/>
    <path d="M132.41 249.901H332.322" stroke="#111418" stroke-linecap="round" stroke-linejoin="round"/>
    <path d="M141.157 256.672L151.597 237.697" stroke="#111418" stroke-linecap="round" stroke-linejoin="round"/>
    <path d="M155.336 256.672L164.365 237.697" stroke="#111418" stroke-linecap="round" stroke-linejoin="round"/>
    <path d="M169.514 256.531L176.639 237.697" stroke="#111418" stroke-linecap="round" stroke-linejoin="round"/>
    <path d="M183.481 256.743L189.195 237.697" stroke="#111418" stroke-linecap="round" stroke-linejoin="round"/>
    <path d="M197.096 256.672L202.034 237.697" stroke="#111418" stroke-linecap="round" stroke-linejoin="round"/>
    <path d="M210.992 256.672L214.096 237.697" stroke="#111418" stroke-linecap="round" stroke-linejoin="round"/>
    <path d="M225.312 256.672L226.441 237.697" stroke="#111418" stroke-linecap="round" stroke-linejoin="round"/>
    <path d="M323.222 256.531L312.923 237.838" stroke="#111418" stroke-linecap="round" stroke-linejoin="round"/>
    <path d="M309.043 256.531L300.014 237.697" stroke="#111418" stroke-linecap="round" stroke-linejoin="round"/>
    <path d="M294.865 256.39L287.74 237.697" stroke="#111418" stroke-linecap="round" stroke-linejoin="round"/>
    <path d="M280.898 256.602L275.184 237.697" stroke="#111418" stroke-linecap="round" stroke-linejoin="round"/>
    <path d="M267.283 256.531L262.416 237.838" stroke="#111418" stroke-linecap="round" stroke-linejoin="round"/>
    <path d="M253.387 256.531L250.354 237.979" stroke="#111418" stroke-linecap="round" stroke-linejoin="round"/>
    <path d="M238.997 256.531L237.939 237.979" stroke="#111418" stroke-linecap="round" stroke-linejoin="round"/>
    <path d="M250.354 262.034H255.221C256.985 262.034 258.536 263.021 259.383 264.573L263.051 271.768C263.263 272.191 263.263 272.685 262.981 273.108C262.698 273.531 262.275 273.743 261.852 273.743H202.457C201.963 273.743 201.54 273.531 201.328 273.108C201.117 272.685 201.046 272.191 201.258 271.768L204.926 264.573C205.702 263.021 207.324 262.034 209.088 262.034H244.499" fill="#0F5499"/>
    <path d="M250.354 262.034H255.221C256.985 262.034 258.536 263.021 259.383 264.573L263.051 271.768C263.263 272.191 263.263 272.685 262.981 273.108C262.698 273.531 262.275 273.743 261.852 273.743H202.457C201.963 273.743 201.54 273.531 201.328 273.108C201.117 272.685 201.046 272.191 201.258 271.768L204.926 264.573C205.702 263.021 207.324 262.034 209.088 262.034H244.499" stroke="#111418" stroke-linecap="round" stroke-linejoin="round"/>
    <path d="M321.388 109.525V117.073H142.78V109.525C142.78 109.102 143.062 108.82 143.485 108.82H320.753C321.106 108.82 321.388 109.173 321.388 109.525Z" fill="#A1C3E6" stroke="#111418" stroke-linecap="round" stroke-linejoin="round"/>
    <path d="M321.388 117.073V222.178C321.388 222.602 321.106 222.884 320.682 222.884H143.485C143.062 222.884 142.78 222.602 142.78 222.178V117.073H321.388Z" fill="white" stroke="#111418" stroke-linecap="round" stroke-linejoin="round"/>
    <path d="M204.919 155.284V175.919C204.919 176.046 204.861 176.174 204.746 176.27C204.63 176.366 204.476 176.414 204.322 176.414H160.622C160.256 176.414 159.967 176.174 159.967 175.871V134.282C159.967 134.138 160.025 134.01 160.16 133.914C160.275 133.819 160.43 133.771 160.603 133.771H166.595C166.942 133.771 167.212 133.994 167.212 134.282V141.16H174.187C174.36 141.16 174.514 141.208 174.649 141.319C174.784 141.431 174.842 141.559 174.842 141.703V145.804H182.453V128.425C182.453 128.121 182.742 127.882 183.108 127.882H189.408C189.775 127.882 190.064 128.121 190.064 128.425V137.681H196.884C197.116 137.681 197.308 137.84 197.308 138.032V154.805H204.341C204.669 154.805 204.919 155.012 204.919 155.284Z" fill="#1C2229" stroke="#111418" stroke-linecap="round" stroke-linejoin="round"/>
    <path d="M161.329 176.669V135.095C161.329 134.808 161.618 134.569 161.965 134.569H167.938C168.284 134.569 168.573 134.808 168.573 135.095V177.212H161.984C161.618 177.227 161.329 176.972 161.329 176.669Z" fill="#E7F3FF" stroke="#111418" stroke-linecap="round" stroke-linejoin="round"/>
    <path d="M168.573 177.227V141.99H175.548C175.722 141.99 175.895 142.054 176.011 142.149C176.126 142.245 176.204 142.389 176.204 142.532V177.227H168.573Z" fill="#A1C3E6" stroke="#111418" stroke-linecap="round" stroke-linejoin="round"/>
    <path d="M183.814 146.618H176.184V177.212H183.814V146.618Z" fill="#6699CC" stroke="#111418" stroke-linecap="round" stroke-linejoin="round"/>
    <path d="M191.425 134.585V177.227H183.814V129.238C183.814 128.935 184.103 128.696 184.469 128.696H190.77C191.136 128.696 191.425 128.935 191.425 129.238V132.781" fill="#3674B3"/>
    <path d="M191.425 134.585V177.227H183.814V129.238C183.814 128.935 184.103 128.696 184.469 128.696H190.77C191.136 128.696 191.425 128.935 191.425 129.238V132.781" stroke="#111418" stroke-linecap="round" stroke-linejoin="round"/>
    <path d="M191.425 177.227V138.511H198.246C198.477 138.511 198.67 138.67 198.67 138.862V177.243H191.425V177.227Z" fill="#0F5499" stroke="#111418" stroke-linecap="round" stroke-linejoin="round"/>
    <path d="M198.67 177.227V155.619H205.683C206.011 155.619 206.281 155.842 206.281 156.114V176.733C206.281 176.86 206.223 176.988 206.107 177.084C205.992 177.18 205.838 177.227 205.683 177.227H198.67Z" fill="#194C80" stroke="#111418" stroke-linecap="round" stroke-linejoin="round"/>
    <path d="M173.112 112.981H179.32" stroke="#111418" stroke-linecap="round" stroke-linejoin="round"/>
    <path d="M155.336 112.981H169.514" stroke="#111418" stroke-linecap="round" stroke-linejoin="round"/>
    <path d="M307.985 127.583H218.258V177.103H307.985V127.583Z" fill="#FF8080" stroke="#111418" stroke-linecap="round" stroke-linejoin="round"/>
    <path d="M307.985 172.87V177.103H303.753" stroke="#111418" stroke-linecap="round" stroke-linejoin="round"/>
    <path d="M294.724 177.103H227.005" stroke="#111418" stroke-linecap="round" stroke-linejoin="round"/>
    <path d="M222.49 177.103H218.258V172.87" stroke="#111418" stroke-linecap="round" stroke-linejoin="round"/>
    <path d="M218.258 164.688V135.907" stroke="#111418" stroke-linecap="round" stroke-linejoin="round"/>
    <path d="M218.258 131.816V127.583H222.49" stroke="#111418" stroke-linecap="round" stroke-linejoin="round"/>
    <path d="M231.52 127.583H299.168" stroke="#111418" stroke-linecap="round" stroke-linejoin="round"/>
    <path d="M303.753 127.583H307.985V131.816" stroke="#111418" stroke-linecap="round" stroke-linejoin="round"/>
    <path d="M307.985 139.999V168.779" stroke="#111418" stroke-linecap="round" stroke-linejoin="round"/>
    <path d="M284.284 143.173H297.475" stroke="#111418" stroke-linecap="round" stroke-linejoin="round"/>
    <path d="M229.544 143.173H278.006" stroke="#111418" stroke-linecap="round" stroke-linejoin="round"/>
    <path d="M229.544 152.343H297.475" stroke="#111418" stroke-linecap="round" stroke-linejoin="round"/>
    <path d="M250.354 161.514H297.475" stroke="#111418" stroke-linecap="round" stroke-linejoin="round"/>
    <path d="M229.544 161.514H244.428" stroke="#111418" stroke-linecap="round" stroke-linejoin="round"/>
    <path d="M307.985 187.754H155.336V208.846H307.985V187.754Z" fill="#FFF2B3" stroke="#111418" stroke-linecap="round" stroke-linejoin="round"/>
    <path d="M227.216 194.103L233.988 202.497" stroke="#111418" stroke-linecap="round" stroke-linejoin="round"/>
    <path d="M231.802 194.315L233.495 196.36" stroke="#111418" stroke-linecap="round" stroke-linejoin="round"/>
    <path d="M225.947 197.982L229.544 202.497" stroke="#111418" stroke-linecap="round" stroke-linejoin="round"/>
    <path d="M102.134 134.621H146.885C150.369 134.621 153.207 137.459 153.207 140.942V238.49C153.207 241.974 150.369 244.847 146.885 244.847H102.134C98.6503 244.847 95.813 242.01 95.813 238.49V140.942C95.813 139.254 96.4954 137.638 97.6806 136.453C98.8299 135.268 100.446 134.621 102.134 134.621Z" fill="#FFF2B3" stroke="#111418" stroke-linecap="round" stroke-linejoin="round"/>
    <path d="M143.853 163.654V176.195C143.853 176.273 143.805 176.35 143.707 176.408C143.61 176.467 143.48 176.496 143.35 176.496H106.552C106.243 176.496 106 176.35 106 176.166V150.889C106 150.802 106.049 150.725 106.162 150.666C106.26 150.608 106.389 150.579 106.535 150.579H111.581C111.874 150.579 112.101 150.715 112.101 150.889V155.07H117.974C118.12 155.07 118.25 155.099 118.364 155.167C118.477 155.235 118.526 155.312 118.526 155.4V157.892H124.935V147.33C124.935 147.146 125.178 147 125.486 147H130.792C131.1 147 131.344 147.146 131.344 147.33V152.955H137.088C137.282 152.955 137.444 153.052 137.444 153.169V163.363H143.367C143.642 163.363 143.853 163.489 143.853 163.654Z" fill="#1C2229" stroke="#111418" stroke-linecap="round" stroke-linejoin="round"/>
    <path d="M107.147 176.651V151.384C107.147 151.21 107.39 151.064 107.682 151.064H112.712C113.004 151.064 113.247 151.21 113.247 151.384V176.981H107.698C107.39 176.99 107.147 176.835 107.147 176.651Z" fill="#E7F3FF" stroke="#111418" stroke-linecap="round" stroke-linejoin="round"/>
    <path d="M113.247 176.99V155.574H119.121C119.267 155.574 119.413 155.613 119.51 155.671C119.608 155.729 119.672 155.817 119.672 155.904V176.99H113.247Z" fill="#A1C3E6" stroke="#111418" stroke-linecap="round" stroke-linejoin="round"/>
    <path d="M126.081 158.387H119.656V176.981H126.081V158.387Z" fill="#6699CC" stroke="#111418" stroke-linecap="round" stroke-linejoin="round"/>
    <path d="M132.49 151.074V176.99H126.081V147.824C126.081 147.64 126.325 147.495 126.633 147.495H131.939C132.247 147.495 132.49 147.64 132.49 147.824V149.978" fill="#3674B3"/>
    <path d="M132.49 151.074V176.99H126.081V147.824C126.081 147.64 126.325 147.495 126.633 147.495H131.939C132.247 147.495 132.49 147.64 132.49 147.824V149.978" stroke="#111418" stroke-linecap="round" stroke-linejoin="round"/>
    <path d="M132.49 176.99V153.46H138.234C138.429 153.46 138.591 153.557 138.591 153.673V177H132.49V176.99Z" fill="#0F5499" stroke="#111418" stroke-linecap="round" stroke-linejoin="round"/>
    <path d="M138.591 176.99V163.857H144.497C144.773 163.857 145 163.993 145 164.158V176.69C145 176.767 144.951 176.845 144.854 176.903C144.757 176.961 144.627 176.99 144.497 176.99H138.591Z" fill="#194C80" stroke="#111418" stroke-linecap="round" stroke-linejoin="round"/>
    <path d="M99.2969 140.942C99.2969 138.967 100.913 137.351 102.888 137.351" stroke="#111418" stroke-linecap="round" stroke-linejoin="round"/>
    <path d="M149.687 238.382C149.687 239.352 149.328 240.25 148.645 240.932C147.963 241.615 147.065 241.974 146.095 241.974" stroke="#111418" stroke-linecap="round" stroke-linejoin="round"/>
    <path d="M146.814 131.604H102.17C97.1779 131.604 93.1194 135.663 93.1194 140.655V238.813C93.1194 243.805 97.1779 247.864 102.17 247.9H146.814C151.842 247.9 155.9 243.841 155.9 238.813V140.655C155.9 135.663 151.842 131.604 146.814 131.604ZM153.207 238.526C153.207 242.01 150.369 244.883 146.85 244.883H102.098C98.6145 244.883 95.7772 242.046 95.7772 238.526V140.979C95.7772 137.495 98.6145 134.657 102.098 134.657H111.293V136.417C111.293 137.818 112.442 138.967 113.843 138.967H135.069C136.47 138.967 137.619 137.818 137.619 136.417V134.657H146.814C150.297 134.657 153.171 137.495 153.171 140.979V238.526H153.207Z" fill="#1C2229" stroke="#111418" stroke-linecap="round" stroke-linejoin="round"/>
    <path d="M130.256 136.597H131.549" stroke="#111418" stroke-linecap="round" stroke-linejoin="round"/>
    <path d="M116.285 136.597H126.665" stroke="#111418" stroke-linecap="round" stroke-linejoin="round"/>
    <path d="M108.24 187.274H140.564C142.073 187.274 143.294 188.495 143.294 190.004V200.85C143.294 202.358 142.073 203.58 140.564 203.58H108.24C106.731 203.58 105.51 202.358 105.51 200.85V190.004C105.51 188.495 106.731 187.274 108.24 187.274Z" fill="#A1C3E6" stroke="#111418" stroke-linecap="round" stroke-linejoin="round"/>
    <path d="M110.898 192.697H137.871" stroke="#111418" stroke-linecap="round" stroke-linejoin="round"/>
    <path d="M132.483 197.869H137.871" stroke="#111418" stroke-linecap="round" stroke-linejoin="round"/>
    <path d="M110.898 197.869H129.682" stroke="#111418" stroke-linecap="round" stroke-linejoin="round"/>
    <path d="M108.24 212.2H140.564C142.073 212.2 143.294 213.421 143.294 214.929V219.778C143.294 221.286 142.073 222.508 140.564 222.508H108.24C106.731 222.508 105.51 221.286 105.51 219.778V214.929C105.51 213.421 106.731 212.2 108.24 212.2Z" fill="#6699CC" stroke="#111418" stroke-linecap="round" stroke-linejoin="round"/>
    <path d="M111.041 217.336H137.978" stroke="#111418" stroke-linecap="round" stroke-linejoin="round"/>
    <path d="M107.091 232.528L110.395 236.443" stroke="#111418" stroke-linecap="round" stroke-linejoin="round"/>
    <path d="M109.389 232.672L110.215 233.641" stroke="#111418" stroke-linecap="round" stroke-linejoin="round"/>
    <path d="M106.408 234.288L108.168 236.407" stroke="#111418" stroke-linecap="round" stroke-linejoin="round"/>
    <path d="M276.558 163.932L287.145 198.783L292.439 191.325L312.61 213.444L313.417 208.386L313.515 207.639L313.988 204.628L323.276 204.864L305.88 187.113L302.102 183.237L310.032 180.344L276.558 163.932Z" fill="#A1C3E6" stroke="#111418" stroke-linecap="round" stroke-linejoin="round"/>
    <path d="M313.417 208.386L321.643 208.209L323.276 204.864L313.988 204.628L313.516 207.639L313.417 208.386Z" fill="#3674B3" stroke="#111418" stroke-linecap="round" stroke-linejoin="round"/>
    <path d="M275.043 168.891L285.552 205.336C285.591 205.494 285.729 205.592 285.886 205.631C286.044 205.651 286.201 205.592 286.28 205.454L292.656 197.425L310.505 217.38C310.603 217.498 310.741 217.537 310.898 217.517C311.036 217.498 311.154 217.4 311.213 217.262L312.63 213.424L292.459 191.305L287.165 198.764L276.578 163.912L275.043 168.891Z" fill="#3674B3" stroke="#111418" stroke-linecap="round" stroke-linejoin="round"/>
    <path d="M302.102 183.237L305.152 186.346L309.462 185.165C309.757 185.086 309.973 184.811 309.973 184.516L310.032 180.344L302.102 183.237Z" fill="#3674B3" stroke="#111418" stroke-linecap="round" stroke-linejoin="round"/>
    <path d="M289.192 176.585C289.625 177.667 290.472 179.872 290.472 179.872" stroke="#111418" stroke-linecap="round" stroke-linejoin="round"/>
    <path d="M290.53 177.412C290.688 177.805 290.944 178.455 291.121 178.907" stroke="#111418" stroke-linecap="round" stroke-linejoin="round"/>
    <path d="M288.818 178.081C288.877 178.218 288.995 178.514 289.251 179.143" stroke="#111418" stroke-linecap="round" stroke-linejoin="round"/>
    </svg>