<svg width="380" height="380" viewBox="0 0 450 415" fill="none" xmlns="http://www.w3.org/2000/svg">
    <path d="M258.029 92.4176C258.029 113.55 240.912 130.654 219.763 130.654H219.234L74.5626 130.126C61.6089 130.06 49.8448 122.597 44.2932 110.909C38.7416 99.2196 40.3939 85.3512 48.523 75.3133C56.6521 65.2093 69.8702 60.7189 82.4273 63.6907C74.5626 38.6619 88.045 11.9159 112.829 3.39689C137.613 -5.12214 164.776 7.62338 173.962 32.1238C182.29 26.0483 193.327 25.1897 202.447 29.8125C211.634 34.5012 217.384 43.8787 217.384 54.1808V54.2469C218.177 54.1809 218.904 54.1808 219.697 54.1808C240.912 54.1808 258.029 71.2851 258.029 92.4176Z" fill="white" stroke="#0D052C" stroke-linecap="round" stroke-linejoin="round"/>
    <path d="M174.029 32.0579C176.011 37.4731 177.069 43.1525 177.069 48.9639C177.069 50.6809 177.003 52.3981 176.804 54.1151" fill="white"/>
    <path d="M174.029 32.0579C176.011 37.4731 177.069 43.1525 177.069 48.9639C177.069 50.6809 177.003 52.3981 176.804 54.1151" stroke="#0D052C" stroke-linecap="round" stroke-linejoin="round"/>
    <path d="M82.4275 63.6247C87.7808 64.9454 92.8037 67.5209 96.9013 71.153L82.4275 63.6247Z" fill="white"/>
    <path d="M82.4275 63.6247C87.7808 64.9454 92.8037 67.5209 96.9013 71.153" stroke="#0D052C" stroke-linecap="round" stroke-linejoin="round"/>
    <path d="M204.1 57.4829C209.056 55.3036 214.344 54.1152 219.763 54.1152L204.1 57.4829Z" fill="white"/>
    <path d="M204.1 57.4829C209.056 55.3036 214.344 54.1152 219.763 54.1152" stroke="#0D052C" stroke-linecap="round" stroke-linejoin="round"/>
    <path d="M58.3046 110.314C53.8766 106.418 51.2991 100.738 51.2991 94.861C51.2991 93.6723 51.4313 92.5498 51.6295 91.3611" fill="white"/>
    <path d="M58.3046 110.314C53.8766 106.418 51.2991 100.738 51.2991 94.861C51.2991 93.6723 51.4313 92.5498 51.6295 91.3611" stroke="#0D052C" stroke-linecap="round" stroke-linejoin="round"/>
    <path d="M105.295 19.8406C106.551 19.1142 107.938 18.5859 109.392 18.1896L105.295 19.8406Z" fill="white"/>
    <path d="M105.295 19.8406C106.551 19.1142 107.938 18.5859 109.392 18.1896" stroke="#0D052C" stroke-linecap="round" stroke-linejoin="round"/>
    <path d="M94.9847 36.4165C94.9847 30.8032 98.1571 25.256 102.585 21.6238L94.9847 36.4165Z" fill="white"/>
    <path d="M94.9847 36.4165C94.9847 30.8032 98.1571 25.256 102.585 21.6238" stroke="#0D052C" stroke-linecap="round" stroke-linejoin="round"/>
    <path d="M202.117 92.5496L206.611 100.607" stroke="#0D052C" stroke-linecap="round" stroke-linejoin="round"/>
    <path d="M205.488 87.2004L213.088 100.937" stroke="#0D052C" stroke-linecap="round" stroke-linejoin="round"/>
    <path d="M212.823 89.1816L215.401 93.6724" stroke="#0D052C" stroke-linecap="round" stroke-linejoin="round"/>
    <path d="M422.521 96.7012H108.813V315.839H422.521V96.7012Z" fill="#E7F3FF" stroke="#111418" stroke-linecap="round" stroke-linejoin="round"/>
    <path d="M129.695 96.7011V315.873" stroke="#111418" stroke-linecap="round" stroke-linejoin="round"/>
    <path d="M108.813 96.7012H422.521" stroke="#111418" stroke-linecap="round" stroke-linejoin="round"/>
    <path d="M150.611 96.7011V315.873" stroke="#111418" stroke-linecap="round" stroke-linejoin="round"/>
    <path d="M171.527 96.7011V315.873" stroke="#111418" stroke-linecap="round" stroke-linejoin="round"/>
    <path d="M192.443 315.873V96.7011" stroke="#111418" stroke-linecap="round" stroke-linejoin="round"/>
    <path d="M213.359 96.7011V315.873" stroke="#111418" stroke-linecap="round" stroke-linejoin="round"/>
    <path d="M108.813 118.615H422.521" stroke="#111418" stroke-linecap="round" stroke-linejoin="round"/>
    <path d="M108.813 140.529H422.521" stroke="#111418" stroke-linecap="round" stroke-linejoin="round"/>
    <path d="M108.813 162.477H422.521" stroke="#111418" stroke-linecap="round" stroke-linejoin="round"/>
    <path d="M108.813 184.356H422.521" stroke="#111418" stroke-linecap="round" stroke-linejoin="round"/>
    <path d="M108.813 206.27H422.521" stroke="#111418" stroke-linecap="round" stroke-linejoin="round"/>
    <path d="M234.275 96.7011V315.873" stroke="#111418" stroke-linecap="round" stroke-linejoin="round"/>
    <path d="M255.191 96.7011V315.873" stroke="#111418" stroke-linecap="round" stroke-linejoin="round"/>
    <path d="M276.108 96.7011V315.873" stroke="#111418" stroke-linecap="round" stroke-linejoin="round"/>
    <path d="M297.024 96.7011V315.873" stroke="#111418" stroke-linecap="round" stroke-linejoin="round"/>
    <path d="M317.94 96.7011V315.873" stroke="#111418" stroke-linecap="round" stroke-linejoin="round"/>
    <path d="M338.856 96.7011V315.873" stroke="#111418" stroke-linecap="round" stroke-linejoin="round"/>
    <path d="M359.772 96.7011V315.873" stroke="#111418" stroke-linecap="round" stroke-linejoin="round"/>
    <path d="M380.688 96.7011V315.873" stroke="#111418" stroke-linecap="round" stroke-linejoin="round"/>
    <path d="M401.604 96.7011V315.873" stroke="#111418" stroke-linecap="round" stroke-linejoin="round"/>
    <path d="M108.882 228.218H422.383" stroke="#111418" stroke-linecap="round" stroke-linejoin="round"/>
    <path d="M108.916 250.132H422.383" stroke="#111418" stroke-linecap="round" stroke-linejoin="round"/>
    <path d="M108.916 272.046H422.383" stroke="#111418" stroke-linecap="round" stroke-linejoin="round"/>
    <path d="M108.916 293.96H422.383" stroke="#111418" stroke-linecap="round" stroke-linejoin="round"/>
    <path d="M179.198 170.217C181.985 173.141 187.558 179.162 187.558 179.162" stroke="#111418" stroke-linecap="round" stroke-linejoin="round"/>
    <path d="M184.599 171.112C185.597 172.178 187.248 173.933 188.418 175.171" stroke="#111418" stroke-linecap="round" stroke-linejoin="round"/>
    <path d="M179.955 175.515C180.299 175.859 181.056 176.65 182.707 178.405" stroke="#111418" stroke-linecap="round" stroke-linejoin="round"/>
    <path d="M422.521 81.2548H108.813V96.7355H422.521V81.2548Z" fill="white" stroke="#111418" stroke-linecap="round" stroke-linejoin="round"/>
    <path d="M124.259 84.8327H116.312V93.0891H124.259V84.8327Z" fill="white" stroke="#111418" stroke-linecap="round" stroke-linejoin="round"/>
    <path d="M118.101 91.0937H122.47" stroke="#111418" stroke-linecap="round" stroke-linejoin="round"/>
    <path d="M140.841 84.8327H132.894V93.0891H140.841V84.8327Z" fill="white" stroke="#111418" stroke-linecap="round" stroke-linejoin="round"/>
    <path d="M138.88 86.8968H134.889V91.025H138.88V86.8968Z" stroke="#111418" stroke-linecap="round" stroke-linejoin="round"/>
    <path d="M157.457 84.8327H149.51V93.0891H157.457V84.8327Z" fill="white" stroke="#111418" stroke-linecap="round" stroke-linejoin="round"/>
    <path d="M151.505 86.8968L155.496 91.0593" stroke="#111418" stroke-linecap="round" stroke-linejoin="round"/>
    <path d="M151.505 91.0593L155.496 86.8968" stroke="#111418" stroke-linecap="round" stroke-linejoin="round"/>
    <path d="M259.66 41.8097C266.983 48.7061 271.142 58.34 271.107 68.4003C271.107 77.2875 266.947 84.646 261.402 93.3554C256.887 100.43 253.474 107.042 251.804 114.472C251.341 116.676 249.386 118.24 247.147 118.24H221.907C219.667 118.24 217.748 116.676 217.25 114.472C215.579 107.042 212.167 100.43 207.652 93.3554C202.106 84.646 197.983 77.2875 197.983 68.4003C197.983 54.8562 205.483 42.4141 217.428 36.0864C229.408 29.7587 243.912 30.5408 255.11 38.1838" fill="#FFE483"/>
    <path d="M259.66 41.8097C266.983 48.7061 271.142 58.34 271.107 68.4003C271.107 77.2875 266.947 84.646 261.402 93.3554C256.887 100.43 253.474 107.042 251.804 114.472C251.341 116.676 249.386 118.24 247.147 118.24H221.907C219.667 118.24 217.748 116.676 217.25 114.472C215.579 107.042 212.167 100.43 207.652 93.3554C202.106 84.646 197.983 77.2875 197.983 68.4003C197.983 54.8562 205.483 42.4141 217.428 36.0864C229.408 29.7587 243.912 30.5408 255.11 38.1838" stroke="#0D052C" stroke-width="1.5" stroke-linecap="round" stroke-linejoin="round"/>
    <path d="M238.331 104.411C237.869 112.267 237.549 118.275 237.549 118.275" stroke="#0D052C" stroke-width="1.5" stroke-linecap="round" stroke-linejoin="round"/>
    <path d="M231.576 118.24C231.576 118.24 230.794 104.376 230.012 91.1515C229.23 77.9273 225.035 76.3987 222.547 79.3848C221.303 80.8779 221.623 82.0509 222.263 82.8685C222.903 83.6861 223.862 84.1483 224.893 84.1483H244.232C245.263 84.1483 246.223 83.6861 246.862 82.8685C247.502 82.0509 247.822 80.8779 246.578 79.3848C244.09 76.3987 239.895 77.8918 239.113 91.1515C238.899 94.6708 238.686 98.2612 238.508 101.603" stroke="#0D052C" stroke-width="1.5" stroke-linecap="round" stroke-linejoin="round"/>
    <path d="M256.283 53.3985C257.171 54.7849 257.918 56.278 258.487 57.8421" stroke="#0D052C" stroke-width="1.5" stroke-linecap="round" stroke-linejoin="round"/>
    <path d="M243.77 43.8004C248.284 45.2224 252.23 47.9953 255.11 51.7279" stroke="#0D052C" stroke-width="1.5" stroke-linecap="round" stroke-linejoin="round"/>
    <path d="M220.77 118.24H248.355V126.132C248.355 127.411 247.858 128.62 246.969 129.509C246.08 130.397 244.872 130.895 243.592 130.895H225.533C224.253 130.895 223.045 130.397 222.156 129.509C221.267 128.62 220.77 127.411 220.77 126.132V118.24Z" fill="white" stroke="#0D052C" stroke-width="1.5" stroke-linecap="round" stroke-linejoin="round"/>
    <path d="M242.988 122.328H248.355" stroke="#0D052C" stroke-width="1.5" stroke-linecap="round" stroke-linejoin="round"/>
    <path d="M220.77 122.328H240.428" stroke="#0D052C" stroke-width="1.5" stroke-linecap="round" stroke-linejoin="round"/>
    <path d="M220.77 126.416H248.355" stroke="#0D052C" stroke-width="1.5" stroke-linecap="round" stroke-linejoin="round"/>
    <path d="M232.927 58.1976L236.553 73.4126" stroke="#0D052C" stroke-width="1.5" stroke-linecap="round" stroke-linejoin="round"/>
    <path d="M236.66 59.9041L239.148 70.3554" stroke="#0D052C" stroke-width="1.5" stroke-linecap="round" stroke-linejoin="round"/>
    <path d="M230.19 60.6151L232.821 71.7418" stroke="#0D052C" stroke-width="1.5" stroke-linecap="round" stroke-linejoin="round"/>
    <path d="M241.139 61.9303L227.773 69.0045" stroke="#0D052C" stroke-width="1.5" stroke-linecap="round" stroke-linejoin="round"/>
    <path d="M235.985 61.006L229.23 64.5608" stroke="#0D052C" stroke-width="1.5" stroke-linecap="round" stroke-linejoin="round"/>
    <path d="M241.033 65.6629L233.425 69.68" stroke="#0D052C" stroke-width="1.5" stroke-linecap="round" stroke-linejoin="round"/>
    <path d="M218.85 50.6614C218.139 50.8036 215.437 51.5857 214.655 55.105C214.655 55.105 214.655 55.1404 214.62 55.1404C214.584 55.1404 214.584 55.1405 214.584 55.105C213.802 51.5857 211.1 50.8036 210.389 50.6614C210.389 50.6614 210.354 50.6614 210.354 50.6258C210.354 50.6258 210.354 50.5902 210.389 50.5902C211.1 50.448 213.802 49.6659 214.584 46.111C214.584 46.111 214.584 46.0755 214.62 46.0755C214.655 46.0755 214.655 46.0755 214.655 46.111C215.437 49.6304 218.139 50.4125 218.85 50.5902C218.885 50.6258 218.885 50.6258 218.85 50.6614C218.885 50.6614 218.885 50.6614 218.85 50.6614Z" fill="white"/>
    <path d="M218.85 50.6614C218.139 50.8036 215.437 51.5857 214.655 55.105C214.655 55.105 214.655 55.1404 214.62 55.1404C214.584 55.1404 214.584 55.1405 214.584 55.105C213.802 51.5857 211.1 50.8036 210.389 50.6614C210.389 50.6614 210.354 50.6614 210.354 50.6258C210.354 50.6258 210.354 50.5902 210.389 50.5902C211.1 50.448 213.802 49.6659 214.584 46.111C214.584 46.111 214.584 46.0755 214.62 46.0755C214.655 46.0755 214.655 46.0755 214.655 46.111C215.437 49.6304 218.139 50.4125 218.85 50.5902C218.885 50.6258 218.885 50.6258 218.85 50.6614ZM218.85 50.6614C218.885 50.6614 218.885 50.6614 218.85 50.6614Z" stroke="#0D052C" stroke-width="1.5" stroke-linecap="round" stroke-linejoin="round"/>
    <path d="M223.258 57.8422C221.978 58.1266 220.983 59.1575 220.77 60.4728C220.77 60.4728 220.77 60.5084 220.734 60.5084C220.699 60.5084 220.699 60.5084 220.699 60.4728C220.485 59.1575 219.49 58.1266 218.21 57.8422C218.21 57.8422 218.175 57.8422 218.175 57.8067C218.175 57.8067 218.175 57.8067 218.21 57.8067C218.637 57.7356 220.236 57.2735 220.699 55.1761C220.699 55.1761 220.699 55.1761 220.734 55.1761C220.77 55.1761 220.77 55.1761 220.77 55.1761C221.232 57.2735 222.831 57.7356 223.258 57.8067C223.258 57.8067 223.294 57.8067 223.258 57.8422C223.294 57.8422 223.258 57.8422 223.258 57.8422Z" fill="white"/>
    <path d="M223.258 57.8422C221.978 58.1266 220.983 59.1575 220.77 60.4728C220.77 60.4728 220.77 60.5084 220.734 60.5084C220.699 60.5084 220.699 60.5084 220.699 60.4728C220.485 59.1575 219.49 58.1266 218.21 57.8422C218.21 57.8422 218.175 57.8422 218.175 57.8067C218.175 57.8067 218.175 57.8067 218.21 57.8067C218.637 57.7356 220.236 57.2735 220.699 55.1761C220.699 55.1761 220.699 55.1761 220.734 55.1761C220.77 55.1761 220.77 55.1761 220.77 55.1761C221.232 57.2735 222.831 57.7356 223.258 57.8067C223.258 57.8067 223.294 57.8067 223.258 57.8422ZM223.258 57.8422C223.294 57.8422 223.258 57.8422 223.258 57.8422Z" stroke="#0D052C" stroke-width="1.5" stroke-linecap="round" stroke-linejoin="round"/>
    <path d="M347.885 330.978C383.403 330.978 412.197 302.185 412.197 266.666C412.197 231.148 383.403 202.355 347.885 202.355C312.366 202.355 283.573 231.148 283.573 266.666C283.573 302.185 312.366 330.978 347.885 330.978Z" fill="#0F5499" stroke="#111418" stroke-linecap="round" stroke-linejoin="round"/>
    <path d="M418.067 246.996C428.493 279.941 411.013 315.251 378.507 326.904C346.001 338.557 310.077 322.392 297.197 290.323C284.317 258.255 299.168 221.762 330.755 207.699C362.341 193.68 399.36 207.13 414.562 238.147" fill="#6699CC"/>
    <path d="M418.067 246.996C428.493 279.941 411.013 315.251 378.507 326.904C346.001 338.557 310.077 322.392 297.197 290.323C284.317 258.255 299.168 221.762 330.755 207.699C362.341 193.68 399.36 207.13 414.562 238.147" stroke="#111418" stroke-linecap="round" stroke-linejoin="round"/>
    <path d="M356.602 202.048V330.935" stroke="#111418" stroke-linecap="round" stroke-linejoin="round"/>
    <path d="M356.603 330.935C376.951 330.935 393.446 302.082 393.446 266.491C393.446 230.9 376.951 202.048 356.603 202.048C336.254 202.048 319.759 230.9 319.759 266.491C319.759 302.082 336.254 330.935 356.603 330.935Z" stroke="#111418" stroke-linecap="round" stroke-linejoin="round"/>
    <path d="M292.159 266.491H421.046" stroke="#111418" stroke-linecap="round" stroke-linejoin="round"/>
    <path d="M403.61 222.375C392.088 229.473 375.265 233.941 356.602 233.941C337.94 233.941 321.161 229.473 309.595 222.375C321.774 209.408 338.772 202.004 356.602 202.004C374.433 202.004 391.431 209.408 403.61 222.375Z" stroke="#111418" stroke-linecap="round" stroke-linejoin="round"/>
    <path d="M403.61 310.563C391.431 323.531 374.433 330.935 356.602 330.935C338.772 330.935 321.774 323.575 309.595 310.563C321.161 303.466 337.94 298.998 356.602 298.998C375.265 298.998 392.044 303.51 403.61 310.563Z" stroke="#111418" stroke-linecap="round" stroke-linejoin="round"/>
    <path d="M368.562 249.143L371.585 254.619" stroke="#111418" stroke-linecap="round" stroke-linejoin="round"/>
    <path d="M370.841 245.55L375.966 254.838" stroke="#111418" stroke-linecap="round" stroke-linejoin="round"/>
    <path d="M375.791 246.865L377.5 249.931" stroke="#111418" stroke-linecap="round" stroke-linejoin="round"/>
    <path d="M374.673 322.585C374.673 330.029 380.702 336.054 388.152 336.054H388.339L439.301 335.868C443.864 335.845 448.008 333.216 449.963 329.098C451.919 324.981 451.337 320.096 448.473 316.56C445.61 313 440.954 311.419 436.53 312.465C439.301 303.649 434.551 294.227 425.821 291.226C417.091 288.225 407.522 292.715 404.286 301.346C401.353 299.206 397.465 298.903 394.252 300.532C391.016 302.183 388.991 305.486 388.991 309.115V309.139C388.711 309.116 388.455 309.115 388.176 309.115C380.702 309.115 374.673 315.141 374.673 322.585Z" fill="white" stroke="#0D052C" stroke-linecap="round" stroke-linejoin="round"/>
    <path d="M404.263 301.322C403.565 303.23 403.192 305.231 403.192 307.278C403.192 307.883 403.215 308.488 403.285 309.092" fill="white"/>
    <path d="M404.263 301.322C403.565 303.23 403.192 305.231 403.192 307.278C403.192 307.883 403.215 308.488 403.285 309.092" stroke="#0D052C" stroke-linecap="round" stroke-linejoin="round"/>
    <path d="M436.531 312.442C434.645 312.907 432.875 313.815 431.432 315.094L436.531 312.442Z" fill="white"/>
    <path d="M436.531 312.442C434.645 312.907 432.875 313.815 431.432 315.094" stroke="#0D052C" stroke-linecap="round" stroke-linejoin="round"/>
    <path d="M393.67 310.279C391.924 309.511 390.061 309.092 388.152 309.092L393.67 310.279Z" fill="white"/>
    <path d="M393.67 310.279C391.924 309.511 390.061 309.092 388.152 309.092" stroke="#0D052C" stroke-linecap="round" stroke-linejoin="round"/>
    <path d="M445.028 328.889C446.587 327.516 447.495 325.516 447.495 323.445C447.495 323.027 447.449 322.631 447.379 322.213" fill="white"/>
    <path d="M445.028 328.889C446.587 327.516 447.495 325.516 447.495 323.445C447.495 323.027 447.449 322.631 447.379 322.213" stroke="#0D052C" stroke-linecap="round" stroke-linejoin="round"/>
    <path d="M428.475 297.019C428.033 296.763 427.544 296.577 427.031 296.437L428.475 297.019Z" fill="white"/>
    <path d="M428.475 297.019C428.033 296.763 427.544 296.577 427.031 296.437" stroke="#0D052C" stroke-linecap="round" stroke-linejoin="round"/>
    <path d="M432.107 302.858C432.107 300.88 430.989 298.926 429.43 297.647L432.107 302.858Z" fill="white"/>
    <path d="M432.107 302.858C432.107 300.88 430.989 298.926 429.43 297.647" stroke="#0D052C" stroke-linecap="round" stroke-linejoin="round"/>
    <path d="M394.368 322.631L392.785 325.469" stroke="#0D052C" stroke-linecap="round" stroke-linejoin="round"/>
    <path d="M393.181 320.747L390.504 325.586" stroke="#0D052C" stroke-linecap="round" stroke-linejoin="round"/>
    <path d="M390.597 321.445L389.689 323.027" stroke="#0D052C" stroke-linecap="round" stroke-linejoin="round"/>
    <path d="M440.341 21.7073V179.515C440.341 180.181 439.786 180.736 439.119 180.736H308.566C307.9 180.736 307.345 180.181 307.345 179.515V21.7073C307.345 21.4298 307.456 21.2076 307.622 20.9856C307.789 20.819 308.066 20.708 308.344 20.708H439.342C439.619 20.708 439.841 20.819 440.063 20.9856C440.285 21.1521 440.341 21.4298 440.341 21.7073Z" fill="#111418" stroke="#111418" stroke-linecap="round" stroke-linejoin="round"/>
    <path d="M436.122 38.6372V183.012C436.122 183.345 436.011 183.678 435.789 183.9C435.567 184.122 435.234 184.289 434.901 184.289H304.403C304.07 184.289 303.737 184.178 303.515 183.9C303.293 183.678 303.182 183.345 303.182 183.012V38.6372H436.122Z" fill="white" stroke="#111418" stroke-linecap="round" stroke-linejoin="round"/>
    <path d="M322.665 57.6761H342.037C343.036 57.6761 343.813 58.5088 343.813 59.4524V78.8245C343.813 79.8236 342.981 80.6008 342.037 80.6008H322.665C321.666 80.6008 320.889 79.7681 320.889 78.8245V59.4524C320.889 58.4533 321.666 57.6761 322.665 57.6761Z" fill="#FFF2B3" stroke="#111418" stroke-linecap="round" stroke-linejoin="round"/>
    <path d="M326.384 67.1122L331.546 74.8832C331.602 74.9387 331.657 74.9943 331.713 74.9943C331.768 74.9943 331.824 74.9387 331.879 74.8832L338.318 63.3933" stroke="#111418" stroke-width="1.5" stroke-linecap="round" stroke-linejoin="round"/>
    <path d="M321.888 95.8098H342.814C343.369 95.8098 343.813 96.2537 343.813 96.8088V117.735C343.813 118.29 343.369 118.734 342.814 118.734H321.888C321.333 118.734 320.889 118.29 320.889 117.735V96.8088C320.889 96.2537 321.333 95.8098 321.888 95.8098Z" fill="#FFF2B3" stroke="#111418" stroke-linecap="round" stroke-linejoin="round"/>
    <path d="M326.384 105.191L331.546 112.962C331.602 113.017 331.657 113.073 331.713 113.073C331.768 113.073 331.824 113.017 331.879 112.962L338.318 101.471" stroke="#111418" stroke-width="1.5" stroke-linecap="round" stroke-linejoin="round"/>
    <path d="M321.832 133.943H342.87C343.369 133.943 343.813 134.388 343.813 134.887V155.924C343.813 156.479 343.369 156.868 342.87 156.868H321.832C321.333 156.868 320.889 156.424 320.889 155.924V134.887C320.889 134.388 321.277 133.943 321.832 133.943Z" fill="#FFF2B3" stroke="#111418" stroke-linecap="round" stroke-linejoin="round"/>
    <path d="M326.551 143.324L331.713 151.095C331.768 151.151 331.824 151.206 331.879 151.206C331.935 151.206 331.99 151.151 332.046 151.095L338.54 139.605" stroke="#111418" stroke-width="1.5" stroke-linecap="round" stroke-linejoin="round"/>
    <path d="M411.867 24.1495H435.181C435.458 24.1495 435.68 24.2606 435.902 24.4271C436.124 24.5936 436.18 24.871 436.18 25.1486V38.5815H303.184V25.1486C303.184 24.871 303.295 24.5936 303.461 24.4271C303.628 24.205 303.905 24.094 304.183 24.094H403.93" fill="#FF8080"/>
    <path d="M411.867 24.1495H435.181C435.458 24.1495 435.68 24.2606 435.902 24.4271C436.124 24.5936 436.18 24.871 436.18 25.1486V38.5815H303.184V25.1486C303.184 24.871 303.295 24.5936 303.461 24.4271C303.628 24.205 303.905 24.094 304.183 24.094H403.93" stroke="#111418" stroke-linecap="round" stroke-linejoin="round"/>
    <path d="M345.256 31.4212H352.361" stroke="#111418" stroke-linecap="round" stroke-linejoin="round"/>
    <path d="M318.058 31.4212H341.871" stroke="#111418" stroke-linecap="round" stroke-linejoin="round"/>
    <path d="M358.301 64.7257H405.315" stroke="#111418" stroke-linecap="round" stroke-linejoin="round"/>
    <path d="M384.167 73.5512H418.082" stroke="#111418" stroke-linecap="round" stroke-linejoin="round"/>
    <path d="M358.301 73.5512H379.615" stroke="#111418" stroke-linecap="round" stroke-linejoin="round"/>
    <path d="M398.71 102.859H418.082" stroke="#111418" stroke-linecap="round" stroke-linejoin="round"/>
    <path d="M358.301 102.859H392.882" stroke="#111418" stroke-linecap="round" stroke-linejoin="round"/>
    <path d="M358.301 111.685H418.082" stroke="#111418" stroke-linecap="round" stroke-linejoin="round"/>
    <path d="M405.315 140.993H418.082" stroke="#111418" stroke-linecap="round" stroke-linejoin="round"/>
    <path d="M358.301 140.993H401.929" stroke="#111418" stroke-linecap="round" stroke-linejoin="round"/>
    <path d="M358.301 149.818H407.203" stroke="#111418" stroke-linecap="round" stroke-linejoin="round"/>
    <path d="M413.142 165.027L416.528 171.078" stroke="#111418" stroke-linecap="round" stroke-linejoin="round"/>
    <path d="M415.639 161.087L421.357 171.3" stroke="#111418" stroke-linecap="round" stroke-linejoin="round"/>
    <path d="M421.135 162.53L423.022 165.916" stroke="#111418" stroke-linecap="round" stroke-linejoin="round"/>
    <path d="M127.513 169.493L144.068 159.935C145.98 158.831 148.486 159.569 149.646 161.578L212.155 269.846C217.13 278.464 227.341 282.437 236.297 279.24C236.629 279.118 236.911 279.026 237.213 278.851C237.646 278.672 238.079 278.492 238.532 278.231C238.683 278.144 238.834 278.057 238.985 277.969C239.387 277.737 239.79 277.505 240.192 277.272L240.645 277.011L240.796 276.924L119.427 346.996C110.471 352.167 98.7488 348.714 93.2656 339.333L30.1768 230.06C29.1391 228.263 29.6736 226.051 31.3844 225.063L120.549 173.584" fill="#A1C3E6"/>
    <path d="M127.513 169.493L144.068 159.935C145.98 158.831 148.486 159.569 149.646 161.578L212.155 269.846C217.13 278.464 227.341 282.437 236.297 279.24C236.629 279.118 236.911 279.026 237.213 278.851C237.646 278.672 238.079 278.492 238.532 278.231C238.683 278.144 238.834 278.057 238.985 277.969C239.387 277.737 239.79 277.505 240.192 277.272L240.645 277.011L240.796 276.924L119.427 346.996C110.471 352.167 98.7488 348.714 93.2656 339.333L30.1768 230.06C29.1391 228.263 29.6736 226.051 31.3844 225.063L120.549 173.584" stroke="#111418" stroke-linecap="round" stroke-linejoin="round"/>
    <path d="M113.375 341.045C109.073 342.542 104.172 341.142 101.118 337.478" stroke="#313C47" stroke-linecap="round" stroke-linejoin="round"/>
    <path d="M41.6004 234.391L38.7924 229.527C38.0598 228.258 38.4864 226.673 39.6437 226.005L44.424 223.245" stroke="#313C47" stroke-linecap="round" stroke-linejoin="round"/>
    <path d="M97.3671 243.71L157.347 209.081" stroke="#313C47" stroke-linecap="round" stroke-linejoin="round"/>
    <path d="M66.5721 261.491L92.5366 246.5" stroke="#313C47" stroke-linecap="round" stroke-linejoin="round"/>
    <path d="M158.231 227.462L165.728 223.133" stroke="#313C47" stroke-linecap="round" stroke-linejoin="round"/>
    <path d="M125.725 246.229L153.199 230.367" stroke="#313C47" stroke-linecap="round" stroke-linejoin="round"/>
    <path d="M151.641 251.143L174.335 238.041" stroke="#313C47" stroke-linecap="round" stroke-linejoin="round"/>
    <path d="M134.332 261.137L146.308 254.222" stroke="#313C47" stroke-linecap="round" stroke-linejoin="round"/>
    <path d="M175.445 257.278L182.742 253.065" stroke="#313C47" stroke-linecap="round" stroke-linejoin="round"/>
    <path d="M142.939 276.045L170.413 260.183" stroke="#313C47" stroke-linecap="round" stroke-linejoin="round"/>
    <path d="M135.482 299.734L191.135 267.603" stroke="#313C47" stroke-linecap="round" stroke-linejoin="round"/>
    <path d="M100.36 320.012L131.155 302.233" stroke="#313C47" stroke-linecap="round" stroke-linejoin="round"/>
    <path d="M184.899 169.067L234.283 254.603C236.44 258.222 235.462 262.804 232.193 265.044C230.493 266.167 228.386 266.467 226.395 265.925C224.405 265.382 222.642 264.073 221.574 262.223L171.152 174.89L182.424 168.382C182.826 168.15 183.32 168.076 183.805 168.219C184.24 168.39 184.655 168.644 184.899 169.067Z" fill="#A1C3E6" stroke="#111418" stroke-linecap="round" stroke-linejoin="round"/>
    <path d="M217.016 239.338L227.272 257.101" stroke="#111418" stroke-linecap="round" stroke-linejoin="round"/>
    <path d="M181.389 177.861L215.124 236.06" stroke="#111418" stroke-linecap="round" stroke-linejoin="round"/>
    <path d="M198.362 171.585C199.218 171.092 200.35 171.425 200.869 172.324L245.675 249.93C251.169 259.446 248.763 271.549 240.162 277.219C239.759 277.452 239.337 277.766 238.904 277.946C238.753 278.033 238.602 278.12 238.501 278.178C238.099 278.41 237.616 278.619 237.183 278.799C236.85 278.92 236.598 279.065 236.266 279.187C227.31 282.384 217.13 278.464 212.124 269.794L155.537 171.781L165.097 166.262C165.299 166.145 165.611 166.106 165.854 166.177C166.096 166.249 166.319 166.402 166.472 166.666L221.625 262.194C222.693 264.044 224.405 265.382 226.446 265.896C228.436 266.438 230.544 266.138 232.244 265.015C235.513 262.775 236.44 258.222 234.334 254.575L189.406 176.757L198.362 171.585Z" fill="#A1C3E6" stroke="#111418" stroke-linecap="round" stroke-linejoin="round"/>
    <path d="M242.466 262.849C243.066 259.472 242.463 255.872 240.693 252.806L194.941 173.561" stroke="#111418" stroke-linecap="round" stroke-linejoin="round"/>
    <path d="M174.294 192.882L216.872 266.629C220.871 273.555 229.44 276.079 236.032 272.273C238.296 270.966 240.093 269.082 241.273 266.71" stroke="#111418" stroke-linecap="round" stroke-linejoin="round"/>
    <path d="M161.658 170.996L171.303 187.701" stroke="#111418" stroke-linecap="round" stroke-linejoin="round"/>
    <path d="M119.464 247.588L122.211 252.346L118.867 272.815L108.565 271.009L104.752 294.85L97.8028 293.505L94.4192 307.864C93.8855 308.102 93.2083 307.858 92.903 307.33L73.6743 274.025C73.3385 273.443 73.5167 272.706 74.0702 272.386L117.898 247.082C118.401 246.792 119.129 247.006 119.464 247.588Z" fill="white" stroke="#111418" stroke-linecap="round" stroke-linejoin="round"/>
    <path opacity="0.3" d="M119.45 247.597L122.197 252.355L118.852 272.824L108.551 271.018L104.737 294.859L97.7883 293.514L94.4047 307.873C93.871 308.111 93.1937 307.868 92.8885 307.339L73.6598 274.034C73.324 273.452 73.5022 272.715 74.0557 272.395L117.883 247.091C118.387 246.801 119.114 247.015 119.45 247.597Z" fill="white" stroke="#A1C3E6" stroke-linecap="round" stroke-linejoin="round"/>
    <path d="M122.181 252.292L138.693 280.893C139.029 281.474 138.851 282.211 138.297 282.531L94.3691 307.893L97.7527 293.534L104.702 294.879L108.515 271.038L118.816 272.844L122.181 252.292Z" fill="#3674B3" stroke="#111418" stroke-linecap="round" stroke-linejoin="round"/>
    <path d="M81.4371 276.662L94.7213 268.992" stroke="#111418" stroke-linecap="round" stroke-linejoin="round"/>
    <path d="M84.642 282.213L94.6051 276.461" stroke="#111418" stroke-linecap="round" stroke-linejoin="round"/>
    <path d="M185.901 292.123L191.883 295.859" stroke="#313C47" stroke-linecap="round" stroke-linejoin="round"/>
    <path d="M186.02 287.332L196.162 293.741" stroke="#313C47" stroke-linecap="round" stroke-linejoin="round"/>
    <path d="M191.463 285.952L194.813 288.035" stroke="#313C47" stroke-linecap="round" stroke-linejoin="round"/>
    <path d="M61.4482 250.394L65.7513 247.91L57.2962 233.265L52.9932 235.749L61.4482 250.394Z" fill="white"/>
    <path d="M68.6124 246.258L72.9155 243.773L68.521 236.162L68.592 236.121L78.203 240.721L81.7449 238.676L73.2898 224.031L68.9868 226.515L73.311 234.005L73.2399 234.046L63.7399 229.545L60.1574 231.613L68.6124 246.258Z" fill="white"/>
    <path d="M90.6649 233.877C94.7041 231.545 95.9512 228.268 94.2051 225.244L94.1993 225.233C92.8282 222.859 90.598 222.441 87.1339 223.683L85.51 224.269C83.8963 224.849 83.0854 224.898 82.7045 224.238L82.6987 224.228C82.312 223.558 82.6221 222.689 83.8095 222.003C84.9867 221.324 86.1322 221.339 86.6763 222.094L86.745 222.189L90.703 219.904L90.564 219.687C88.8601 217.017 85.7718 216.473 81.8544 218.734C78.3836 220.738 76.9186 224.06 78.6179 227.003L78.6237 227.014C79.9362 229.287 82.3792 229.839 85.5907 228.675L87.2146 228.089C89.0083 227.446 89.761 227.39 90.1595 228.08L90.1653 228.09C90.5872 228.821 90.1003 229.806 88.8114 230.55C87.5935 231.253 86.2943 231.299 85.6647 230.607L85.5917 230.528L81.6337 232.813L81.7552 233C83.5773 235.804 86.8693 236.069 90.6649 233.877Z" fill="white"/>
    <path d="M99.3412 228.516L103.644 226.032L95.1892 211.387L90.8861 213.872L99.3412 228.516Z" fill="white"/>
    <path d="M113.701 220.578C117.953 218.123 119.051 214.187 116.73 210.168L115.588 208.189L109.214 211.869L110.925 214.832L113.158 213.543L113.226 213.707C113.747 214.962 113.176 216.199 111.775 217.008C109.887 218.097 107.804 217.325 106.269 214.666L106.263 214.656C104.763 212.057 105.03 210.036 106.857 208.981C108.095 208.266 109.358 208.322 110.215 209.126L110.304 209.21L114.536 206.767L114.468 206.671C112.492 203.928 108.483 203.36 104.809 205.481C100.303 208.083 99.1365 212.437 101.908 217.238L101.914 217.248C104.726 222.119 109.053 223.261 113.701 220.578Z" fill="white"/>
    <path d="M122.864 214.935L127.167 212.451L123.898 206.788L129.053 203.811L132.323 209.474L136.626 206.99L128.171 192.345L123.868 194.83L127.085 200.401L121.929 203.378L118.712 197.806L114.409 200.291L122.864 214.935Z" fill="white"/>
    <path d="M142.785 203.434L147.089 200.949L140.602 189.715L144.459 187.488L142.49 184.078L130.474 191.016L132.443 194.426L136.299 192.199L142.785 203.434Z" fill="white"/>
    <path d="M61.4482 250.394L65.7513 247.91L57.2962 233.265L52.9932 235.749L61.4482 250.394Z" stroke="#A1C3E6"/>
    <path d="M68.6124 246.258L72.9155 243.773L68.521 236.162L68.592 236.121L78.203 240.721L81.7449 238.676L73.2898 224.031L68.9868 226.515L73.311 234.005L73.2399 234.046L63.7399 229.545L60.1574 231.613L68.6124 246.258Z" stroke="#A1C3E6"/>
    <path d="M90.6649 233.877C94.7041 231.545 95.9512 228.268 94.2051 225.244L94.1993 225.233C92.8282 222.859 90.598 222.441 87.1339 223.683L85.51 224.269C83.8963 224.849 83.0854 224.898 82.7045 224.238L82.6987 224.228C82.312 223.558 82.6221 222.689 83.8095 222.003C84.9867 221.324 86.1322 221.339 86.6763 222.094L86.745 222.189L90.703 219.904L90.564 219.687C88.8601 217.017 85.7718 216.473 81.8544 218.734C78.3836 220.738 76.9186 224.06 78.6179 227.003L78.6237 227.014C79.9362 229.287 82.3792 229.839 85.5907 228.675L87.2146 228.089C89.0083 227.446 89.761 227.39 90.1595 228.08L90.1653 228.09C90.5872 228.821 90.1003 229.806 88.8114 230.55C87.5935 231.253 86.2943 231.299 85.6647 230.607L85.5917 230.528L81.6337 232.813L81.7552 233C83.5773 235.804 86.8693 236.069 90.6649 233.877Z" stroke="#A1C3E6"/>
    <path d="M99.3412 228.516L103.644 226.032L95.1892 211.387L90.8861 213.872L99.3412 228.516Z" stroke="#A1C3E6"/>
    <path d="M113.701 220.578C117.953 218.123 119.051 214.187 116.73 210.168L115.588 208.189L109.214 211.869L110.925 214.832L113.158 213.543L113.226 213.707C113.747 214.962 113.176 216.199 111.775 217.008C109.887 218.097 107.804 217.325 106.269 214.666L106.263 214.656C104.763 212.057 105.03 210.036 106.857 208.981C108.095 208.266 109.358 208.322 110.215 209.126L110.304 209.21L114.536 206.767L114.468 206.671C112.492 203.928 108.483 203.36 104.809 205.481C100.303 208.083 99.1365 212.437 101.908 217.238L101.914 217.248C104.726 222.119 109.053 223.261 113.701 220.578Z" stroke="#A1C3E6"/>
    <path d="M122.864 214.935L127.167 212.451L123.898 206.788L129.053 203.811L132.323 209.474L136.626 206.99L128.171 192.345L123.868 194.83L127.085 200.401L121.929 203.378L118.712 197.806L114.409 200.291L122.864 214.935Z" stroke="#A1C3E6"/>
    <path d="M142.785 203.434L147.089 200.949L140.602 189.715L144.459 187.488L142.49 184.078L130.474 191.016L132.443 194.426L136.299 192.199L142.785 203.434Z" stroke="#A1C3E6"/>
    <path d="M179.613 134L198.494 128.941C200.675 128.357 202.931 129.659 203.516 131.84L235.01 249.377C237.516 258.732 246.441 264.952 256.112 264.083C256.472 264.049 256.774 264.029 257.118 263.937C257.593 263.871 258.067 263.805 258.584 263.667C258.756 263.621 258.928 263.575 259.1 263.529C259.559 263.406 260.019 263.283 260.478 263.16L260.994 263.021L261.166 262.975L122.739 300.067C112.523 302.804 101.972 296.712 99.1769 286.512L67.3907 167.884C66.8679 165.933 68.0022 163.968 69.9535 163.445L171.651 136.195" fill="#A1C3E6"/>
    <path d="M179.613 134L198.494 128.941C200.675 128.357 202.931 129.659 203.516 131.84L235.01 249.377C237.516 258.732 246.441 264.952 256.112 264.083C256.472 264.049 256.774 264.029 257.118 263.937C257.593 263.871 258.067 263.805 258.584 263.667C258.756 263.621 258.928 263.575 259.1 263.529C259.559 263.406 260.019 263.283 260.478 263.16L260.994 263.021L261.166 262.975L122.739 300.067C112.523 302.804 101.972 296.712 99.1769 286.512L67.3907 167.884C66.8679 165.933 68.0022 163.968 69.9535 163.445L171.651 136.195" stroke="#111418" stroke-linecap="round" stroke-linejoin="round"/>
    <path d="M118.44 292.976C113.806 293.357 109.382 290.851 107.394 286.647" stroke="#313C47" stroke-linecap="round" stroke-linejoin="round"/>
    <path d="M77.4074 174.734L75.9926 169.454C75.6236 168.077 76.4792 166.679 77.7992 166.325L83.2514 164.864" stroke="#313C47" stroke-linecap="round" stroke-linejoin="round"/>
    <path d="M129.566 196.989L197.976 178.658" stroke="#313C47" stroke-linecap="round" stroke-linejoin="round"/>
    <path d="M94.4425 206.401L124.056 198.466" stroke="#313C47" stroke-linecap="round" stroke-linejoin="round"/>
    <path d="M193.776 196.269L202.327 193.978" stroke="#313C47" stroke-linecap="round" stroke-linejoin="round"/>
    <path d="M156.701 206.203L188.036 197.807" stroke="#313C47" stroke-linecap="round" stroke-linejoin="round"/>
    <path d="M180.78 217.098L206.664 210.162" stroke="#313C47" stroke-linecap="round" stroke-linejoin="round"/>
    <path d="M161.038 222.387L174.697 218.728" stroke="#313C47" stroke-linecap="round" stroke-linejoin="round"/>
    <path d="M202.449 228.638L210.771 226.408" stroke="#313C47" stroke-linecap="round" stroke-linejoin="round"/>
    <path d="M165.374 238.572L196.71 230.175" stroke="#313C47" stroke-linecap="round" stroke-linejoin="round"/>
    <path d="M151.525 259.199L215 242.191" stroke="#313C47" stroke-linecap="round" stroke-linejoin="round"/>
    <path d="M111.466 269.932L146.589 260.521" stroke="#313C47" stroke-linecap="round" stroke-linejoin="round"/>
    <path d="M236.047 147.42L260.928 240.279C262.047 244.224 259.824 248.326 255.999 249.658C254.021 250.311 251.87 250.088 250.066 249.095C248.262 248.102 246.893 246.439 246.355 244.43L220.951 149.62L233.807 146.175C234.266 146.052 234.771 146.102 235.208 146.354C235.587 146.621 235.924 146.961 236.047 147.42Z" fill="#A1C3E6" stroke="#111418" stroke-linecap="round" stroke-linejoin="round"/>
    <path d="M248.192 221.671L253.359 240.954" stroke="#111418" stroke-linecap="round" stroke-linejoin="round"/>
    <path d="M230.177 154.898L247.239 218.113" stroke="#111418" stroke-linecap="round" stroke-linejoin="round"/>
    <path d="M248.565 153.047C249.541 152.785 250.56 153.373 250.821 154.349L273.396 238.6C276.164 248.93 270.467 259.806 260.462 263.102C260.003 263.225 259.502 263.421 259.027 263.487C258.855 263.533 258.683 263.579 258.568 263.61C258.109 263.733 257.577 263.814 257.103 263.879C256.743 263.914 256.456 263.991 256.096 264.026C246.426 264.895 237.516 258.732 234.994 249.32L206.483 142.916L217.388 139.995C217.617 139.933 217.935 139.971 218.153 140.097C218.372 140.223 218.548 140.422 218.625 140.709L246.413 244.415C246.951 246.424 248.262 248.102 250.123 249.08C251.927 250.073 254.078 250.296 256.056 249.643C259.882 248.31 262.047 244.224 260.986 240.264L238.35 155.784L248.565 153.047Z" fill="#A1C3E6" stroke="#111418" stroke-linecap="round" stroke-linejoin="round"/>
    <path d="M266.685 250.055C268.205 247.003 268.606 243.451 267.715 240.122L244.663 154.092" stroke="#111418" stroke-linecap="round" stroke-linejoin="round"/>
    <path d="M219.074 167.408L240.526 247.469C242.541 254.987 250.254 259.44 257.773 257.426C260.355 256.734 262.638 255.384 264.45 253.422" stroke="#111418" stroke-linecap="round" stroke-linejoin="round"/>
    <path d="M212.708 143.648L217.567 161.784" stroke="#111418" stroke-linecap="round" stroke-linejoin="round"/>
    <path d="M150.183 205.981L151.567 211.147L142.641 229.716L133.029 225.525L122.714 247.173L116.265 244.226L108.986 257.003C108.396 257.099 107.799 256.706 107.645 256.132L97.9569 219.975C97.7877 219.344 98.1658 218.689 98.7971 218.52L148.785 205.126C149.359 204.972 150.014 205.35 150.183 205.981Z" fill="white" stroke="#111418" stroke-linecap="round" stroke-linejoin="round"/>
    <path opacity="0.3" d="M150.166 205.986L151.55 211.152L142.624 229.721L133.012 225.53L122.697 247.178L116.248 244.231L108.968 257.008C108.379 257.104 107.782 256.711 107.628 256.137L97.9398 219.98C97.7706 219.349 98.1487 218.694 98.78 218.525L148.768 205.131C149.342 204.977 149.997 205.355 150.166 205.986Z" fill="white" stroke="#A1C3E6" stroke-linecap="round" stroke-linejoin="round"/>
    <path d="M151.551 211.089L159.871 242.138C160.04 242.769 159.662 243.424 159.031 243.593L108.928 257.018L116.208 244.242L122.656 247.189L132.972 225.54L142.583 229.731L151.551 211.089Z" fill="#3674B3" stroke="#111418" stroke-linecap="round" stroke-linejoin="round"/>
    <path d="M104.848 224.342L119.999 220.282" stroke="#111418" stroke-linecap="round" stroke-linejoin="round"/>
    <path d="M106.462 230.368L117.826 227.323" stroke="#111418" stroke-linecap="round" stroke-linejoin="round"/>
    <path d="M203.103 264.139L207.943 269.116" stroke="#313C47" stroke-linecap="round" stroke-linejoin="round"/>
    <path d="M204.541 259.633L212.726 268.142" stroke="#313C47" stroke-linecap="round" stroke-linejoin="round"/>
    <path d="M210.263 259.637L212.976 262.417" stroke="#313C47" stroke-linecap="round" stroke-linejoin="round"/>
    <path d="M94.9688 193.716L99.7683 192.43L95.3916 176.096L90.5922 177.382L94.9688 193.716Z" fill="white"/>
    <path d="M102.959 191.575L107.759 190.289L105.484 181.799L105.563 181.778L113.656 188.709L117.607 187.65L113.23 171.316L108.431 172.602L110.669 180.956L110.59 180.977L102.579 174.17L98.5828 175.241L102.959 191.575Z" fill="white"/>
    <path d="M127.465 185.324C131.97 184.117 134.023 181.274 133.119 177.901L133.116 177.889C132.406 175.241 130.36 174.26 126.692 174.564L124.972 174.709C123.263 174.852 122.468 174.689 122.27 173.953L122.267 173.942C122.067 173.195 122.592 172.435 123.916 172.08C125.229 171.729 126.332 172.04 126.662 172.91L126.703 173.02L131.118 171.837L131.04 171.591C130.085 168.571 127.243 167.246 122.874 168.417C119.003 169.454 116.728 172.284 117.607 175.566L117.61 175.578C118.29 178.113 120.507 179.278 123.91 178.985L125.63 178.84C127.529 178.683 128.271 178.824 128.477 179.593L128.48 179.605C128.698 180.42 127.973 181.245 126.536 181.63C125.177 181.994 123.91 181.703 123.481 180.871L123.431 180.776L119.017 181.958L119.086 182.171C120.12 185.351 123.231 186.459 127.465 185.324Z" fill="white"/>
    <path d="M137.233 182.391L142.032 181.105L137.656 164.771L132.856 166.057L137.233 182.391Z" fill="white"/>
    <path d="M153.158 178.44C157.901 177.169 159.979 173.652 158.778 169.169L158.187 166.962L151.078 168.867L151.964 172.172L154.454 171.505L154.477 171.68C154.656 173.028 153.784 174.074 152.222 174.493C150.116 175.057 148.304 173.771 147.509 170.806L147.506 170.794C146.73 167.897 147.511 166.013 149.549 165.467C150.93 165.097 152.136 165.477 152.755 166.476L152.819 166.58L157.54 165.316L157.498 165.205C156.299 162.045 152.574 160.459 148.477 161.557C143.451 162.903 141.197 166.807 142.631 172.161L142.634 172.172C144.09 177.606 147.974 179.829 153.158 178.44Z" fill="white"/>
    <path d="M163.47 175.361L168.269 174.075L166.577 167.759L172.327 166.218L174.019 172.534L178.819 171.248L174.442 154.915L169.643 156.201L171.308 162.415L165.557 163.956L163.892 157.741L159.093 159.027L163.47 175.361Z" fill="white"/>
    <path d="M185.689 169.408L190.488 168.122L187.131 155.591L191.432 154.438L190.413 150.635L177.011 154.226L178.03 158.03L182.331 156.877L185.689 169.408Z" fill="white"/>
    <path d="M94.9688 193.716L99.7683 192.43L95.3916 176.096L90.5922 177.382L94.9688 193.716Z" stroke="#A1C3E6"/>
    <path d="M102.959 191.575L107.759 190.289L105.484 181.799L105.563 181.778L113.656 188.709L117.607 187.65L113.23 171.316L108.431 172.602L110.669 180.956L110.59 180.977L102.579 174.17L98.5828 175.241L102.959 191.575Z" stroke="#A1C3E6"/>
    <path d="M127.465 185.324C131.97 184.117 134.023 181.274 133.119 177.901L133.116 177.889C132.406 175.241 130.36 174.26 126.692 174.564L124.972 174.709C123.263 174.852 122.468 174.689 122.27 173.953L122.267 173.942C122.067 173.195 122.592 172.435 123.916 172.08C125.229 171.729 126.332 172.04 126.662 172.91L126.703 173.02L131.118 171.837L131.04 171.591C130.085 168.571 127.243 167.246 122.874 168.417C119.003 169.454 116.728 172.284 117.607 175.566L117.61 175.578C118.29 178.113 120.507 179.278 123.91 178.985L125.63 178.84C127.529 178.683 128.271 178.824 128.477 179.593L128.48 179.605C128.698 180.42 127.973 181.245 126.536 181.63C125.177 181.994 123.91 181.703 123.481 180.871L123.431 180.776L119.017 181.958L119.086 182.171C120.12 185.351 123.231 186.459 127.465 185.324Z" stroke="#A1C3E6"/>
    <path d="M137.233 182.391L142.032 181.105L137.656 164.771L132.856 166.057L137.233 182.391Z" stroke="#A1C3E6"/>
    <path d="M153.158 178.44C157.901 177.169 159.979 173.652 158.778 169.169L158.187 166.962L151.078 168.867L151.964 172.172L154.454 171.505L154.477 171.68C154.656 173.028 153.784 174.074 152.222 174.493C150.116 175.057 148.304 173.771 147.509 170.806L147.506 170.794C146.73 167.897 147.511 166.013 149.549 165.467C150.93 165.097 152.136 165.477 152.755 166.476L152.819 166.58L157.54 165.316L157.498 165.205C156.299 162.045 152.574 160.459 148.477 161.557C143.451 162.903 141.197 166.807 142.631 172.161L142.634 172.172C144.09 177.606 147.974 179.829 153.158 178.44Z" stroke="#A1C3E6"/>
    <path d="M163.47 175.361L168.269 174.075L166.577 167.759L172.327 166.218L174.019 172.534L178.819 171.248L174.442 154.915L169.643 156.201L171.308 162.415L165.557 163.956L163.892 157.741L159.093 159.027L163.47 175.361Z" stroke="#A1C3E6"/>
    <path d="M185.689 169.408L190.488 168.122L187.131 155.591L191.432 154.438L190.413 150.635L177.011 154.226L178.03 158.03L182.331 156.877L185.689 169.408Z" stroke="#A1C3E6"/>
    </svg>