<svg xmlns="http://www.w3.org/2000/svg" xmlns:xlink="http://www.w3.org/1999/xlink" viewBox="0 0 465.7 610.2"><defs><style>.cls-1{fill:#ffb0b0;}.cls-2,.cls-9{fill:none;stroke-linecap:round;stroke-linejoin:round;stroke-width:3px;}.cls-2{stroke:#231f20;}.cls-3{fill:#00468c;}.cls-4{fill:#7482ff;}.cls-5{fill:url(#linear-gradient);}.cls-6{fill:#85d3b1;}.cls-7{fill:#231f20;}.cls-8{fill:#72abff;}.cls-9{stroke:#5652dd;}.cls-10{fill:#6489f2;}.cls-11{fill:#f98585;}.cls-12{fill:#5652dd;}</style><linearGradient id="linear-gradient" x1="-61.71" y1="559.5" x2="21.81" y2="559.5" gradientTransform="matrix(0.98, -0.18, -0.18, -0.98, 237.49, 788.2)" gradientUnits="userSpaceOnUse"><stop offset="0" stop-color="#00e9ff"/><stop offset="0.33" stop-color="#04daee"/><stop offset="0.99" stop-color="#0db1c3"/><stop offset="1" stop-color="#0db1c2"/></linearGradient></defs><title>Asset 2</title><g id="Layer_2" data-name="Layer 2"><g id="Layer_1-2" data-name="Layer 1"><path class="cls-1" d="M396.2,72.5a77.8,77.8,0,0,1-6,17.6c-2.7,5.7-6.4,10.8-9,16.5s-4.2,12.8-6.2,19.1l-9.5-2.7-25.3-7.3c1.3-3.7,2.9-7.4,4.2-11.2,2-5.5,3.5-11.2,3-17.2-.4-4.3-1.5-8.7-.2-12.8a16.7,16.7,0,0,1,5.5-7.8c2.5-1.9,6-1.9,8.5-4.1s3-6.3,4.2-9.4a6.6,6.6,0,0,1,3.6-4.1c2.2-1,5.1.5,6,2.8a5.4,5.4,0,0,1,4.2-1.6,5.7,5.7,0,0,1,4,2,11.2,11.2,0,0,1,1.8,4.5,4.5,4.5,0,0,1,6,.2c2,2.1,1.6,5.1,2.4,7.8a4.1,4.1,0,0,1,3.1,3.1A14.3,14.3,0,0,1,396.2,72.5Z"/><line class="cls-2" x1="363.6" y1="59.6" x2="358.6" y2="72.6"/><path class="cls-2" d="M372,68.9a21.5,21.5,0,0,1,3.4,5.6c1,2.4,1.5,5.3.1,7.5a2.7,2.7,0,0,1-1.8,1.3,1.6,1.6,0,0,1-1.8-1.1,2.6,2.6,0,0,1,.5-1.7A15.5,15.5,0,0,1,382.9,74"/><path class="cls-3" d="M462.2,301.7l-42.5,37.2a7.5,7.5,0,0,1-6.4,1.8c-5.5-1-8.9,1.1-10.3,6.2a8.1,8.1,0,0,1-3.3,4.6L386.8,360a7.6,7.6,0,0,1-10.5-2.2l-.2-.3-18.8-29.3-4.9-7.7,31.2-29.2,7.1,4,1.1.7c25,10,41.2-15.1,68.9-5.3l1.4,1.7,1,1.3A5.9,5.9,0,0,1,462.2,301.7Z"/><path class="cls-4" d="M110.2,416.7c27-2.7,40.5,84.2,26.2,90.3C117.5,514.7,95.8,435.2,110.2,416.7Z"/><path class="cls-1" d="M148.6,489c-10.3,2.6-20.4,5.3-29.6,8.3-16.4,5.3-29.6,11.5-35,19.8l-25.8-77c11.3,2.6,21.7-6.8,37.8-15l6.1-2.9a89.1,89.1,0,0,1,23.5-6.8l5.5,17.6Z"/><path class="cls-1" d="M61.9,168c-10.9,11.2-18,22.7-6.2,36,12.5,16.3,67,47.8,87,60.7l3.6-34.9c-13.9-10.2-33.4-34.4-48.8-38.4Z"/><polygon class="cls-5" points="76.5 207.7 152.8 189.7 160.2 275.7 92.1 291.2 85.7 289 76.5 207.7"/><polygon class="cls-6" points="85.7 289 159.9 271.9 160.2 275.7 92.1 291.2 85.7 289"/><circle class="cls-2" cx="127.3" cy="230.6" r="2.6"/><path class="cls-1" d="M220.6,71l2.1.3c7.3,1,15.6-.8,16.7-9.2s.3-15.2-.4-22.9-.7-13.1-3.9-18.8-7.5-9.9-13.2-12.1c-10.5-3.9-23-2.2-31.5,5.4a30,30,0,0,0-9.1,15.4c-2.2,9.7-.5,18.7,6.6,26s14.2,10.4,22.7,13.1A70.8,70.8,0,0,0,220.6,71Z"/><polygon class="cls-1" points="185.5 50.6 180.4 92.4 218.4 92 219.3 65.2 185.5 50.6"/><path class="cls-7" d="M230.1,24.4l-.3.5c-.7,1.7-.1,5.1-.1,6.9s.3,4.7-.5,6.8a3.2,3.2,0,0,1-1.4,1.8,2.9,2.9,0,0,1-1.6.2c-2-.1-3.7-.8-4.3-2.7-.1-.2-.1-.5-.2-.7a48.5,48.5,0,0,0-4.9,6.1c-1.7,2.4-3.8,4.5-5.1,7.1s-2.4,5.9-4.2,8.6a5.8,5.8,0,0,1-1,1.2c-1.6,1.4-4.1.9-6,0s-4-2.1-6.2-1.9-3.7,2-6,1.8c-5.8-.6-5.1-8.3-7.3-12s-5.8-9.6-6.3-15.6a17.7,17.7,0,0,1,9.4-17.4,6.7,6.7,0,0,0,1.4-.9,5,5,0,0,0,.8-2c1.4-4.8,7.8-6.9,12.2-7.9s11.7-.7,17.6-.4,14.1-.2,20.5-3.4a2.6,2.6,0,0,1,1.9-.4A1.7,1.7,0,0,1,239.6,2a6,6,0,0,1-.9,2.2c-1.1,1.9-2.3,3.9-4.3,4.9l5-1.2,1.2-.2a1.9,1.9,0,0,1,1.5,2.2,4.1,4.1,0,0,1-1.3,2.5,13.9,13.9,0,0,1-4.6,3.3,8.6,8.6,0,0,0,2.3.6,2.4,2.4,0,0,1,2.1,1.3c.3,1-.4,1.9-1.2,2.6a14.4,14.4,0,0,1-5.1,2.9C233.1,23.6,231.2,23.2,230.1,24.4Z"/><path class="cls-1" d="M303.4,175.4l17.2,6.9a25.9,25.9,0,0,0,33.8-12.8c10.5-9.6,16.6-29,22.1-49l-33.9-11.6-22.4,42.8Z"/><path class="cls-8" d="M394.5,271.4A112.5,112.5,0,0,1,355.6,327c-9.3-8.4-18.2-26.7-41.9-36.9L279,270.2c-28.4,10.4-57.7,22.5-87.8,31.4a42.4,42.4,0,0,1-11.1,1.9c-15.4.7-29.6-10.6-36.5-23.6a56.1,56.1,0,0,1-4.5-11.1,81,81,0,0,1-2.9-27.3c0-.7.1-1.3.1-2,.2-2.3,1.1-3.3,3.1-4.5a21.6,21.6,0,0,1,6.6-2.3,108.5,108.5,0,0,1,22.1-2.5l85.5-13.8c14.8-2.7,25.6-4.7,34.4-5.5,13.4-1.3,22.3-.1,34.5,4.6l4,1.9Z"/><path class="cls-3" d="M119,497.3c-16.4,5.3-29.6,11.5-35,19.8l-25.8-77c11.3,2.6,21.7-6.8,37.8-15a78.8,78.8,0,0,1,6.7,11.5A142.6,142.6,0,0,1,114.8,468,144.8,144.8,0,0,1,119,497.3Z"/><path class="cls-8" d="M250.7,407a135.1,135.1,0,0,1,0,15.6c-1.2,19-7.4,32.5-18.3,41a45.5,45.5,0,0,1-7.3,4.7q-51.7,16.6-88.8,38.7c5.3-8.6,1.3-28-4.9-50-7.4-27.4-10.3-37.6-21.3-40.3a159.5,159.5,0,0,1,67.2-12h3v-.3L179.2,364l-1.6-60.5c-8.7-28.9,17.8-55.4,54.4-81.2C246.1,253.2,251.5,317.8,250.7,407Z"/><path class="cls-7" d="M100.6,508.2c-2.8,6.9-12.4,7.2-18.3,11.7s-2.5,14-2.9,21.7-.5,16.3-.4,24.5.4,14.3-1.6,21.1c-1.6,5.3-5.8,10.9-11.1,15.1a42.7,42.7,0,0,1-4.4,3,25.7,25.7,0,0,1-8.6,3.2,17.1,17.1,0,0,1-11.9-1.9c-5.3-3.2-8.8-8.7-11.5-14.3a99,99,0,0,1-10-39.6c-.5-13,1.5-26.4-2.2-39S4.2,490,2,476.7a35.5,35.5,0,0,1,3.3-21.5c1.3-2.6,3.1-5.1,5.6-6.4h0a18.3,18.3,0,0,1,5.2-1.5c4-.7,7.4-.2,10.8-1.8l1.1-.6c10.3-6.3,23.2-5.8,35.2-5.1a12,12,0,0,1,4.2.8c2.6,1.3,3.9,4.4,4,7.3s-.8,5.8-1.2,8.7a31.2,31.2,0,0,0,12.1,29.1c4.2,3.1,9.3,5.1,13.3,8.6S102.7,503.3,100.6,508.2Z"/><path class="cls-9" d="M67.1,583.5a61.7,61.7,0,0,1-.7,18.7,42.7,42.7,0,0,1-4.4,3,25.7,25.7,0,0,1-8.6,3.2,17.1,17.1,0,0,1-11.9-1.9c-5.3-3.2-8.8-8.7-11.5-14.3a99,99,0,0,1-10-39.6c-.5-13,1.5-26.4-2.2-39s-13.5-23.7-15.7-37a35.5,35.5,0,0,1,3.3-21.5c1.3-2.6,3.1-5.1,5.6-6.4h0a18.3,18.3,0,0,1,5.2-1.5c4-.7,7.4-.2,10.8-1.8,5.8,4.8,10,11.6,12.7,18.7,3.6,9.8,4.6,20.3,5.1,30.8.3,6.2.6,12.5,2,18.6s4.9,13.5,7.6,20.1A169.7,169.7,0,0,1,67.1,583.5Z"/><path class="cls-9" d="M53.3,608.4a17.1,17.1,0,0,1-11.9-1.9c-5.3-3.2-8.8-8.7-11.5-14.3a99,99,0,0,1-10-39.6c-.5-13,1.5-26.4-2.2-39S4.2,489.9,2,476.6a35.5,35.5,0,0,1,3.3-21.5c1.3-2.6,3.1-5.1,5.6-6.4h0c4.4.4,8.7,2.8,12.6,8.3s5.6,12.9,6.5,19.9c1.8,12.8,2.2,25.9,5.5,38.5,2.7,10.5,7.3,20.4,10.8,30.6A143.8,143.8,0,0,1,53.3,608.4Z"/><line class="cls-2" x1="278.9" y1="270.2" x2="297.6" y2="264.5"/><path class="cls-2" d="M177.7,303.5c-10.1-10.6-16.2-26.2-13.5-38.3"/><path class="cls-9" d="M61.1,485.4c-2.4-2.6-5.3-5.2-8.8-5.2a4.5,4.5,0,0,0-3.4,1.3,4.3,4.3,0,0,0-.9,2.3c-.5,2.9.8,5.9,2.7,8.1s4.4,3.9,6.8,5.6c8.5,6,16.3,14.3,24.8,19.8A114.6,114.6,0,0,0,61.1,485.4Z"/><path class="cls-9" d="M30.9,512.7c2.4-1.8,5.8-1.5,8.7-.6a31.6,31.6,0,0,1,8.4,3.7c4.3,2.6,7.9,6.1,12.1,8.7s9.2,4.6,14.1,3.5,9-6.1,7.8-10.9c3.5,2.6,5.7,6.3,7.5,10.3a16.1,16.1,0,0,1,.5,12.7,11.7,11.7,0,0,1-10.1,7.2c-.4,0-.9-.7-.5-.7"/><path class="cls-9" d="M94.2,505.6a39.2,39.2,0,0,1,6.8-6.7,12.8,12.8,0,0,1,9-2.7c1.5.2,3.1.9,3.6,2.3a4.3,4.3,0,0,1-.5,3.3c-2.5,5.2-8,8-13.1,10.5-3.4,1.6-14,8.9-17.3,7C85.6,514.2,90.6,510,94.2,505.6Z"/><path class="cls-7" d="M462.2,301.7l-42.5,37.2a7.5,7.5,0,0,1-6.4,1.8c-5.5-1-8.9,1.1-10.3,6.2a8.1,8.1,0,0,1-3.3,4.6L386.8,360a7.6,7.6,0,0,1-10.5-2.2l-.2-.3-18.8-29.3a10.7,10.7,0,0,1,4.9-4.3c6.8-2.8,15.6,1.5,21.6-2.7,3.7-2.6,4.8-7.5,5.1-12s-.2-9.1,1.4-13.3c.1-.2.1-.4.2-.6l1.1.7c25,10,41.2-15.1,68.9-5.3l1.4,1.7,1,1.3A5.7,5.7,0,0,1,462.2,301.7Z"/><path class="cls-9" d="M403.4,298.3l-13,21.8a3.8,3.8,0,0,0,1.9,5.5h0a3.8,3.8,0,0,0,5.2-2.7Z"/><path class="cls-9" d="M403.8,298.2l1,25.4a3.8,3.8,0,0,0,4.6,3.6h0a3.9,3.9,0,0,0,2.9-5.1Z"/><path class="cls-10" d="M193.1,242c-18.7,15-36.9,25.3-54.1,26.8a81,81,0,0,1-2.9-27.3Z"/><path class="cls-7" d="M220.9,90.3c8.1,2.7,16.8,3.1,25.3,4.1s17.2,2.7,24.2,7.6c5.1,3.5,9,8.5,12.9,13.4l43.7,22-4.8,10-18.8,28-56.2-26.9c-1.9,13.2-4.5,24.1-11.5,34.3-2.7,15.6-4.5,29.8-3.7,39.5-36.8,25.8-70.2,36.9-97.3,20.6-2.5-15.7,1.6-37.6.8-60.2l-6.1-25c-10,3.8-19.3,22.9-32.1,33.8L56.6,175c9.4-15,35.7-34.8,58.7-55.6,12.7-29.9,52.9-14.7,62.5-28.3l2.8-10.8L220,79.1l.8,11Z"/><path class="cls-7" d="M238.1,32.2l-.3.3a7.5,7.5,0,0,1-3.6,1.7c-2,.3-.9-1.8-.1-2.4l1.5-1a4.8,4.8,0,0,1,1.8-.7C239.3,30,238.9,31.3,238.1,32.2Z"/><path class="cls-2" d="M239.4,53.7c-1.3,1.1-2.7.7-4.2-2"/><ellipse class="cls-7" cx="237.4" cy="38.6" rx="1" ry="1.8" transform="matrix(0.98, -0.18, 0.18, 0.98, -3.08, 42.34)"/><path class="cls-1" d="M235.8,39.4a85.1,85.1,0,0,1,7.1,7.6c.4.5.9,1.2.5,1.8a1.2,1.2,0,0,1-.7.5,6.6,6.6,0,0,1-4.8.2Z"/><polygon class="cls-11" points="219.1 70.7 204.5 65.6 218.9 77.1 219.1 70.7"/><line class="cls-9" x1="247.3" y1="148.5" x2="232.7" y2="141.2"/><path class="cls-9" d="M129.5,157.6c-2.9-8-1.6-15.2.7-22.2"/><line class="cls-2" x1="97.5" y1="191.5" x2="81.9" y2="194.2"/><polygon class="cls-10" points="196.3 404 180.4 404.6 179.3 364 196.3 404"/><line class="cls-2" x1="180.4" y1="404.8" x2="206.7" y2="402.1"/><path class="cls-9" d="M462.2,301.7l-42.5,37.2a7.5,7.5,0,0,1-6.4,1.8c-5.5-1-8.9,1.1-10.3,6.2a8.1,8.1,0,0,1-3.3,4.6L386.8,360a7.6,7.6,0,0,1-10.5-2.2l-.2-.3L462,292.4l1,1.3A5.8,5.8,0,0,1,462.2,301.7Z"/><line class="cls-2" x1="245.9" y1="282.5" x2="234.9" y2="229.2"/><path class="cls-4" d="M250.7,422.6c-1.2,19-7.4,32.5-18.3,41-1.7-8.8-.4-20.4,2.7-28.3a19.1,19.1,0,0,1,1.8-3.8C241.1,424,246.1,421.7,250.7,422.6Z"/><path class="cls-4" d="M326.3,217.5l-1.1.2a57.4,57.4,0,0,1-33.2-4.3,18.7,18.7,0,0,1-4.1-2.5c13.4-1.3,22.3-.1,34.5,4.6Z"/><path class="cls-12" d="M238.9,46.2c-3.1.5-5.3-4-6.1-8.4s-.2-9.5,2.8-10,5.3,4,6.1,8.4S242,45.6,238.9,46.2Zm-2.8-15.5c-.4.5-1.1,2.8-.4,6.5s2,5.6,2.6,5.9,1.1-2.8.4-6.5S236.7,31.1,236.1,30.7Z"/><path class="cls-12" d="M234.5,38.9h-.2l-12.3.6a1.5,1.5,0,1,1-.2-3l12.3-.6a1.6,1.6,0,0,1,1.6,1.4A1.4,1.4,0,0,1,234.5,38.9Z"/><circle class="cls-1" cx="216.4" cy="41.5" r="10.5"/><path class="cls-2" d="M212.1,45.4a5.8,5.8,0,0,1,1.3-7.8,5.9,5.9,0,0,1,7.8,1.2"/><line class="cls-2" x1="216.9" y1="43.5" x2="217" y2="36.6"/><path class="cls-9" d="M220.9,90.2q-35.1,9.8-43,.7"/></g></g></svg>