<?xml version="1.0" encoding="utf-8"?>
<!-- Generator: Adobe Illustrator 22.0.1, SVG Export Plug-In . SVG Version: 6.00 Build 0)  -->
<svg version="1.1" id="Capa_1" xmlns="http://www.w3.org/2000/svg" xmlns:xlink="http://www.w3.org/1999/xlink" x="0px" y="0px"
	 viewBox="0 0 512 512" style="enable-background:new 0 0 512 512;" xml:space="preserve">
<style type="text/css">
	.st0{fill:#EBEEF2;}
	.st1{fill:#D1D6DE;}
	.st2{fill:#B5BCC6;}
	.st3{fill:#989FA8;}
	.st4{fill:#5C9CEE;}
	.st5{fill:#444966;}
	.st6{fill:#F9C295;}
	.st7{fill:#F2DF33;}
	.st8{fill:#E59F6A;}
	.st9{fill:#2E344C;}
</style>
<g>
	<g>
		<g>
			<path class="st0" d="M428.2,169.8h-23.9h-67h-47.8h-67h-47.8h-67H83.8H59.9v54.7h47.8v-9.6c0-13.6,11-24.5,24.5-24.5h17.9
				c13.6,0,24.5,11,24.5,24.5v9.6h47.8v-9.6c0-13.6,11-24.5,24.5-24.5h17.9c13.5,0,24.5,11,24.5,24.5v9.6h47.8v-9.6
				c0-13.6,11-24.5,24.5-24.5h17.9c13.5,0,24.5,11,24.5,24.5v9.6H432h20.1v-54.7H428.2z"/>
			<path class="st0" d="M410.3,218.5v-3.6c0-16.8-13.7-30.5-30.5-30.5h-17.9c-16.8,0-30.5,13.7-30.5,30.5v3.6h-35.8v-3.6
				c0-16.8-13.7-30.5-30.5-30.5h-17.9c-16.8,0-30.5,13.7-30.5,30.5v3.6h-35.8v-3.6c0-16.8-13.7-30.5-30.5-30.5h-17.9
				c-16.8,0-30.5,13.7-30.5,30.5v3.6H65.9v-42.7h380.2v42.7H410.3z"/>
			<rect x="59.9" y="169.8" class="st1" width="392.2" height="17.7"/>
			<rect x="65.9" y="175.8" class="st1" width="380.2" height="5.7"/>
			<path class="st2" d="M32.1,153v-13.4h447.8V153c0,9.3-7.5,16.8-16.8,16.8H48.9C39.6,169.8,32.1,162.2,32.1,153z"/>
			<path class="st2" d="M48.9,163.8c-6,0-10.8-4.8-10.8-10.8v-7.4h435.8v7.4c0,6-4.8,10.8-10.8,10.8H48.9z"/>
			<path class="st3" d="M452.1,139.6V153c0,9.3-7.5,16.8-16.8,16.8h27.8c9.3,0,16.8-7.5,16.8-16.8v-13.4H452.1z"/>
			<path class="st3" d="M455.4,163.8c1.7-3.2,2.7-6.9,2.7-10.8v-7.4h15.8v7.4c0,6-4.8,10.8-10.8,10.8H455.4z"/>
			<polygon class="st0" points="256,17.2 7.5,115.4 7.5,139.6 504.5,139.6 504.5,115.4 			"/>
			<polygon class="st0" points="13.5,133.6 13.5,119.5 256,23.6 498.5,119.5 498.5,133.6 			"/>
			<polygon class="st1" points="256,17.2 226,29 471,125.9 471,139.6 504.5,139.6 504.5,115.4 			"/>
			<polygon class="st1" points="477,133.6 477,121.8 242.3,29 256,23.6 498.5,119.5 498.5,133.6 			"/>
			<circle class="st1" cx="256" cy="82.7" r="24.3"/>
			<circle class="st1" cx="256" cy="82.7" r="18.3"/>
		</g>
		<g>
			<g>
				<path class="st4" d="M385.4,369.7h-28c-19.2,0-34.8,15.6-34.8,34.8v42.8h97.5v-42.8C420.1,385.3,404.6,369.7,385.4,369.7z"/>
				<path class="st4" d="M328.6,441.3v-36.8c0-15.9,12.9-28.8,28.8-28.8h28c15.9,0,28.8,12.9,28.8,28.8v36.8H328.6z"/>
				<polygon class="st5" points="375.5,369.7 367.2,369.7 355.7,408.7 371.4,424.7 387,408.7 				"/>
				<polygon class="st5" points="362.5,407 371.4,376.8 380.3,407 371.4,416.1 				"/>
				<g>
					<path class="st4" d="M154.6,369.7h-28c-19.2,0-34.8,15.6-34.8,34.8v42.8h97.5v-42.8C189.4,385.3,173.8,369.7,154.6,369.7z"/>
					<path class="st4" d="M97.9,441.3v-36.8c0-15.9,12.9-28.8,28.8-28.8h28c15.9,0,28.8,12.9,28.8,28.8v36.8H97.9z"/>
					<polygon class="st5" points="144.8,369.7 136.5,369.7 125,408.7 140.6,424.7 156.3,408.7 					"/>
					<polygon class="st5" points="131.7,407 140.6,376.8 149.5,407 140.6,416.1 					"/>
					<g>
						<path class="st6" d="M140.6,252.4L140.6,252.4c-21.9,0-39.7,17.8-39.7,39.7v19.1c0,21.9,17.8,39.7,39.7,39.7l0,0
							c21.9,0,39.7-17.8,39.7-39.7v-19.1C180.3,270.2,162.5,252.4,140.6,252.4z"/>
						<path class="st6" d="M140.6,344.9c-18.6,0-33.7-15.1-33.7-33.7v-19.1c0-18.6,15.1-33.7,33.7-33.7c9,0,17.5,3.5,23.8,9.9
							c6.4,6.4,9.9,14.8,9.9,23.8v19.1C174.3,329.8,159.2,344.9,140.6,344.9z"/>
						<path class="st7" d="M166.5,262C166.5,262,166.5,262,166.5,262c-0.1-0.1-0.1-0.1-0.2-0.2c-0.3-0.3-0.6-0.5-0.9-0.8
							c-0.1-0.1-0.3-0.2-0.4-0.3c-0.3-0.2-0.6-0.4-0.9-0.7c-0.2-0.1-0.3-0.2-0.5-0.4c-0.3-0.2-0.5-0.4-0.8-0.6
							c-0.2-0.1-0.4-0.3-0.6-0.4c-0.2-0.2-0.5-0.3-0.7-0.5c-0.2-0.1-0.5-0.3-0.7-0.4c-0.2-0.1-0.4-0.2-0.6-0.4
							c-0.3-0.2-0.6-0.3-0.8-0.5c-0.1-0.1-0.3-0.1-0.4-0.2c-5.4-2.8-11.6-4.4-18.1-4.4c-21.9,0-39.7,17.8-39.7,39.7v3.7
							c5.8,2.6,12.3,4,19.1,4c14,0,26.5-6,35.2-15.7c5.5,8.5,14.6,14.3,25.1,15.5v-7.5C180.3,280,174.9,269.2,166.5,262z"/>
						<path class="st7" d="M120,293.8c-4.5,0-8.9-0.7-13.1-2.1c0.2-18.4,15.3-33.3,33.7-33.3c5.4,0,10.6,1.2,15.4,3.7l0.4,0.2
							c0.2,0.1,0.5,0.3,0.7,0.4l0.5,0.3c0.2,0.1,0.6,0.4,0.6,0.4c0.2,0.1,0.4,0.2,0.6,0.4c0.2,0.1,0.3,0.2,0.5,0.3
							c0.3,0.2,0.5,0.3,0.7,0.5l0.4,0.3c0.2,0.2,0.5,0.4,0.7,0.5l0.4,0.3c0.3,0.2,0.5,0.4,0.8,0.7l0.2,0.2
							c7.5,6.4,11.8,15.7,11.8,25.6c-5.7-2.1-10.7-6-14.1-11.2l-4.3-6.6l-5.2,5.8C142.9,288.8,131.7,293.8,120,293.8z"/>
					</g>
				</g>
				<g>
					<path class="st6" d="M371.4,252.4L371.4,252.4c-21.9,0-39.7,17.8-39.7,39.7v19.1c0,21.9,17.8,39.7,39.7,39.7l0,0
						c21.9,0,39.7-17.8,39.7-39.7v-19.1C411.1,270.2,393.3,252.4,371.4,252.4z"/>
					<path class="st6" d="M371.4,344.9c-18.6,0-33.7-15.1-33.7-33.7v-19.1c0-18.6,15.1-33.7,33.7-33.7c18.6,0,33.7,15.1,33.7,33.7
						v19.1C405.1,329.8,390,344.9,371.4,344.9z"/>
					<path class="st7" d="M397.2,262C397.2,262,397.2,262,397.2,262c-0.1-0.1-0.1-0.1-0.2-0.2c-0.3-0.3-0.6-0.5-0.9-0.8
						c-0.1-0.1-0.3-0.2-0.4-0.3c-0.3-0.2-0.6-0.4-0.9-0.7c-0.2-0.1-0.3-0.2-0.5-0.4c-0.3-0.2-0.5-0.4-0.8-0.6
						c-0.2-0.1-0.4-0.3-0.6-0.4c-0.2-0.2-0.5-0.3-0.7-0.5c-0.2-0.1-0.5-0.3-0.7-0.4c-0.2-0.1-0.4-0.2-0.6-0.4
						c-0.3-0.2-0.6-0.3-0.8-0.5c-0.1-0.1-0.3-0.1-0.4-0.2c-5.4-2.8-11.6-4.4-18.1-4.4c-21.9,0-39.7,17.8-39.7,39.7v3.7
						c5.8,2.6,12.3,4,19.1,4c14,0,26.5-6,35.2-15.7c5.5,8.5,14.6,14.3,25.1,15.5v-7.5C411.1,280,405.7,269.2,397.2,262z"/>
					<path class="st7" d="M350.8,293.8c-4.5,0-8.9-0.7-13.1-2.1c0.2-18.4,15.3-33.3,33.7-33.3c5.4,0,10.6,1.2,15.4,3.7l0.4,0.2
						c0.2,0.1,0.5,0.3,0.7,0.4l0.6,0.3c0.2,0.1,0.6,0.4,0.6,0.4c0.2,0.1,0.4,0.3,0.6,0.4c0.2,0.1,0.3,0.2,0.5,0.3
						c0.2,0.2,0.5,0.3,0.7,0.5c0.2,0.1,0.3,0.2,0.4,0.3c0.3,0.2,0.5,0.4,0.7,0.6l0.4,0.3c0.3,0.2,0.5,0.4,0.8,0.6l0.2,0.2
						c7.5,6.4,11.8,15.7,11.8,25.6c-5.7-2.1-10.7-6-14.1-11.2l-4.3-6.6l-5.2,5.8C373.7,288.8,362.5,293.8,350.8,293.8z"/>
				</g>
			</g>
			<g>
				<path class="st0" d="M275.1,388.8h-38.2c-26.2,0-47.5,21.3-47.5,47.5v58.5h133.2v-58.5C322.6,410.1,301.3,388.8,275.1,388.8z"/>
				<path class="st0" d="M195.4,488.8v-52.5c0-22.9,18.6-41.5,41.5-41.5h38.2c22.9,0,41.5,18.6,41.5,41.5v52.5H195.4z"/>
				<path class="st1" d="M275.1,388.8h-14.3c21.9,0,39.6,21.3,39.6,47.5v58.5h22.3v-58.5C322.6,410.1,301.3,388.8,275.1,388.8z"/>
				<path class="st1" d="M306.3,488.8v-52.5c0-14.5-4.9-27.6-12.9-37.2c13.7,6.8,23.1,20.9,23.1,37.2v52.5H306.3z"/>
				<polygon class="st5" points="261.7,388.8 250.3,388.8 234.6,442.1 256,464 277.4,442.1 				"/>
				<polygon class="st5" points="241.4,440.4 254.8,394.8 257.2,394.8 270.6,440.4 256,455.4 				"/>
				<g>
					<path class="st6" d="M256,231.4L256,231.4c-30,0-54.2,24.3-54.2,54.2v26.2c0,30,24.3,54.2,54.2,54.2l0,0
						c30,0,54.2-24.3,54.2-54.2v-26.2C310.2,255.7,286,231.4,256,231.4z"/>
					<path class="st6" d="M256,360.1c-26.6,0-48.2-21.6-48.2-48.2v-26.2c0-26.6,21.6-48.2,48.2-48.2s48.2,21.6,48.2,48.2v26.2
						C304.2,338.4,282.6,360.1,256,360.1z"/>
					<path class="st8" d="M256,231.4c-2.3,0-4.6,0.2-6.8,0.4c21.6,3.4,38.3,26.2,38.3,53.8v26.2c0,27.6-16.7,50.4-38.3,53.8
						c2.2,0.3,4.5,0.4,6.8,0.4c30,0,54.2-24.3,54.2-54.2v-26.2C310.2,255.7,286,231.4,256,231.4z"/>
					<path class="st8" d="M279,354.2c9-11,14.5-26,14.5-42.4v-26.2c0-16.4-5.5-31.4-14.5-42.4c15,8.2,25.2,24.1,25.2,42.4v26.2
						C304.2,330.1,294,346,279,354.2z"/>
					<path class="st5" d="M291.3,244.5C291.3,244.5,291.3,244.5,291.3,244.5c-0.1-0.1-0.2-0.2-0.3-0.3c-0.4-0.4-0.8-0.7-1.3-1
						c-0.2-0.2-0.4-0.3-0.6-0.5c-0.4-0.3-0.8-0.6-1.2-0.9c-0.2-0.2-0.5-0.3-0.7-0.5c-0.4-0.3-0.7-0.5-1.1-0.8
						c-0.3-0.2-0.5-0.4-0.8-0.5c-0.3-0.2-0.7-0.4-1-0.6c-0.3-0.2-0.6-0.4-1-0.6c-0.3-0.2-0.6-0.3-0.9-0.5c-0.4-0.2-0.8-0.4-1.1-0.6
						c-0.2-0.1-0.4-0.2-0.6-0.3c-7.4-3.8-15.8-6-24.7-6c-30,0-54.2,24.3-54.2,54.2v5c8,3.5,16.8,5.5,26.1,5.5
						c19.1,0,36.2-8.3,48.1-21.4c7.5,11.5,19.9,19.6,34.3,21.1v-10.2C310.2,269.2,302.9,254.5,291.3,244.5z"/>
					<path class="st5" d="M227.9,290.2c-6.9,0-13.7-1.2-20.1-3.5v-1c0-26.6,21.6-48.2,48.2-48.2c7.7,0,15.1,1.8,22,5.3l0.5,0.3
						c0.3,0.1,0.5,0.3,0.8,0.5l0.3,0.2c0.2,0.1,0.4,0.2,0.6,0.4c0.3,0.2,0.6,0.3,0.9,0.5c0.3,0.2,0.6,0.4,0.9,0.6
						c0.2,0.2,0.5,0.3,0.7,0.5c0.3,0.2,0.7,0.4,1,0.7c0.2,0.1,0.4,0.3,0.6,0.4c0.3,0.3,0.7,0.5,1,0.8c0.2,0.1,0.4,0.3,0.5,0.4
						c0.4,0.3,0.8,0.6,1.1,0.9l0.3,0.2c10.7,9.2,16.9,22.5,16.9,36.6v3c-9.5-2.6-17.8-8.7-23.3-17.2l-4.3-6.6l-5.2,5.8
						C260.3,283.1,244.4,290.2,227.9,290.2z"/>
					<path class="st9" d="M291.3,244.5C291.3,244.5,291.3,244.5,291.3,244.5c-0.5-0.3-16.6-15.9-42.1-12.6
						c21.6,3.4,38.3,26.2,38.3,53.8v1.4c6.5,4.8,14.3,8,22.8,8.9C309.3,290.3,315.1,264.9,291.3,244.5z"/>
					<path class="st9" d="M304.2,288.7c-3.8-1.1-7.4-2.7-10.8-4.8c-0.4-15.6-5.8-29.9-14.4-40.5c3.7,2,6.4,4.1,8,5.4
						c0.1,0.1,0.2,0.2,0.3,0.3C303.5,262.9,304.4,278.8,304.2,288.7z"/>
				</g>
			</g>
		</g>
	</g>
	<g>
		<path d="M404.3,226c-0.8,0-1.5-0.7-1.5-1.5v-9.6c0-12.7-10.3-23-23-23h-17.9c-12.7,0-23,10.3-23,23v9.6c0,0.8-0.7,1.5-1.5,1.5
			s-1.5-0.7-1.5-1.5v-9.6c0-14.4,11.7-26,26-26h17.9c14.4,0,26,11.7,26,26v9.6C405.8,225.4,405.1,226,404.3,226z"/>
		<path d="M289.5,216.4c-0.8,0-1.5-0.7-1.5-1.5c0-12.7-10.3-23-23-23h-17.9c-12.7,0-23,10.3-23,23c0,0.8-0.7,1.5-1.5,1.5
			c-0.8,0-1.5-0.7-1.5-1.5c0-14.4,11.7-26,26-26h17.9c14.4,0,26,11.7,26,26C291,215.7,290.3,216.4,289.5,216.4z"/>
		<path d="M174.7,226c-0.8,0-1.5-0.7-1.5-1.5v-9.6c0-12.7-10.3-23-23-23h-17.9c-12.7,0-23,10.3-23,23v9.6c0,0.8-0.7,1.5-1.5,1.5
			s-1.5-0.7-1.5-1.5v-9.6c0-14.4,11.7-26,26-26h17.9c14.4,0,26,11.7,26,26v9.6C176.2,225.4,175.5,226,174.7,226z"/>
		<path d="M452.1,226c-0.8,0-1.5-0.7-1.5-1.5v-53.2H61.4v53.2c0,0.8-0.7,1.5-1.5,1.5s-1.5-0.7-1.5-1.5v-53.3h-9.5
			c-10.1,0-18.3-8.2-18.3-18.3v-11.9H7.5c-0.8,0-1.5-0.7-1.5-1.5v-24.2c0-0.6,0.4-1.2,0.9-1.4l122.9-48.6c0.2-0.1,0.4-0.1,0.5-0.1
			c0.5,0,1.1,0.2,1.4,0.9c0.2,0.5,0.1,0.9,0,1.1c-0.1,0.3-0.3,0.6-0.8,0.8L9,116.4v21.7h494v-21.7L256,18.8l-97,38.3
			c-0.2,0.1-0.4,0.1-0.6,0.1c-0.5,0-1.1-0.2-1.4-0.9c-0.2-0.5-0.1-0.9,0-1.1c0.1-0.3,0.3-0.6,0.8-0.8l97.6-38.6
			c0.2-0.1,0.4-0.1,0.6-0.1c0.2,0,0.4,0,0.5,0.1L505.1,114c0.6,0.2,0.9,0.8,0.9,1.4v24.2c0,0.8-0.7,1.5-1.5,1.5h-23.1V153
			c0,10.1-8.2,18.3-18.3,18.3h-9.5v53.3C453.6,225.4,452.9,226,452.1,226z M33.6,153c0,8.4,6.9,15.3,15.3,15.3h414.2
			c8.4,0,15.3-6.9,15.3-15.3l0-11.9H33.6V153z"/>
		<path d="M256,108.5c-14.2,0-25.8-11.6-25.8-25.8c0-14.2,11.6-25.8,25.8-25.8c14.2,0,25.8,11.6,25.8,25.8
			C281.8,97,270.2,108.5,256,108.5z M256,59.9c-12.6,0-22.8,10.2-22.8,22.8c0,12.6,10.2,22.8,22.8,22.8c12.6,0,22.8-10.2,22.8-22.8
			C278.8,70.1,268.6,59.9,256,59.9z"/>
		<path d="M353,448.8c-0.8,0-1.5-0.7-1.5-1.5s0.7-1.5,1.5-1.5h65.6v-41.3c0-18.2-14.8-33.1-33-33.3l-8.1-0.1l10.9,37.1
			c0.2,0.5,0,1.1-0.4,1.5l-15.6,16c-0.3,0.3-0.7,0.5-1.1,0.5s-0.8-0.2-1.1-0.5l-15.6-16c-0.4-0.4-0.5-1-0.4-1.5l10.9-37.1l-8.1,0.1
			c-11,0.1-21.2,5.6-27.4,14.7c-0.4,0.6-1,0.7-1.2,0.7c-0.3,0-0.6-0.1-0.8-0.3c-0.7-0.5-0.9-1.4-0.4-2.1c6.8-10,18-16,30.1-16h11.8
			l-11.8,40.1l13.9,14.3l13.9-14.3l-11.8-40.1h11.8c20,0,36.3,16.3,36.3,36.3v42.8c0,0.8-0.7,1.5-1.5,1.5H353z"/>
		<path d="M91.9,448.8c-0.8,0-1.5-0.7-1.5-1.5v-42.8c0-20,16.3-36.3,36.3-36.3h11.8l-11.8,40.1l13.9,14.3l13.9-14.3l-11.8-40.1h11.8
			c12.1,0,23.3,6,30.1,16c0.5,0.7,0.3,1.6-0.4,2.1c-0.3,0.2-0.5,0.3-0.8,0.3l0,0c-0.2,0-0.8-0.1-1.3-0.7
			c-6.2-9.1-16.4-14.6-27.4-14.7l-8.1-0.1l10.9,37.1c0.2,0.5,0,1.1-0.4,1.5l-15.6,16c-0.3,0.3-0.7,0.5-1.1,0.5s-0.8-0.2-1.1-0.5
			l-15.6-16c-0.4-0.4-0.5-1-0.4-1.5l10.9-37.2l-8.1,0.1c-18.2,0.1-33,15.1-33,33.3v41.3H159c0.8,0,1.5,0.7,1.5,1.5s-0.7,1.5-1.5,1.5
			H91.9z"/>
		<path d="M140.7,352.5c-13.9,0-27.4-7.5-34.6-19.2c-6.2-10.1-9-23.6-7.8-37.1c1.7-18.3,12-41,35.7-44.8c1.9-0.3,3.9-0.5,5.9-0.5
			c15.8,0,31.3,9.7,37.8,23.6c3.3,7.1,4.9,16,4.9,27.1c0,11.4-1.8,20.6-5.3,27.9c-6.3,13-20.2,22.2-34.5,23
			C142.1,352.5,141.4,352.5,140.7,352.5C140.7,352.5,140.7,352.5,140.7,352.5z M102.4,311.2c0,21.1,17.1,38.2,38.2,38.2
			c21.1,0,38.2-17.1,38.2-38.2v-10l-4.4-1.2c-5.9-1.6-11.3-4.8-15.7-9.1l-3.8-3.8l-4.2,3.4c-8.7,7-19.6,10.9-30.7,10.9
			c-3.5,0-7-0.4-10.3-1.1l-7.3-1.6V311.2z M140.6,254c-6.1,0-12.1,1.4-17.3,4.1c-6.9,3.5-19.9,16.4-20.7,27.1c-0.3,4.5,1.4,8.4,5,11
			c3.1,2.2,6.9,3.3,11.4,3.3c11.7,0,26.1-7.8,32.1-13.5c0.3-0.2,0.5-0.5,0.8-0.8c1-0.9,2.6-2.5,3.2-2.5c0,0,0,0,0,0
			c0.1,0,1.3,0.1,4,3.6c2.6,3.4,6.6,8.6,13.1,9.2l7.1,0.6l-0.6-7.1c-1-12.5-8.5-24.1-19.4-30.2c-5-2.8-10.7-4.4-16.5-4.7
			C142,254,141.3,254,140.6,254z"/>
		<path d="M371.5,352.5c-13.9,0-27.4-7.5-34.6-19.2c-6.2-10.1-9-23.6-7.8-37.1c1.7-18.3,12-41,35.7-44.8c1.9-0.3,3.9-0.5,5.9-0.5
			c15.8,0,31.3,9.7,37.8,23.6c3.3,7.1,4.9,16,4.9,27.1c0,11.4-1.8,20.6-5.3,27.9c-6.3,13-20.2,22.2-34.5,23
			C372.8,352.5,372.2,352.5,371.5,352.5C371.5,352.5,371.5,352.5,371.5,352.5z M333.2,311.2c0,21.1,17.1,38.2,38.2,38.2
			c21.1,0,38.2-17.1,38.2-38.2v-10l-4.4-1.2c-5.9-1.6-11.3-4.8-15.7-9.1l-3.8-3.8l-4.2,3.4c-8.7,7-19.6,10.9-30.7,10.9
			c-3.5,0-7-0.4-10.3-1.1l-7.3-1.6V311.2z M371.4,254c-6.3,0-12.4,1.5-17.8,4.3c-6.8,3.6-19.6,16.5-20.2,27.1
			c-0.3,4.5,1.5,8.3,5,10.8c3.1,2.2,6.9,3.3,11.4,3.3c12.2,0,26.3-8,32.1-13.4c0.3-0.2,0.5-0.5,0.8-0.8c1-0.9,2.6-2.5,3.2-2.5
			c0,0,0,0,0,0c0.1,0,1.3,0.1,4,3.6c2.8,3.6,6.6,8.6,13.1,9.2l7.1,0.7l-0.6-7.1c-1-12.6-8.6-24.2-19.7-30.3
			c-4.9-2.7-10.5-4.3-16.3-4.6C372.8,254,372.1,254,371.4,254z"/>
		<path d="M189.4,496.3c-0.8,0-1.5-0.7-1.5-1.5v-58.5c0-27,22-49,49-49h38.2c13.1,0,25.4,5.1,34.6,14.4c9.3,9.3,14.4,21.6,14.4,34.6
			v58.5c0,0.8-0.7,1.5-1.5,1.5H189.4z M236.9,390.3c-25.4,0-46,20.6-46,46v57h130.2v-57c0-25.4-20.6-46-46-46h-11.4l15.1,51.4
			c0.2,0.5,0,1.1-0.4,1.5L257.1,465c-0.3,0.3-0.7,0.5-1.1,0.5s-0.8-0.2-1.1-0.5l-21.4-21.9c-0.4-0.4-0.5-1-0.4-1.5l15.1-51.4H236.9z
			 M251.4,390.3l-15.1,51.4l19.7,20.1l19.7-20.1l-15.1-51.4L251.4,390.3z"/>
		<path d="M256.1,367.6c-7,0-13.7-1.2-20-3.7c-14.4-5.6-26.2-17.5-31.8-31.9c-5.3-13.8-7-29.9-4.8-45.6c4.5-31.4,22.6-52.3,48.6-56
			c2.3-0.3,4.6-0.5,7-0.5c22.4,0,43.8,14.2,52.1,34.5c3.9,9.5,5.5,20.5,5.2,35.9c-0.2,16-2.4,27.3-7,36.8
			c-5.1,10.6-13.8,19.3-24.5,24.7C273.4,365.6,264.8,367.6,256.1,367.6C256.1,367.6,256.1,367.6,256.1,367.6z M203.3,311.8
			c0,29.1,23.7,52.7,52.7,52.7c29.1,0,52.7-23.7,52.7-52.7v-14.4l-4.6-1.1c-9.5-2.2-18-7.2-24.5-14.4l-3.9-4.3l-4.4,3.8
			c-12.1,10.4-27.5,16.2-43.4,16.2c-5.8,0-11.5-0.7-17.1-2.2l-7.5-2V311.8z M255.9,233.1c-8,0-15.8,1.8-22.7,5.1
			c-9,4.4-17,11.7-22.3,20.6c-1.3,2.2-4.1,7.4-5.9,12.6c-1.1,3.1-4.4,12.3,0.6,17.9c2.1,2.2,4.7,3.1,7,3.7c4.8,1.2,9.7,1.8,14.8,1.8
			c16.6,0,32.9-6.5,44.5-17.8l0.3-0.3c1-1,3.3-3.3,4.1-3.3c0.7,0.1,2.6,2.6,3.4,3.6c0.3,0.4,0.5,0.7,0.8,1.1
			c5.2,6.7,12.5,11.8,20.6,14.3l7.6,2.3l0.1-7.9c0.3-17.9-9.2-35.7-24.2-45.3c-7.5-4.8-16.3-7.6-25.5-8.1
			C257.9,233.1,256.9,233.1,255.9,233.1z"/>
	</g>
</g>
</svg>
