<?xml version="1.0" encoding="utf-8"?>
<!-- Generator: Adobe Illustrator 22.0.1, SVG Export Plug-In . SVG Version: 6.00 Build 0)  -->
<svg version="1.1" id="Layer_1" xmlns="http://www.w3.org/2000/svg" xmlns:xlink="http://www.w3.org/1999/xlink" x="0px" y="0px"
	 viewBox="0 0 512 512" style="enable-background:new 0 0 512 512;" xml:space="preserve">
<style type="text/css">
	.st0{fill:#D8EC84;}
	.st1{fill:#FFCB7C;}
</style>
<g id="XMLID_1017_">
	<path id="XMLID_854_" class="st0" d="M350.6,427.3h-45.7v-45.7c0-53.8,43.6-97.4,97.4-97.4H448v45.7
		C448,383.7,404.4,427.3,350.6,427.3L350.6,427.3z"/>
	<path class="st0" d="M310.9,421.3v-39.7c0-50.4,41-91.4,91.4-91.4H442v39.7c0,50.4-41,91.4-91.4,91.4H310.9z"/>
	<path id="XMLID_853_" class="st0" d="M161.4,341.1h45.7v-45.7c0-53.8-43.6-97.4-97.4-97.4H64v45.7
		C64,297.5,107.6,341.1,161.4,341.1z"/>
	<path class="st0" d="M161.4,335.1c-50.4,0-91.4-41-91.4-91.4V204h39.7c50.4,0,91.4,41,91.4,91.4v39.7H161.4z"/>
	<circle id="XMLID_1541_" class="st1" cx="256" cy="107" r="97"/>
	<circle class="st1" cx="256" cy="107" r="91"/>
	<g id="XMLID_1278_">
		<path id="XMLID_1279_" d="M256,74.9c7.3,0,13.2,4.9,13.2,11c0,5.5,4.5,10,10,10s10-4.5,10-10c0-13.8-9.8-25.6-23.2-29.6V55
			c0-5.5-4.5-10-10-10s-10,4.5-10,10v1.4c-13.4,4-23.2,15.7-23.2,29.6c0,17.1,14.9,31,33.2,31c7.3,0,13.2,4.9,13.2,11
			c0,6.1-5.9,11-13.2,11s-13.2-4.9-13.2-11c0-5.5-4.5-10-10-10s-10,4.5-10,10c0,13.8,9.8,25.6,23.2,29.6v1.4c0,5.5,4.5,10,10,10
			s10-4.5,10-10v-1.4c13.4-4,23.2-15.7,23.2-29.6c0-17.1-14.9-31-33.2-31c-7.3,0-13.2-4.9-13.2-11S248.7,74.9,256,74.9z"/>
		<path d="M256,163c-2.2,0-4-1.8-4-4v-5.9l-4.3-1.3c-11.3-3.3-18.9-12.9-18.9-23.8c0-2.2,1.8-4,4-4s4,1.8,4,4c0,9.4,8.6,17,19.2,17
			c10.6,0,19.2-7.6,19.2-17c0-9.4-8.6-17-19.2-17c-15,0-27.2-11.2-27.2-25c0-10.9,7.6-20.5,18.9-23.8l4.3-1.3V55c0-2.2,1.8-4,4-4
			c2.2,0,4,1.8,4,4v5.9l4.3,1.3c11.3,3.3,18.9,12.9,18.9,23.8c0,2.2-1.8,4-4,4s-4-1.8-4-4c0-9.4-8.6-17-19.2-17
			c-10.6,0-19.2,7.6-19.2,17c0,9.4,8.6,17,19.2,17c15,0,27.2,11.2,27.2,25c0,10.9-7.6,20.5-18.9,23.8l-4.3,1.3v5.9
			C260,161.2,258.2,163,256,163z"/>
		<path d="M145.8,506c-2.2,0-4-1.8-4-4s1.8-4,4-4H252V391.7l-46.6-46.6h-44C105.5,345.1,60,299.6,60,243.7V198c0-2.2,1.8-4,4-4h45.7
			c55.9,0,101.4,45.5,101.4,101.4v44l40.9,40.9V208.1l-5.4-0.5c-24.9-2.3-48-13.8-65-32.4C164.4,156.5,155,132.3,155,107
			C155,51.3,200.3,6,256,6c10.2,0,20.3,1.5,30,4.5c1,0.3,1.9,1,2.4,2c0.5,0.9,0.6,2,0.3,3c-0.5,1.7-2.1,2.8-3.8,2.8
			c-0.4,0-0.8-0.1-1.2-0.2c-8.9-2.8-18.2-4.2-27.7-4.2c-51.3,0-93,41.7-93,93s41.7,93,93,93s93-41.7,93-93c0-10-1.6-19.9-4.7-29.3
			c-0.7-2.1,0.4-4.4,2.5-5.1c0.4-0.1,0.8-0.2,1.3-0.2c1.7,0,3.3,1.1,3.8,2.7c3.4,10.2,5.1,20.9,5.1,31.8c0,25.3-9.4,49.5-26.5,68.2
			c-17,18.6-40.1,30.1-65,32.4l-5.4,0.5v258.5l40.9-40.9v-44c0-55.9,45.5-101.4,101.4-101.4H448c2.2,0,4,1.8,4,4v45.7
			c0,55.9-45.5,101.4-101.4,101.4h-44L260,477.9V498h106.2c2.2,0,4,1.8,4,4s-1.8,4-4,4H145.8z M366.2,362.1c1.1,0,2.1,0.4,2.8,1.2
			c1.6,1.6,1.6,4.1,0,5.7l-54.4,54.4h36c51.5,0,93.4-41.9,93.4-93.4v-41.7h-41.7c-51.5,0-93.4,41.9-93.4,93.4v36l54.4-54.4
			C364.1,362.5,365.1,362.1,366.2,362.1z M68,243.7c0,51.5,41.9,93.4,93.4,93.4h36L143,282.7c-1.6-1.6-1.6-4.1,0-5.7
			c0.8-0.8,1.8-1.2,2.8-1.2c1.1,0,2.1,0.4,2.8,1.2l54.4,54.4v-36c0-51.5-41.9-93.4-93.4-93.4H68V243.7z"/>
		<path id="XMLID_1306_" d="M324.4,48.2c2.6,0,5.2-1.1,7.1-2.9c1.9-1.9,2.9-4.4,2.9-7.1c0-2.6-1.1-5.2-2.9-7.1s-4.4-2.9-7.1-2.9
			s-5.2,1.1-7.1,2.9c-1.9,1.9-2.9,4.4-2.9,7.1c0,2.6,1.1,5.2,2.9,7.1C319.2,47.1,321.8,48.2,324.4,48.2z"/>
		<path d="M324.4,42.2c-1,0-2.1-0.4-2.8-1.2c-0.7-0.7-1.2-1.8-1.2-2.8s0.4-2.1,1.2-2.8c0.7-0.7,1.8-1.2,2.8-1.2c1,0,2.1,0.4,2.8,1.2
			c0.7,0.7,1.2,1.8,1.2,2.8c0,1-0.4,2.1-1.2,2.8C326.5,41.8,325.4,42.2,324.4,42.2z"/>
	</g>
</g>
</svg>
