<?xml version="1.0" encoding="utf-8"?>
<!-- Generator: Adobe Illustrator 22.0.1, SVG Export Plug-In . SVG Version: 6.00 Build 0)  -->
<svg version="1.1" id="Capa_1" xmlns="http://www.w3.org/2000/svg" xmlns:xlink="http://www.w3.org/1999/xlink" x="0px" y="0px"
	 viewBox="0 0 512 512" style="enable-background:new 0 0 512 512;" xml:space="preserve">
<style type="text/css">
	.st0{fill:#C3DDFF;}
	.st1{fill:#DBEAFF;}
	.st2{fill:#FF8086;}
	.st3{fill:#E5646E;}
	.st4{fill:#DAD8DB;}
	.st5{fill:#FFE07D;}
	.st6{fill:#FFD064;}
	.st7{fill:#C8C5C9;}
	.st8{fill:#FFFFFF;}
	.st9{fill:#A4CCFF;}
</style>
<g>
	<g>
		<path class="st0" d="M440.4,151.8H71.6c-13.3,0-24,10.8-24,24v296.6h416.8V175.8C464.4,162.6,453.7,151.8,440.4,151.8L440.4,151.8
			z"/>
		<path class="st0" d="M53.6,466.4V175.8c0-10,8.1-18,18-18h368.7c10,0,18,8.1,18,18v290.6H53.6z"/>
		<path class="st1" d="M424.3,432.4H87.7c-8.9,0-16-7.2-16-16V191.9c0-8.9,7.2-16,16-16h336.7c8.9,0,16,7.2,16,16v224.5
			C440.4,425.2,433.2,432.4,424.3,432.4z"/>
		<path class="st1" d="M87.7,426.4c-5.5,0-10-4.5-10-10V191.9c0-5.5,4.5-10,10-10h336.7c5.5,0,10,4.5,10,10v224.5
			c0,2.7-1,5.2-2.9,7.1s-4.4,2.9-7.1,2.9H87.7z"/>
		<path class="st2" d="M207.9,191.9l-42.3,49.4c-3.7,4.4-5.8,9.9-5.8,15.6V280L232,240L207.9,191.9z"/>
		<path class="st2" d="M165.8,256.9c0-4.3,1.5-8.5,4.3-11.7l36.4-42.5l17.4,34.9l-58.2,32.3V256.9z"/>
		<path class="st3" d="M199.2,258.1L232,240l-24-48.1l-23.8,27.7C187.9,232.9,193,245.8,199.2,258.1L199.2,258.1z"/>
		<path class="st3" d="M201.9,249.8c-4.4-9.4-8.1-19.1-11.1-28.8l15.8-18.4l17.4,34.9L201.9,249.8z"/>
		<path class="st2" d="M304.1,191.9l42.3,49.4c3.7,4.4,5.8,9.9,5.8,15.6V280L280,240L304.1,191.9z"/>
		<path class="st2" d="M288,237.5l17.4-34.9l36.4,42.5c2.8,3.3,4.3,7.4,4.3,11.7v13L288,237.5z"/>
		<path class="st4" d="M7.5,456.4v16c0,8.9,7.2,16,16,16h464.9c8.9,0,16-7.2,16-16v-16H7.5z"/>
		<path class="st4" d="M23.5,482.5c-5.5,0-10-4.5-10-10v-10h485v10c0,5.5-4.5,10-10,10H23.5z"/>
		<path class="st5" d="M261.8,29.5c-3.1-3.3-8.5-3.3-11.6,0c-31.1,33.5-50.3,79.4-50.3,130.3c0,38.7,11.2,74.5,30.2,104.2h51.8
			c19-29.7,30.2-65.5,30.2-104.2C312.1,108.9,292.8,63,261.8,29.5z"/>
		<path class="st5" d="M233.4,258c-18-29.3-27.5-63.2-27.5-98.2c0-47.5,17.3-92.3,48.7-126.2c0.5-0.5,1.1-0.6,1.4-0.6
			c0.3,0,0.9,0.1,1.4,0.6c31.4,33.9,48.7,78.7,48.7,126.2c0,35.1-9.5,68.9-27.5,98.2H233.4z"/>
		<path class="st6" d="M251.2,240c-3.2,0-6.1-2-7.5-5.1c-10.5-23.7-15.8-49-15.8-75.1c0-25.1,5.2-49.6,14.7-72.1h-29
			c-8.8,22.2-13.7,46.5-13.7,72.1c0,38.7,11.2,74.5,30.2,104.2h51.8c4.9-7.6,9.2-15.7,13-24h-4L251.2,240L251.2,240z"/>
		<path class="st6" d="M233.4,258c-18-29.3-27.5-63.2-27.5-98.2c0-22.8,4-45.1,11.8-66.1h16.1c-7.9,21.3-11.9,43.5-11.9,66.1
			c0,27,5.5,53,16.3,77.5c2.3,5.2,7.4,8.6,13,8.6l34.2,0c-2.1,4.1-4.4,8.2-6.8,12H233.4z"/>
		<path class="st7" d="M288.1,296.1h-64.1l6.2-32.1h51.8L288.1,296.1z"/>
		<polygon class="st7" points="231.2,290.1 235.1,270 276.9,270 280.8,290.1 		"/>
		<circle class="st0" cx="256" cy="151.8" r="24"/>
		<circle class="st0" cx="256" cy="151.8" r="18"/>
		<path class="st2" d="M213.6,87.7h84.8c-8.7-21.8-21.2-41.6-36.6-58.2c-3.1-3.3-8.5-3.3-11.6,0C234.8,46.1,222.3,65.8,213.6,87.7z"
			/>
		<path class="st2" d="M222.7,81.7c8.1-17.8,18.8-33.9,31.9-48.1c0.5-0.5,1.1-0.6,1.4-0.6s0.9,0.1,1.4,0.6
			c13.1,14.2,23.8,30.3,31.9,48.1H222.7z"/>
		<path class="st3" d="M242.7,87.7c7.3-17.3,16.9-33.1,28.6-46.9c-3.1-3.9-6.2-7.7-9.5-11.3c-3.1-3.3-8.5-3.3-11.6,0
			c-15.4,16.6-27.9,36.3-36.6,58.2H242.7z"/>
		<path class="st3" d="M222.7,81.7c8.1-17.8,18.8-33.9,31.9-48.1c0.5-0.5,1.1-0.6,1.4-0.6s0.9,0.1,1.4,0.6c2,2.1,3.9,4.4,6.2,7.1
			c-9.9,12.3-18.2,26-24.8,41H222.7z"/>
		<path class="st8" d="M368.2,384.3c-6.4,0-12.6,1.1-18.3,3.1c-5.4-15.8-20.2-27.2-37.8-27.2c-9.8,0-18.7,3.7-25.6,9.5
			c0.9-3,1.6-6.2,1.6-9.5c0-17.7-14.4-32.1-32.1-32.1s-32.1,14.4-32.1,32.1c0,3.3,0.7,6.5,1.6,9.5c-7-5.9-15.8-9.5-25.6-9.5
			c-17.6,0-32.4,11.4-37.8,27.2c-5.8-2-11.9-3.1-18.3-3.1c-31,0-56.1,25.1-56.1,56.1c0,5.6,0.8,10.9,2.4,16h332
			c1.5-5.1,2.4-10.5,2.4-16C424.3,409.4,399.2,384.3,368.2,384.3z"/>
		<path class="st8" d="M94.7,450.4c-0.7-3.3-1-6.7-1-10c0-27.6,22.5-50.1,50.1-50.1c5.5,0,11,0.9,16.4,2.8l5.7,2l1.9-5.7
			c4.7-13.8,17.6-23.1,32.1-23.1c7.9,0,15.5,2.8,21.8,8.1l15.7,13.2l-6.1-19.6c-0.9-2.9-1.3-5.3-1.3-7.7c0-14.4,11.7-26.1,26.1-26.1
			s26.1,11.7,26.1,26.1c0,2.4-0.4,4.8-1.3,7.7l-6.1,19.6l15.7-13.2c6.3-5.3,13.9-8.1,21.8-8.1c14.5,0,27.4,9.3,32.1,23.1l1.9,5.7
			l5.7-2c5.4-1.9,10.9-2.8,16.4-2.8c13.4,0,26,5.2,35.4,14.7c9.5,9.5,14.7,22,14.7,35.4c0,3.4-0.3,6.7-1,10H94.7z"/>
		<path class="st9" d="M256,127.7c-10.9,0-19.9,7.3-22.9,17.2c2.2-0.7,4.5-1.1,6.9-1.1c13.3,0,24,10.8,24,24c0,2.4-0.5,4.7-1.1,6.9
			c9.9-3,17.2-12.1,17.2-22.9C280,138.5,269.3,127.7,256,127.7z"/>
		<path class="st9" d="M269.7,163.5c-1.9-13.1-12.3-23.5-25.4-25.4c3.2-2.7,7.3-4.3,11.7-4.3c10,0,18,8.1,18,18
			C274,156.2,272.4,160.3,269.7,163.5z"/>
	</g>
	<g>
		<path d="M23.5,490C13.9,490,6,482.1,6,472.4v-16c0-0.8,0.7-1.5,1.5-1.5h38.6V175.8c0-14.1,11.5-25.5,25.5-25.5h96.2
			c0.8,0,1.5,0.7,1.5,1.5s-0.7,1.5-1.5,1.5H71.6c-12.4,0-22.5,10.1-22.5,22.5v279.1h38.5l-0.9-6.8c-0.4-2.6-0.5-5.2-0.5-7.7
			c0-31.8,25.8-57.6,57.6-57.6c4.2,0,8.5,0.5,12.7,1.5l4.5,1l2.1-4.1c7.2-13.8,21.2-22.4,36.7-22.4c5,0,10,0.9,14.6,2.7l7.3,2.8
			l0.9-7.8c1.9-17,16.2-29.8,33.4-29.8c17.1,0,31.5,12.8,33.4,29.8l0.9,7.8l7.3-2.8c4.7-1.8,9.6-2.7,14.6-2.7
			c15.5,0,29.5,8.6,36.7,22.4l2.1,4.1l4.5-1c4.2-1,8.5-1.5,12.7-1.5c31.8,0,57.6,25.8,57.6,57.6c0,2.5-0.2,5.1-0.5,7.7l-0.9,6.8
			h38.5V175.8c0-12.4-10.1-22.5-22.5-22.5h-96.2c-0.8,0-1.5-0.7-1.5-1.5s0.7-1.5,1.5-1.5h96.2c14.1,0,25.5,11.5,25.5,25.5v279.1
			h38.6c0.8,0,1.5,0.7,1.5,1.5v16c0,9.7-7.9,17.5-17.5,17.5H23.5z M9,472.4c0,8,6.5,14.5,14.5,14.5h464.9c8,0,14.5-6.5,14.5-14.5
			v-14.5H143.8c-0.8,0-1.5-0.7-1.5-1.5s0.7-1.5,1.5-1.5h277.3l0.9-4.9c0.6-3.2,0.9-6.4,0.9-9.6c0-30.1-24.5-54.6-54.6-54.6
			c-6,0-12,1-17.9,3c-0.2,0.1-0.3,0.1-0.5,0.1c-0.2,0-0.5-0.1-0.7-0.2c-0.4-0.2-0.6-0.5-0.8-0.9c-5.4-15.6-20-26.2-36.3-26.2
			c-9,0-17.5,3.2-24.7,9.2c-0.3,0.3-0.7,0.4-1,0.4c-0.2,0-0.5,0-0.8-0.3c-0.5-0.4-0.8-1.1-0.6-1.7c1-3.3,1.5-6.2,1.5-9.1
			c0-16.9-13.7-30.6-30.6-30.6c-16.9,0-30.6,13.7-30.6,30.6c0,2.8,0.5,5.7,1.5,9.1c0.2,0.6,0,1.3-0.6,1.7c-0.3,0.2-0.6,0.3-0.8,0.3
			c-0.2,0-0.6-0.1-1-0.4c-7.1-6-15.7-9.2-24.7-9.2c-16.4,0-31,10.5-36.3,26.2c-0.1,0.4-0.4,0.7-0.8,0.9c-0.2,0.1-0.4,0.2-0.7,0.2
			c-0.2,0-0.3,0-0.5-0.1c-5.8-2-11.8-3-17.9-3c-30.1,0-54.6,24.5-54.6,54.6c0,3.2,0.3,6.4,0.9,9.6l0.9,4.9h20.8
			c0.8,0,1.5,0.7,1.5,1.5s-0.7,1.5-1.5,1.5H9V472.4z"/>
		<path d="M223.9,297.6c-0.5,0-0.9-0.2-1.2-0.6c-0.3-0.4-0.4-0.8-0.3-1.3l7.3-29.4l-1.4-2.2c-2.2-3.5-4.3-7-6.3-10.6l-2.9-5.3
			l-58.7,33.1c-0.2,0.1-0.5,0.2-0.7,0.2c-0.3,0-0.5-0.1-0.8-0.2c-0.5-0.3-0.7-0.8-0.7-1.3v-23.4c0-6,2.1-11.8,5.9-16.4l37.4-44.9
			l-0.5-2.7c-1.8-10.8-2.7-21.9-2.7-32.9c0-26.5,5.1-52.2,15.3-76.2c9.8-23.2,23.7-43.7,41.3-61.1c0.4-0.4,0.8-0.4,1.1-0.4
			c0.3,0,0.7,0.1,1.1,0.4c17.6,17.4,31.5,37.9,41.3,61.1c10.1,24,15.3,49.7,15.3,76.2c0,11-0.9,22.1-2.8,33l-0.5,2.7l37.4,44.8
			c3.8,4.6,5.9,10.4,5.9,16.4V280c0,0.5-0.3,1-0.7,1.3c-0.2,0.1-0.5,0.2-0.8,0.2c-0.3,0-0.5-0.1-0.7-0.2l-58.7-33.1l-2.9,5.3
			c-2,3.6-4.1,7.2-6.3,10.6l-1.4,2.2l7.3,29.4c0.1,0.5,0,0.9-0.3,1.3c-0.3,0.4-0.7,0.6-1.2,0.6H223.9z M225.9,294.6h60.3l-7.3-29.1
			h-45.8L225.9,294.6z M306.9,210.8c-2.7,10.2-6.3,20.2-10.6,29.7l-2.3,5l56.6,31.9v-20.8c0-5.3-1.9-10.4-5.2-14.4l-35.5-42.6
			L306.9,210.8z M166.5,242.3c-3.4,4-5.2,9.2-5.2,14.4v20.8l56.6-31.9l-2.3-5c-4.3-9.5-7.9-19.5-10.6-29.7l-3-11.2L166.5,242.3z
			 M213.2,93.1c-7.9,21.4-11.9,43.9-11.9,66.7c0,35.5,9.6,70,27.7,99.8l1.8,2.9h50.2l1.8-2.9c18.2-29.8,27.7-64.3,27.7-99.8
			c0-22.8-4-45.3-11.9-66.7l-1.4-3.9h-82.6L213.2,93.1z M251.6,30.2c-12.9,13.9-23.7,29.9-31.9,47.4l-4,8.6h80.6l-4-8.6
			c-8.2-17.6-19-33.5-31.9-47.4l-4.4-4.7L251.6,30.2z"/>
		<path d="M287.5,151.8c0-17.4-14.2-31.5-31.5-31.5s-31.5,14.2-31.5,31.5s14.2,31.5,31.5,31.5S287.5,169.2,287.5,151.8z
			 M239.5,151.8c0-9.1,7.4-16.5,16.5-16.5s16.5,7.4,16.5,16.5s-7.4,16.5-16.5,16.5S239.5,160.9,239.5,151.8z"/>
		<path d="M256,177.3c-14.1,0-25.5-11.5-25.5-25.5s11.5-25.5,25.5-25.5s25.5,11.5,25.5,25.5S270.1,177.3,256,177.3z M256,129.2
			c-12.4,0-22.5,10.1-22.5,22.5s10.1,22.5,22.5,22.5c12.4,0,22.5-10.1,22.5-22.5S268.4,129.2,256,129.2z"/>
	</g>
</g>
</svg>
