<?xml version="1.0" encoding="utf-8"?>
<!-- Generator: Adobe Illustrator 22.0.1, SVG Export Plug-In . SVG Version: 6.00 Build 0)  -->
<svg version="1.1" id="Capa_1" xmlns="http://www.w3.org/2000/svg" xmlns:xlink="http://www.w3.org/1999/xlink" x="0px" y="0px"
	 viewBox="0 0 512 512" style="enable-background:new 0 0 512 512;" xml:space="preserve">
<style type="text/css">
	.st0{fill:#EBEEF2;}
	.st1{fill:#D1D6DE;}
	.st2{fill:#5C9CEE;}
	.st3{fill:#F2DF33;}
	.st4{fill:#ED5575;}
	.st5{fill:#9FD479;}
	.st6{fill:#FCAB29;}
	.st7{fill:#48CFB7;}
	.st8{fill:#CC3A60;}
</style>
<g>
	<g>
		<g>
			<path class="st0" d="M7.5,61.3v309.4c0,7.6,6.1,13.7,13.7,13.7h404.3c7.6,0,13.7-6.1,13.7-13.7V61.3c0-7.6-6.1-13.7-13.7-13.7
				H21.2C13.6,47.6,7.5,53.8,7.5,61.3z"/>
			<path class="st0" d="M21.2,378.5c-4.3,0-7.7-3.5-7.7-7.7V61.3c0-4.3,3.5-7.7,7.7-7.7h404.3c4.3,0,7.7,3.5,7.7,7.7v309.4
				c0,4.3-3.5,7.7-7.7,7.7H21.2z"/>
			<path class="st1" d="M425.5,47.6h-24.8c7.6,0,13.7,6.1,13.7,13.7v309.4c0,7.6-6.1,13.7-13.7,13.7h24.8c7.6,0,13.7-6.1,13.7-13.7
				V61.3C439.2,53.8,433.1,47.6,425.5,47.6z"/>
			<path class="st1" d="M418.8,378.5c1-2.4,1.6-5,1.6-7.7V61.3c0-2.7-0.6-5.3-1.6-7.7h6.7c4.3,0,7.7,3.5,7.7,7.7v309.4
				c0,4.3-3.5,7.7-7.7,7.7H418.8z"/>
			<g>
				<g>
					<circle class="st2" cx="120.1" cy="204.2" r="17.5"/>
					<path class="st2" d="M120.1,215.7c-6.3,0-11.5-5.2-11.5-11.5s5.2-11.5,11.5-11.5s11.5,5.2,11.5,11.5S126.5,215.7,120.1,215.7z"
						/>
				</g>
				<g>
					<circle class="st3" cx="189" cy="165.1" r="17.5"/>
					<circle class="st3" cx="189" cy="165.1" r="11.5"/>
				</g>
				<g>
					<circle class="st4" cx="257.8" cy="204.2" r="17.5"/>
					<circle class="st4" cx="257.8" cy="204.2" r="11.5"/>
				</g>
				<g>
					<circle class="st5" cx="326.6" cy="108.1" r="17.5"/>
					<circle class="st5" cx="326.6" cy="108.1" r="11.5"/>
				</g>
			</g>
			<path class="st3" d="M80.4,408.5v-24h285.9v24c0,5.3-4.3,9.6-9.6,9.6H90C84.7,418,80.4,413.7,80.4,408.5z"/>
			<path class="st3" d="M90,412c-2,0-3.6-1.6-3.6-3.6v-18h273.9v18c0,2-1.6,3.6-3.6,3.6H90z"/>
			<path class="st6" d="M342.1,384.5v24c0,5.3-4.3,9.6-9.6,9.6h24.2c5.3,0,9.6-4.3,9.6-9.6v-24H342.1z"/>
			<path class="st6" d="M347.7,412c0.3-1.1,0.4-2.3,0.4-3.6v-18h12.2v18c0,2-1.6,3.6-3.6,3.6H347.7z"/>
			<path class="st3" d="M189.2,47.6V25.4c0-6.2,5.1-11.3,11.3-11.3h45.6c6.2,0,11.3,5.1,11.3,11.3v22.2L189.2,47.6L189.2,47.6z"/>
			<path class="st3" d="M195.2,41.6V25.4c0-2.9,2.4-5.3,5.3-5.3h45.6c2.9,0,5.3,2.4,5.3,5.3v16.2H195.2z"/>
			<path class="st6" d="M246.2,14.1h-24.4c6.2,0,11.3,5.1,11.3,11.3v22.2h24.4V25.4C257.5,19.1,252.4,14.1,246.2,14.1z"/>
			<path class="st6" d="M239.1,41.6V25.4c0-1.9-0.3-3.6-0.8-5.3h7.9c2.9,0,5.3,2.4,5.3,5.3v16.2H239.1z"/>
			<rect x="104.9" y="275.1" class="st7" width="30.4" height="66.3"/>
			<rect x="110.9" y="281.1" class="st7" width="18.4" height="54.3"/>
			<rect x="173.7" y="236.7" class="st7" width="30.4" height="104.6"/>
			<rect x="179.7" y="242.7" class="st7" width="18.4" height="92.6"/>
			<rect x="242.6" y="275.1" class="st7" width="30.4" height="66.3"/>
			<rect x="248.6" y="281.1" class="st7" width="18.4" height="54.3"/>
			<rect x="311.4" y="206.9" class="st7" width="30.4" height="134.5"/>
			<rect x="317.4" y="212.9" class="st7" width="18.4" height="122.5"/>
		</g>
		<g>
			<path class="st4" d="M409.5,312.1l55.8,96.7c5.8,10,18.7,13.5,28.7,7.7l0,0c10-5.8,13.5-18.7,7.7-28.7l-55.8-96.7L409.5,312.1z"
				/>
			<path class="st4" d="M483.5,413.3c-5.4,0-10.3-2.9-13-7.5l-52.8-91.5l26-15l52.8,91.5c2,3.5,2.5,7.5,1.5,11.4
				c-1,3.9-3.5,7.1-7,9.1C488.7,412.6,486.1,413.3,483.5,413.3C483.5,413.3,483.5,413.3,483.5,413.3z"/>
			<path class="st8" d="M445.8,291.1l-36.4,21l21.8,37.7c6.5-2.3,13-5.2,19.2-8.8s12-7.7,17.2-12.2L445.8,291.1z"/>
			<path class="st8" d="M417.7,314.3l26-15l16.2,28.1c-4,3.1-8.1,5.9-12.5,8.4c-4.3,2.5-8.9,4.7-13.5,6.6L417.7,314.3z"/>
			<circle class="st3" cx="393.5" cy="242.5" r="90.5"/>
			<circle class="st3" cx="393.5" cy="242.5" r="84.5"/>
			<circle class="st2" cx="393.5" cy="242.5" r="63.7"/>
			<circle class="st2" cx="393.5" cy="242.5" r="57.7"/>
		</g>
	</g>
	<g>
		<path d="M257.8,223.2c-10.5,0-19-8.5-19-19c0-1.3,0.1-2.7,0.4-4l0.9-4.3l-35-19.9l-3.2,3c-3.5,3.3-8.1,5.1-12.9,5.1
			c-4.8,0-9.4-1.8-12.9-5.1l-3.2-3l-35,19.9l0.9,4.3c0.3,1.3,0.4,2.7,0.4,4c0,10.5-8.5,19-19,19s-19-8.5-19-19s8.5-19,19-19
			c4.8,0,9.4,1.8,12.9,5.1l3.2,3l35-19.9l-0.9-4.3c-0.3-1.3-0.4-2.7-0.4-4c0-10.5,8.5-19,19-19s19,8.5,19,19c0,1.3-0.1,2.7-0.4,4
			l-0.9,4.3l35,19.9l3.2-3c3.5-3.3,8.1-5.1,12.9-5.1c2,0,4,0.3,5.9,0.9l4.2,1.4l46.2-64.6l-2.7-3.5c-2.5-3.3-3.8-7.3-3.8-11.4
			c0-10.5,8.5-19,19-19s19,8.5,19,19c0,10.5-8.5,19-19,19c-2,0-4-0.3-5.9-0.9l-4.2-1.4l-46.2,64.6l2.7,3.5c2.5,3.3,3.8,7.3,3.8,11.4
			C276.8,214.7,268.3,223.2,257.8,223.2z M257.8,188.2c-8.8,0-16,7.2-16,16s7.2,16,16,16c8.8,0,16-7.2,16-16
			S266.6,188.2,257.8,188.2z M120.1,188.2c-8.8,0-16,7.2-16,16s7.2,16,16,16s16-7.2,16-16S128.9,188.2,120.1,188.2z M189,149.1
			c-8.8,0-16,7.2-16,16c0,8.8,7.2,16,16,16c4.3,0,8.3-1.7,11.3-4.7c3-3,4.7-7,4.7-11.3C205,156.3,197.8,149.1,189,149.1z
			 M326.6,92.1c-4.3,0-8.3,1.7-11.3,4.7s-4.7,7-4.7,11.3c0,8.8,7.2,16,16,16s16-7.2,16-16C342.6,99.2,335.4,92.1,326.6,92.1z"/>
		<path d="M310.4,499.4c-0.4,0-1-0.2-1.3-0.8l-40.5-79.1h-90.3l-40.5,79.1c-0.3,0.6-0.9,0.8-1.3,0.8c-0.2,0-0.5-0.1-0.7-0.2
			c-0.7-0.4-1-1.3-0.7-2l39.8-77.7H90c-6.1,0-11.1-5-11.1-11.1V386H21.2C12.8,386,6,379.1,6,370.8V61.3c0-8.4,6.8-15.2,15.2-15.2
			h35.4c0.8,0,1.5,0.7,1.5,1.5s-0.7,1.5-1.5,1.5H21.2C14.5,49.1,9,54.6,9,61.3v309.4c0,6.7,5.5,12.2,12.2,12.2h397.6
			c0.8,0,1.5,0.7,1.5,1.5s-0.7,1.5-1.5,1.5h-51v22.5c0,6.1-5,11.1-11.1,11.1h-84.9l39.8,77.7c0.2,0.5,0.2,0.9,0.1,1.1
			c-0.1,0.3-0.3,0.6-0.7,0.9C310.8,499.4,310.6,499.4,310.4,499.4z M81.9,408.5c0,4.4,3.6,8.1,8.1,8.1h266.8c4.4,0,8.1-3.6,8.1-8.1
			V386H81.9V408.5z"/>
		<path d="M439.2,134.1c-0.8,0-1.5-0.7-1.5-1.5V61.3c0-6.7-5.5-12.2-12.2-12.2h-339c-0.8,0-1.5-0.7-1.5-1.5s0.7-1.5,1.5-1.5h101.2
			V25.4c0-7.1,5.7-12.8,12.8-12.8h45.6c7.1,0,12.8,5.7,12.8,12.8v20.7h166.5c8.4,0,15.2,6.8,15.2,15.2v71.3
			C440.7,133.5,440.1,134.1,439.2,134.1z M200.6,15.6c-5.4,0-9.8,4.4-9.8,9.8l0,20.7H256V25.4c0-5.4-4.4-9.8-9.8-9.8H200.6z"/>
		<path d="M104.9,342.8c-0.8,0-1.5-0.7-1.5-1.5v-66.3c0-0.8,0.7-1.5,1.5-1.5h30.4c0.8,0,1.5,0.7,1.5,1.5v66.3c0,0.8-0.7,1.5-1.5,1.5
			H104.9z M106.4,339.8h27.4v-63.3h-27.4V339.8z"/>
		<path d="M173.7,342.8c-0.8,0-1.5-0.7-1.5-1.5V236.7c0-0.8,0.7-1.5,1.5-1.5h30.4c0.8,0,1.5,0.7,1.5,1.5v104.6
			c0,0.8-0.7,1.5-1.5,1.5H173.7z M175.2,339.8h27.4V238.2h-27.4V339.8z"/>
		<path d="M242.6,342.8c-0.8,0-1.5-0.7-1.5-1.5v-66.3c0-0.8,0.7-1.5,1.5-1.5H273c0.8,0,1.5,0.7,1.5,1.5v66.3c0,0.8-0.7,1.5-1.5,1.5
			H242.6z M244.1,339.8h27.4v-63.3h-27.4V339.8z"/>
		<path d="M311.4,342.8c-0.8,0-1.5-0.7-1.5-1.5v-22c0-0.8,0.7-1.5,1.5-1.5s1.5,0.7,1.5,1.5v20.5h28.9c0.8,0,1.5,0.7,1.5,1.5
			s-0.7,1.5-1.5,1.5H311.4z"/>
		<path d="M483.5,420.8c-8,0-15.5-4.3-19.5-11.2l-45.2-78.4l-4.3,1c-6.8,1.6-13.7,2.4-20.7,2.4c-8,0-16.1-1.1-24-3.2
			c-23.7-6.4-43.6-21.6-55.9-42.9c-12.3-21.3-15.5-46-9.1-69.8c6.4-23.8,21.6-43.6,42.8-55.9c13.9-8.1,29.8-12.3,45.8-12.3
			c32.9,0,63.5,17.6,79.9,46c12.3,21.3,15.6,46.1,9.2,69.8c-3.9,14.7-11.4,28.2-21.7,39.1l-3,3.2L503,387c2,3.4,3,7.3,3,11.2
			c0,8-4.3,15.5-11.3,19.5C491.3,419.7,487.5,420.8,483.5,420.8L483.5,420.8z M450.1,315.1c-3.4,2.6-6.9,5-10.6,7.1
			c-3.6,2.1-7.5,4-11.4,5.6l-6.4,2.6l44.8,77.7c3.5,6,10,9.8,16.9,9.8c3.4,0,6.8-0.9,9.7-2.6c6-3.5,9.8-10,9.8-16.9
			c0-3.4-0.9-6.8-2.6-9.7l-44.8-77.7L450.1,315.1z M393.4,153.5c-15.5,0-30.9,4.1-44.4,11.9c-42.5,24.5-57.1,79.1-32.6,121.6
			c11.9,20.6,31.1,35.3,54.1,41.5c7.6,2,15.4,3.1,23.2,3.1c15.5,0,30.8-4.1,44.4-12c20.6-11.9,35.3-31.1,41.5-54.1
			c6.2-23,3-47-8.9-67.6C454.8,170.5,425.2,153.5,393.4,153.5z"/>
		<path d="M393.7,307.7c-5.7,0-11.4-0.8-17-2.3c-16.8-4.5-30.9-15.3-39.6-30.4c-8.7-15.1-11-32.7-6.5-49.5
			c4.5-16.8,15.3-30.9,30.4-39.6c9.9-5.7,21.2-8.8,32.6-8.8c14.3,0,27.9,4.6,39.4,13.2c0.4,0.3,0.5,0.7,0.6,1s0,0.7-0.3,1.1
			c-0.4,0.5-1,0.6-1.2,0.6c-0.3,0-0.6-0.1-0.9-0.3c-10.9-8.3-23.9-12.6-37.5-12.6c-10.9,0-21.7,2.9-31.1,8.4
			c-14.4,8.3-24.7,21.7-29,37.8c-4.3,16.1-2.1,32.8,6.2,47.2c8.3,14.4,21.7,24.7,37.8,29c5.3,1.4,10.8,2.1,16.2,2.1
			c10.8,0,21.5-2.9,31-8.4c13.6-7.9,23.7-20.4,28.3-35.4c4.6-14.9,3.5-30.9-3.1-44.9c-0.4-0.7,0-1.6,0.7-2c0.2-0.1,0.4-0.1,0.6-0.1
			c0.5,0,1.1,0.2,1.4,0.9c6.9,14.7,8.1,31.5,3.2,47.1c-4.9,15.7-15.4,28.9-29.7,37.1C416.2,304.7,405,307.7,393.7,307.7z"/>
	</g>
</g>
</svg>
